STARTFONT 2.1
FONT -lucy-Tewi-medium-R-Normal--11-90-75-75-P-58-ISO10646-1
SIZE 9 75 75
FONTBOUNDINGBOX 13 12 -2 -3
STARTPROPERTIES 23
CHARSET_COLLECTIONS "ISO8859-2 ISO8859-5 ISO8859-9 ISO8859-4 ISO10646-1"
COPYRIGHT "© lucy <ne.tetewi@gmail.com>"
FOUNDRY "lucy"
FAMILY_NAME "Tewi"
WEIGHT_NAME "medium"
SLANT "R"
SETWIDTH_NAME "Normal"
ADD_STYLE_NAME ""
PIXEL_SIZE 11
POINT_SIZE 90
RESOLUTION_X 75
RESOLUTION_Y 75
SPACING "P"
AVERAGE_WIDTH 58
CHARSET_REGISTRY "ISO10646"
CHARSET_ENCODING "1"
_GBDFED_INFO "Edited with gbdfed 1.6."
WEIGHT 10
X_HEIGHT -1
QUAD_WIDTH 7
DEFAULT_CHAR 0
FONT_DESCENT 3
FONT_ASCENT 9
ENDPROPERTIES
CHARS 2045
STARTCHAR <control>
ENCODING 0
SWIDTH 0 0
DWIDTH 0 0
BBX 0 0 0 0
BITMAP
ENDCHAR
STARTCHAR <control>
ENCODING 8
SWIDTH 0 0
DWIDTH 0 0
BBX 0 0 0 0
BITMAP
ENDCHAR
STARTCHAR <control>
ENCODING 9
SWIDTH 640 0
DWIDTH 6 0
BBX 0 0 0 0
BITMAP
ENDCHAR
STARTCHAR <control>
ENCODING 10
SWIDTH 640 0
DWIDTH 6 0
BBX 0 0 0 0
BITMAP
ENDCHAR
STARTCHAR <control>
ENCODING 13
SWIDTH 640 0
DWIDTH 6 0
BBX 0 0 0 0
BITMAP
ENDCHAR
STARTCHAR <control>
ENCODING 29
SWIDTH 0 0
DWIDTH 0 0
BBX 0 0 0 0
BITMAP
ENDCHAR
STARTCHAR SPACE
ENCODING 32
SWIDTH 640 0
DWIDTH 6 0
BBX 0 0 0 0
BITMAP
ENDCHAR
STARTCHAR EXCLAMATION
ENCODING 33
SWIDTH 640 0
DWIDTH 6 0
BBX 1 7 2 0
BITMAP
80
80
80
80
80
00
80
ENDCHAR
STARTCHAR QUOTATION
ENCODING 34
SWIDTH 640 0
DWIDTH 6 0
BBX 3 3 1 4
BITMAP
A0
A0
A0
ENDCHAR
STARTCHAR NUMBER
ENCODING 35
SWIDTH 640 0
DWIDTH 6 0
BBX 5 5 0 1
BITMAP
50
F8
50
F8
50
ENDCHAR
STARTCHAR DOLLAR
ENCODING 36
SWIDTH 640 0
DWIDTH 6 0
BBX 5 9 0 -1
BITMAP
20
70
A8
A0
70
28
A8
70
20
ENDCHAR
STARTCHAR PERCENT
ENCODING 37
SWIDTH 640 0
DWIDTH 6 0
BBX 5 7 0 0
BITMAP
48
A8
50
20
50
A8
90
ENDCHAR
STARTCHAR AMPERSAND
ENCODING 38
SWIDTH 640 0
DWIDTH 6 0
BBX 5 7 0 0
BITMAP
60
90
A0
40
A8
90
68
ENDCHAR
STARTCHAR APOSTROPHE
ENCODING 39
SWIDTH 640 0
DWIDTH 6 0
BBX 1 3 2 5
BITMAP
80
80
80
ENDCHAR
STARTCHAR LEFT
ENCODING 40
SWIDTH 640 0
DWIDTH 6 0
BBX 3 9 1 -1
BITMAP
20
40
40
80
80
80
40
40
20
ENDCHAR
STARTCHAR RIGHT
ENCODING 41
SWIDTH 640 0
DWIDTH 6 0
BBX 3 9 2 -1
BITMAP
80
40
40
20
20
20
40
40
80
ENDCHAR
STARTCHAR ASTERISK
ENCODING 42
SWIDTH 640 0
DWIDTH 6 0
BBX 5 5 0 1
BITMAP
20
A8
70
A8
20
ENDCHAR
STARTCHAR PLUS
ENCODING 43
SWIDTH 640 0
DWIDTH 6 0
BBX 5 5 0 1
BITMAP
20
20
F8
20
20
ENDCHAR
STARTCHAR COMMA
ENCODING 44
SWIDTH 640 0
DWIDTH 6 0
BBX 2 4 2 -2
BITMAP
C0
C0
40
80
ENDCHAR
STARTCHAR HYPHEN-MINUS
ENCODING 45
SWIDTH 640 0
DWIDTH 6 0
BBX 5 1 0 3
BITMAP
F8
ENDCHAR
STARTCHAR FULL
ENCODING 46
SWIDTH 640 0
DWIDTH 6 0
BBX 2 2 2 0
BITMAP
C0
C0
ENDCHAR
STARTCHAR SOLIDUS
ENCODING 47
SWIDTH 640 0
DWIDTH 6 0
BBX 5 10 0 -2
BITMAP
08
08
10
10
20
20
40
40
80
80
ENDCHAR
STARTCHAR DIGIT
ENCODING 48
SWIDTH 640 0
DWIDTH 6 0
BBX 5 7 0 0
BITMAP
70
88
98
A8
C8
88
70
ENDCHAR
STARTCHAR DIGIT
ENCODING 49
SWIDTH 640 0
DWIDTH 6 0
BBX 3 7 1 0
BITMAP
40
C0
40
40
40
40
E0
ENDCHAR
STARTCHAR DIGIT
ENCODING 50
SWIDTH 640 0
DWIDTH 6 0
BBX 5 7 0 0
BITMAP
70
88
08
10
20
40
F8
ENDCHAR
STARTCHAR DIGIT
ENCODING 51
SWIDTH 640 0
DWIDTH 6 0
BBX 5 7 0 0
BITMAP
70
88
08
30
08
88
70
ENDCHAR
STARTCHAR DIGIT
ENCODING 52
SWIDTH 640 0
DWIDTH 6 0
BBX 5 7 0 0
BITMAP
10
30
50
90
F8
10
38
ENDCHAR
STARTCHAR DIGIT
ENCODING 53
SWIDTH 640 0
DWIDTH 6 0
BBX 5 7 0 0
BITMAP
F8
80
F0
08
08
88
70
ENDCHAR
STARTCHAR DIGIT
ENCODING 54
SWIDTH 640 0
DWIDTH 6 0
BBX 5 7 0 0
BITMAP
70
80
F0
88
88
88
70
ENDCHAR
STARTCHAR DIGIT
ENCODING 55
SWIDTH 640 0
DWIDTH 6 0
BBX 5 7 0 0
BITMAP
F8
08
08
10
20
20
20
ENDCHAR
STARTCHAR DIGIT
ENCODING 56
SWIDTH 640 0
DWIDTH 6 0
BBX 5 7 0 0
BITMAP
70
88
88
70
88
88
70
ENDCHAR
STARTCHAR DIGIT
ENCODING 57
SWIDTH 640 0
DWIDTH 6 0
BBX 5 7 0 0
BITMAP
70
88
88
88
78
08
70
ENDCHAR
STARTCHAR COLON
ENCODING 58
SWIDTH 640 0
DWIDTH 6 0
BBX 2 6 2 0
BITMAP
C0
C0
00
00
C0
C0
ENDCHAR
STARTCHAR SEMICOLON
ENCODING 59
SWIDTH 640 0
DWIDTH 6 0
BBX 2 8 2 -2
BITMAP
C0
C0
00
00
C0
C0
40
80
ENDCHAR
STARTCHAR LESS-THAN
ENCODING 60
SWIDTH 640 0
DWIDTH 6 0
BBX 4 7 1 0
BITMAP
10
20
40
80
40
20
10
ENDCHAR
STARTCHAR EQUALS
ENCODING 61
SWIDTH 640 0
DWIDTH 6 0
BBX 5 3 0 2
BITMAP
F8
00
F8
ENDCHAR
STARTCHAR GREATER-THAN
ENCODING 62
SWIDTH 640 0
DWIDTH 6 0
BBX 4 7 1 0
BITMAP
80
40
20
10
20
40
80
ENDCHAR
STARTCHAR QUESTION
ENCODING 63
SWIDTH 640 0
DWIDTH 6 0
BBX 5 7 0 0
BITMAP
70
88
08
10
20
00
20
ENDCHAR
STARTCHAR COMMERCIAL
ENCODING 64
SWIDTH 640 0
DWIDTH 6 0
BBX 5 7 0 0
BITMAP
70
88
B8
A8
B8
80
78
ENDCHAR
STARTCHAR LATIN
ENCODING 65
SWIDTH 640 0
DWIDTH 6 0
BBX 5 7 0 0
BITMAP
70
88
88
F8
88
88
88
ENDCHAR
STARTCHAR LATIN
ENCODING 66
SWIDTH 640 0
DWIDTH 6 0
BBX 5 7 0 0
BITMAP
F0
88
88
F0
88
88
F0
ENDCHAR
STARTCHAR LATIN
ENCODING 67
SWIDTH 640 0
DWIDTH 6 0
BBX 5 7 0 0
BITMAP
70
88
80
80
80
88
70
ENDCHAR
STARTCHAR LATIN
ENCODING 68
SWIDTH 640 0
DWIDTH 6 0
BBX 5 7 0 0
BITMAP
F0
88
88
88
88
88
F0
ENDCHAR
STARTCHAR LATIN
ENCODING 69
SWIDTH 640 0
DWIDTH 6 0
BBX 5 7 0 0
BITMAP
F8
80
80
F0
80
80
F8
ENDCHAR
STARTCHAR LATIN
ENCODING 70
SWIDTH 640 0
DWIDTH 6 0
BBX 5 7 0 0
BITMAP
F8
80
80
F0
80
80
80
ENDCHAR
STARTCHAR LATIN
ENCODING 71
SWIDTH 640 0
DWIDTH 6 0
BBX 5 7 0 0
BITMAP
70
88
80
98
88
88
70
ENDCHAR
STARTCHAR LATIN
ENCODING 72
SWIDTH 640 0
DWIDTH 6 0
BBX 5 7 0 0
BITMAP
88
88
88
F8
88
88
88
ENDCHAR
STARTCHAR LATIN
ENCODING 73
SWIDTH 640 0
DWIDTH 6 0
BBX 3 7 1 0
BITMAP
E0
40
40
40
40
40
E0
ENDCHAR
STARTCHAR LATIN
ENCODING 74
SWIDTH 640 0
DWIDTH 6 0
BBX 5 7 0 0
BITMAP
08
08
08
08
88
88
70
ENDCHAR
STARTCHAR LATIN
ENCODING 75
SWIDTH 640 0
DWIDTH 6 0
BBX 5 7 0 0
BITMAP
88
90
A0
C0
A0
90
88
ENDCHAR
STARTCHAR LATIN
ENCODING 76
SWIDTH 640 0
DWIDTH 6 0
BBX 5 7 0 0
BITMAP
80
80
80
80
80
80
F8
ENDCHAR
STARTCHAR LATIN
ENCODING 77
SWIDTH 640 0
DWIDTH 6 0
BBX 5 7 0 0
BITMAP
88
D8
A8
88
88
88
88
ENDCHAR
STARTCHAR LATIN
ENCODING 78
SWIDTH 640 0
DWIDTH 6 0
BBX 5 7 0 0
BITMAP
C8
C8
A8
A8
A8
98
98
ENDCHAR
STARTCHAR LATIN
ENCODING 79
SWIDTH 640 0
DWIDTH 6 0
BBX 5 7 0 0
BITMAP
70
88
88
88
88
88
70
ENDCHAR
STARTCHAR LATIN
ENCODING 80
SWIDTH 640 0
DWIDTH 6 0
BBX 5 7 0 0
BITMAP
F0
88
88
F0
80
80
80
ENDCHAR
STARTCHAR LATIN
ENCODING 81
SWIDTH 640 0
DWIDTH 6 0
BBX 5 8 0 -1
BITMAP
70
88
88
88
88
88
70
08
ENDCHAR
STARTCHAR LATIN
ENCODING 82
SWIDTH 640 0
DWIDTH 6 0
BBX 5 7 0 0
BITMAP
F0
88
88
F0
88
88
88
ENDCHAR
STARTCHAR LATIN
ENCODING 83
SWIDTH 640 0
DWIDTH 6 0
BBX 5 7 0 0
BITMAP
70
88
80
70
08
88
70
ENDCHAR
STARTCHAR LATIN
ENCODING 84
SWIDTH 640 0
DWIDTH 6 0
BBX 5 7 0 0
BITMAP
F8
20
20
20
20
20
20
ENDCHAR
STARTCHAR LATIN
ENCODING 85
SWIDTH 640 0
DWIDTH 6 0
BBX 5 7 0 0
BITMAP
88
88
88
88
88
88
70
ENDCHAR
STARTCHAR LATIN
ENCODING 86
SWIDTH 640 0
DWIDTH 6 0
BBX 5 7 0 0
BITMAP
88
88
88
50
50
20
20
ENDCHAR
STARTCHAR LATIN
ENCODING 87
SWIDTH 640 0
DWIDTH 6 0
BBX 5 7 0 0
BITMAP
88
88
88
A8
A8
50
50
ENDCHAR
STARTCHAR LATIN
ENCODING 88
SWIDTH 640 0
DWIDTH 6 0
BBX 5 7 0 0
BITMAP
88
88
50
20
50
88
88
ENDCHAR
STARTCHAR LATIN
ENCODING 89
SWIDTH 640 0
DWIDTH 6 0
BBX 5 7 0 0
BITMAP
88
88
88
50
20
20
20
ENDCHAR
STARTCHAR LATIN
ENCODING 90
SWIDTH 640 0
DWIDTH 6 0
BBX 5 7 0 0
BITMAP
F8
08
10
20
40
80
F8
ENDCHAR
STARTCHAR LEFT
ENCODING 91
SWIDTH 640 0
DWIDTH 6 0
BBX 3 9 1 -1
BITMAP
E0
80
80
80
80
80
80
80
E0
ENDCHAR
STARTCHAR REVERSE
ENCODING 92
SWIDTH 640 0
DWIDTH 6 0
BBX 5 10 0 -2
BITMAP
80
80
40
40
20
20
10
10
08
08
ENDCHAR
STARTCHAR RIGHT
ENCODING 93
SWIDTH 640 0
DWIDTH 6 0
BBX 3 9 1 -1
BITMAP
E0
20
20
20
20
20
20
20
E0
ENDCHAR
STARTCHAR CIRCUMFLEX
ENCODING 94
SWIDTH 640 0
DWIDTH 6 0
BBX 5 3 1 5
BITMAP
20
50
88
ENDCHAR
STARTCHAR LOW
ENCODING 95
SWIDTH 640 0
DWIDTH 6 0
BBX 6 1 0 0
BITMAP
FC
ENDCHAR
STARTCHAR GRAVE
ENCODING 96
SWIDTH 640 0
DWIDTH 6 0
BBX 3 3 1 5
BITMAP
80
40
20
ENDCHAR
STARTCHAR LATIN
ENCODING 97
SWIDTH 640 0
DWIDTH 6 0
BBX 5 5 0 0
BITMAP
78
88
88
98
68
ENDCHAR
STARTCHAR LATIN
ENCODING 98
SWIDTH 640 0
DWIDTH 6 0
BBX 5 7 0 0
BITMAP
80
80
F0
88
88
88
F0
ENDCHAR
STARTCHAR LATIN
ENCODING 99
SWIDTH 640 0
DWIDTH 6 0
BBX 5 5 0 0
BITMAP
70
88
80
80
78
ENDCHAR
STARTCHAR LATIN
ENCODING 100
SWIDTH 640 0
DWIDTH 6 0
BBX 5 7 0 0
BITMAP
08
08
78
88
88
88
78
ENDCHAR
STARTCHAR LATIN
ENCODING 101
SWIDTH 640 0
DWIDTH 6 0
BBX 5 5 0 0
BITMAP
70
88
F8
80
78
ENDCHAR
STARTCHAR LATIN
ENCODING 102
SWIDTH 640 0
DWIDTH 6 0
BBX 4 7 0 0
BITMAP
30
40
40
E0
40
40
40
ENDCHAR
STARTCHAR LATIN
ENCODING 103
SWIDTH 640 0
DWIDTH 6 0
BBX 5 7 0 -2
BITMAP
78
88
88
88
78
08
70
ENDCHAR
STARTCHAR LATIN
ENCODING 104
SWIDTH 640 0
DWIDTH 6 0
BBX 5 7 0 0
BITMAP
80
80
F0
88
88
88
88
ENDCHAR
STARTCHAR LATIN
ENCODING 105
SWIDTH 640 0
DWIDTH 6 0
BBX 3 7 1 0
BITMAP
40
00
C0
40
40
40
60
ENDCHAR
STARTCHAR LATIN
ENCODING 106
SWIDTH 640 0
DWIDTH 6 0
BBX 3 9 0 -2
BITMAP
20
00
60
20
20
20
20
20
C0
ENDCHAR
STARTCHAR LATIN
ENCODING 107
SWIDTH 640 0
DWIDTH 6 0
BBX 5 7 0 0
BITMAP
80
80
90
A0
E0
90
88
ENDCHAR
STARTCHAR LATIN
ENCODING 108
SWIDTH 640 0
DWIDTH 6 0
BBX 3 7 1 0
BITMAP
C0
40
40
40
40
40
60
ENDCHAR
STARTCHAR LATIN
ENCODING 109
SWIDTH 640 0
DWIDTH 6 0
BBX 5 5 0 0
BITMAP
F0
A8
A8
A8
A8
ENDCHAR
STARTCHAR LATIN
ENCODING 110
SWIDTH 640 0
DWIDTH 6 0
BBX 5 5 0 0
BITMAP
B0
C8
88
88
88
ENDCHAR
STARTCHAR LATIN
ENCODING 111
SWIDTH 640 0
DWIDTH 6 0
BBX 5 5 0 0
BITMAP
70
88
88
88
70
ENDCHAR
STARTCHAR LATIN
ENCODING 112
SWIDTH 640 0
DWIDTH 6 0
BBX 5 7 0 -2
BITMAP
F0
88
88
88
F0
80
80
ENDCHAR
STARTCHAR LATIN
ENCODING 113
SWIDTH 640 0
DWIDTH 6 0
BBX 5 7 0 -2
BITMAP
78
88
88
88
78
08
08
ENDCHAR
STARTCHAR LATIN
ENCODING 114
SWIDTH 640 0
DWIDTH 6 0
BBX 5 5 0 0
BITMAP
B0
C8
80
80
80
ENDCHAR
STARTCHAR LATIN
ENCODING 115
SWIDTH 640 0
DWIDTH 6 0
BBX 5 5 0 0
BITMAP
78
80
70
08
F0
ENDCHAR
STARTCHAR LATIN
ENCODING 116
SWIDTH 640 0
DWIDTH 6 0
BBX 4 7 1 0
BITMAP
40
40
F0
40
40
40
30
ENDCHAR
STARTCHAR LATIN
ENCODING 117
SWIDTH 640 0
DWIDTH 6 0
BBX 5 5 0 0
BITMAP
88
88
88
98
68
ENDCHAR
STARTCHAR LATIN
ENCODING 118
SWIDTH 640 0
DWIDTH 6 0
BBX 5 5 0 0
BITMAP
88
88
50
50
20
ENDCHAR
STARTCHAR LATIN
ENCODING 119
SWIDTH 640 0
DWIDTH 6 0
BBX 5 5 0 0
BITMAP
88
A8
A8
A8
50
ENDCHAR
STARTCHAR LATIN
ENCODING 120
SWIDTH 640 0
DWIDTH 6 0
BBX 5 5 0 0
BITMAP
88
50
20
50
88
ENDCHAR
STARTCHAR LATIN
ENCODING 121
SWIDTH 640 0
DWIDTH 6 0
BBX 5 7 0 -2
BITMAP
88
88
88
88
78
08
70
ENDCHAR
STARTCHAR LATIN
ENCODING 122
SWIDTH 640 0
DWIDTH 6 0
BBX 5 5 0 0
BITMAP
F8
10
20
40
F8
ENDCHAR
STARTCHAR LEFT
ENCODING 123
SWIDTH 640 0
DWIDTH 6 0
BBX 5 9 0 -1
BITMAP
18
20
20
20
C0
20
20
20
18
ENDCHAR
STARTCHAR VERTICAL
ENCODING 124
SWIDTH 640 0
DWIDTH 6 0
BBX 1 10 2 -2
BITMAP
80
80
80
80
80
80
80
80
80
80
ENDCHAR
STARTCHAR RIGHT
ENCODING 125
SWIDTH 640 0
DWIDTH 6 0
BBX 5 9 0 -1
BITMAP
C0
20
20
20
18
20
20
20
C0
ENDCHAR
STARTCHAR TILDE
ENCODING 126
SWIDTH 640 0
DWIDTH 6 0
BBX 5 2 0 3
BITMAP
68
B0
ENDCHAR
STARTCHAR NO-BREAK
ENCODING 160
SWIDTH 640 0
DWIDTH 6 0
BBX 0 0 0 0
BITMAP
ENDCHAR
STARTCHAR INVERTED
ENCODING 161
SWIDTH 640 0
DWIDTH 6 0
BBX 1 7 3 0
BITMAP
80
00
80
80
80
80
80
ENDCHAR
STARTCHAR CENT
ENCODING 162
SWIDTH 640 0
DWIDTH 6 0
BBX 5 7 0 -1
BITMAP
20
70
A8
A0
A8
70
20
ENDCHAR
STARTCHAR POUND
ENCODING 163
SWIDTH 640 0
DWIDTH 6 0
BBX 5 8 0 0
BITMAP
30
40
40
E0
40
40
48
B0
ENDCHAR
STARTCHAR CURRENCY
ENCODING 164
SWIDTH 640 0
DWIDTH 6 0
BBX 5 5 0 1
BITMAP
88
70
50
70
88
ENDCHAR
STARTCHAR YEN
ENCODING 165
SWIDTH 640 0
DWIDTH 6 0
BBX 5 8 0 -1
BITMAP
88
88
50
F8
20
F8
20
20
ENDCHAR
STARTCHAR BROKEN
ENCODING 166
SWIDTH 640 0
DWIDTH 6 0
BBX 1 10 2 -2
BITMAP
80
80
80
80
00
00
80
80
80
80
ENDCHAR
STARTCHAR SECTION
ENCODING 167
SWIDTH 640 0
DWIDTH 6 0
BBX 5 10 0 -1
BITMAP
70
88
48
A0
90
48
28
90
88
70
ENDCHAR
STARTCHAR DIAERESIS
ENCODING 168
SWIDTH 640 0
DWIDTH 6 0
BBX 3 1 1 6
BITMAP
A0
ENDCHAR
STARTCHAR COPYRIGHT
ENCODING 169
SWIDTH 640 0
DWIDTH 6 0
BBX 5 8 0 -1
BITMAP
F0
08
68
88
88
68
08
F0
ENDCHAR
STARTCHAR FEMININE
ENCODING 170
SWIDTH 640 0
DWIDTH 6 0
BBX 4 6 1 1
BITMAP
70
90
B0
50
00
F0
ENDCHAR
STARTCHAR LEFT-POINTING
ENCODING 171
SWIDTH 640 0
DWIDTH 6 0
BBX 5 4 0 1
BITMAP
48
90
90
48
ENDCHAR
STARTCHAR NOT
ENCODING 172
SWIDTH 640 0
DWIDTH 6 0
BBX 5 3 0 1
BITMAP
F8
08
08
ENDCHAR
STARTCHAR SOFT
ENCODING 173
SWIDTH 640 0
DWIDTH 6 0
BBX 3 1 1 2
BITMAP
E0
ENDCHAR
STARTCHAR REGISTERED
ENCODING 174
SWIDTH 640 0
DWIDTH 6 0
BBX 5 8 0 -1
BITMAP
F0
08
C8
A8
C8
A8
08
F0
ENDCHAR
STARTCHAR MACRON
ENCODING 175
SWIDTH 640 0
DWIDTH 6 0
BBX 4 1 1 7
BITMAP
F0
ENDCHAR
STARTCHAR DEGREE
ENCODING 176
SWIDTH 640 0
DWIDTH 6 0
BBX 4 4 1 4
BITMAP
60
90
90
60
ENDCHAR
STARTCHAR PLUS-MINUS
ENCODING 177
SWIDTH 640 0
DWIDTH 6 0
BBX 5 7 0 0
BITMAP
20
20
F8
20
20
00
F8
ENDCHAR
STARTCHAR SUPERSCRIPT
ENCODING 178
SWIDTH 640 0
DWIDTH 6 0
BBX 3 5 1 3
BITMAP
C0
20
40
80
E0
ENDCHAR
STARTCHAR SUPERSCRIPT
ENCODING 179
SWIDTH 640 0
DWIDTH 6 0
BBX 3 5 1 3
BITMAP
C0
20
40
20
C0
ENDCHAR
STARTCHAR ACUTE
ENCODING 180
SWIDTH 640 0
DWIDTH 6 0
BBX 3 3 2 5
BITMAP
20
40
80
ENDCHAR
STARTCHAR MICRO
ENCODING 181
SWIDTH 640 0
DWIDTH 6 0
BBX 5 7 0 -2
BITMAP
90
90
90
90
E8
80
80
ENDCHAR
STARTCHAR PILCROW
ENCODING 182
SWIDTH 640 0
DWIDTH 6 0
BBX 6 8 0 0
BITMAP
7C
E8
E8
E8
78
28
28
2C
ENDCHAR
STARTCHAR MIDDLE
ENCODING 183
SWIDTH 640 0
DWIDTH 6 0
BBX 2 2 2 2
BITMAP
C0
C0
ENDCHAR
STARTCHAR CEDILLA
ENCODING 184
SWIDTH 640 0
DWIDTH 6 0
BBX 2 3 2 -3
BITMAP
80
40
80
ENDCHAR
STARTCHAR SUPERSCRIPT
ENCODING 185
SWIDTH 640 0
DWIDTH 6 0
BBX 3 5 1 3
BITMAP
C0
40
40
40
E0
ENDCHAR
STARTCHAR MASCULINE
ENCODING 186
SWIDTH 640 0
DWIDTH 6 0
BBX 4 6 1 1
BITMAP
60
90
90
60
00
F0
ENDCHAR
STARTCHAR RIGHT-POINTING
ENCODING 187
SWIDTH 640 0
DWIDTH 6 0
BBX 5 4 0 1
BITMAP
90
48
48
90
ENDCHAR
STARTCHAR VULGAR
ENCODING 188
SWIDTH 640 0
DWIDTH 6 0
BBX 5 7 0 0
BITMAP
C0
48
50
28
58
B8
08
ENDCHAR
STARTCHAR VULGAR
ENCODING 189
SWIDTH 640 0
DWIDTH 6 0
BBX 5 7 0 0
BITMAP
C0
48
50
30
48
90
38
ENDCHAR
STARTCHAR VULGAR
ENCODING 190
SWIDTH 640 0
DWIDTH 6 0
BBX 5 8 0 0
BITMAP
80
40
C8
50
A8
58
B8
08
ENDCHAR
STARTCHAR INVERTED
ENCODING 191
SWIDTH 640 0
DWIDTH 6 0
BBX 5 7 0 0
BITMAP
20
00
20
40
80
88
70
ENDCHAR
STARTCHAR LATIN
ENCODING 192
SWIDTH 640 0
DWIDTH 6 0
BBX 5 9 0 0
BITMAP
40
20
70
88
88
F8
88
88
88
ENDCHAR
STARTCHAR LATIN
ENCODING 193
SWIDTH 640 0
DWIDTH 6 0
BBX 5 9 0 0
BITMAP
10
20
70
88
88
F8
88
88
88
ENDCHAR
STARTCHAR LATIN
ENCODING 194
SWIDTH 640 0
DWIDTH 6 0
BBX 5 9 0 0
BITMAP
20
50
70
88
88
F8
88
88
88
ENDCHAR
STARTCHAR LATIN
ENCODING 195
SWIDTH 640 0
DWIDTH 6 0
BBX 5 9 0 0
BITMAP
68
B0
70
88
88
F8
88
88
88
ENDCHAR
STARTCHAR LATIN
ENCODING 196
SWIDTH 640 0
DWIDTH 6 0
BBX 5 9 0 0
BITMAP
50
00
70
88
88
F8
88
88
88
ENDCHAR
STARTCHAR LATIN
ENCODING 197
SWIDTH 640 0
DWIDTH 6 0
BBX 5 9 0 0
BITMAP
20
50
20
70
88
88
F8
88
88
ENDCHAR
STARTCHAR LATIN
ENCODING 198
SWIDTH 640 0
DWIDTH 6 0
BBX 5 7 0 0
BITMAP
78
A0
A0
F0
A0
A0
B8
ENDCHAR
STARTCHAR LATIN
ENCODING 199
SWIDTH 640 0
DWIDTH 6 0
BBX 5 9 0 -2
BITMAP
70
88
80
80
80
88
70
20
40
ENDCHAR
STARTCHAR LATIN
ENCODING 200
SWIDTH 640 0
DWIDTH 6 0
BBX 5 9 0 0
BITMAP
40
20
F8
80
80
F0
80
80
F8
ENDCHAR
STARTCHAR LATIN
ENCODING 201
SWIDTH 640 0
DWIDTH 6 0
BBX 5 9 0 0
BITMAP
10
20
F8
80
80
F0
80
80
F8
ENDCHAR
STARTCHAR LATIN
ENCODING 202
SWIDTH 640 0
DWIDTH 6 0
BBX 5 9 1 0
BITMAP
20
50
F8
80
80
F0
80
80
F8
ENDCHAR
STARTCHAR LATIN
ENCODING 203
SWIDTH 640 0
DWIDTH 6 0
BBX 5 9 0 0
BITMAP
50
00
F8
80
80
F0
80
80
F8
ENDCHAR
STARTCHAR LATIN
ENCODING 204
SWIDTH 640 0
DWIDTH 6 0
BBX 3 9 1 0
BITMAP
40
20
E0
40
40
40
40
40
E0
ENDCHAR
STARTCHAR LATIN
ENCODING 205
SWIDTH 640 0
DWIDTH 6 0
BBX 3 9 1 0
BITMAP
40
80
E0
40
40
40
40
40
E0
ENDCHAR
STARTCHAR LATIN
ENCODING 206
SWIDTH 640 0
DWIDTH 6 0
BBX 3 9 1 0
BITMAP
40
A0
E0
40
40
40
40
40
E0
ENDCHAR
STARTCHAR LATIN
ENCODING 207
SWIDTH 640 0
DWIDTH 6 0
BBX 3 9 1 0
BITMAP
A0
00
E0
40
40
40
40
40
E0
ENDCHAR
STARTCHAR LATIN
ENCODING 208
SWIDTH 640 0
DWIDTH 6 0
BBX 6 7 -1 0
BITMAP
78
44
44
F4
44
44
78
ENDCHAR
STARTCHAR LATIN
ENCODING 209
SWIDTH 640 0
DWIDTH 6 0
BBX 5 9 0 0
BITMAP
68
B0
88
C8
A8
98
88
88
88
ENDCHAR
STARTCHAR LATIN
ENCODING 210
SWIDTH 640 0
DWIDTH 6 0
BBX 5 9 0 0
BITMAP
40
20
70
88
88
88
88
88
70
ENDCHAR
STARTCHAR LATIN
ENCODING 211
SWIDTH 640 0
DWIDTH 6 0
BBX 5 9 0 0
BITMAP
10
20
70
88
88
88
88
88
70
ENDCHAR
STARTCHAR LATIN
ENCODING 212
SWIDTH 640 0
DWIDTH 6 0
BBX 5 9 0 0
BITMAP
20
50
70
88
88
88
88
88
70
ENDCHAR
STARTCHAR LATIN
ENCODING 213
SWIDTH 640 0
DWIDTH 6 0
BBX 5 9 0 0
BITMAP
68
B0
70
88
88
88
88
88
70
ENDCHAR
STARTCHAR LATIN
ENCODING 214
SWIDTH 640 0
DWIDTH 6 0
BBX 5 9 0 0
BITMAP
50
00
70
88
88
88
88
88
70
ENDCHAR
STARTCHAR MULTIPLICATION
ENCODING 215
SWIDTH 640 0
DWIDTH 6 0
BBX 5 5 0 1
BITMAP
88
50
20
50
88
ENDCHAR
STARTCHAR LATIN
ENCODING 216
SWIDTH 640 0
DWIDTH 6 0
BBX 5 9 0 -1
BITMAP
08
70
98
A8
A8
A8
C8
70
80
ENDCHAR
STARTCHAR LATIN
ENCODING 217
SWIDTH 640 0
DWIDTH 6 0
BBX 5 9 0 0
BITMAP
40
20
88
88
88
88
88
88
70
ENDCHAR
STARTCHAR LATIN
ENCODING 218
SWIDTH 640 0
DWIDTH 6 0
BBX 5 9 0 0
BITMAP
10
20
88
88
88
88
88
88
70
ENDCHAR
STARTCHAR LATIN
ENCODING 219
SWIDTH 640 0
DWIDTH 6 0
BBX 5 9 0 0
BITMAP
20
50
00
88
88
88
88
88
70
ENDCHAR
STARTCHAR LATIN
ENCODING 220
SWIDTH 640 0
DWIDTH 6 0
BBX 5 9 0 0
BITMAP
50
00
88
88
88
88
88
88
70
ENDCHAR
STARTCHAR LATIN
ENCODING 221
SWIDTH 640 0
DWIDTH 6 0
BBX 5 9 0 0
BITMAP
10
20
88
88
88
50
20
20
20
ENDCHAR
STARTCHAR LATIN
ENCODING 222
SWIDTH 640 0
DWIDTH 6 0
BBX 6 9 -1 -2
BITMAP
E0
40
78
44
44
44
78
40
E0
ENDCHAR
STARTCHAR LATIN
ENCODING 223
SWIDTH 640 0
DWIDTH 6 0
BBX 5 9 0 -1
BITMAP
30
48
88
90
90
88
88
B0
80
ENDCHAR
STARTCHAR LATIN
ENCODING 224
SWIDTH 640 0
DWIDTH 6 0
BBX 5 8 0 0
BITMAP
20
10
00
78
88
88
98
68
ENDCHAR
STARTCHAR LATIN
ENCODING 225
SWIDTH 640 0
DWIDTH 6 0
BBX 5 8 0 0
BITMAP
10
20
00
78
88
88
98
68
ENDCHAR
STARTCHAR LATIN
ENCODING 226
SWIDTH 640 0
DWIDTH 6 0
BBX 5 8 0 0
BITMAP
20
50
00
78
88
88
98
68
ENDCHAR
STARTCHAR LATIN
ENCODING 227
SWIDTH 640 0
DWIDTH 6 0
BBX 5 8 0 0
BITMAP
68
B0
00
78
88
88
98
68
ENDCHAR
STARTCHAR LATIN
ENCODING 228
SWIDTH 640 0
DWIDTH 6 0
BBX 5 7 0 0
BITMAP
50
00
78
88
88
98
68
ENDCHAR
STARTCHAR LATIN
ENCODING 229
SWIDTH 640 0
DWIDTH 6 0
BBX 5 9 0 0
BITMAP
20
50
20
00
78
88
88
98
68
ENDCHAR
STARTCHAR LATIN
ENCODING 230
SWIDTH 640 0
DWIDTH 6 0
BBX 5 5 0 0
BITMAP
70
A8
B8
A0
78
ENDCHAR
STARTCHAR LATIN
ENCODING 231
SWIDTH 640 0
DWIDTH 6 0
BBX 5 7 0 -2
BITMAP
70
88
80
80
78
20
40
ENDCHAR
STARTCHAR LATIN
ENCODING 232
SWIDTH 640 0
DWIDTH 6 0
BBX 5 8 0 0
BITMAP
40
20
00
70
88
F8
80
78
ENDCHAR
STARTCHAR LATIN
ENCODING 233
SWIDTH 640 0
DWIDTH 6 0
BBX 5 8 0 0
BITMAP
10
20
00
70
88
F8
80
78
ENDCHAR
STARTCHAR LATIN
ENCODING 234
SWIDTH 640 0
DWIDTH 6 0
BBX 5 8 0 0
BITMAP
20
50
00
70
88
F8
80
78
ENDCHAR
STARTCHAR LATIN
ENCODING 235
SWIDTH 640 0
DWIDTH 6 0
BBX 5 7 0 0
BITMAP
50
00
70
88
F8
80
78
ENDCHAR
STARTCHAR LATIN
ENCODING 236
SWIDTH 640 0
DWIDTH 6 0
BBX 3 8 1 0
BITMAP
80
40
00
C0
40
40
40
60
ENDCHAR
STARTCHAR LATIN
ENCODING 237
SWIDTH 640 0
DWIDTH 6 0
BBX 3 8 1 0
BITMAP
20
40
00
C0
40
40
40
60
ENDCHAR
STARTCHAR LATIN
ENCODING 238
SWIDTH 640 0
DWIDTH 6 0
BBX 3 8 1 0
BITMAP
40
A0
00
C0
40
40
40
60
ENDCHAR
STARTCHAR LATIN
ENCODING 239
SWIDTH 640 0
DWIDTH 6 0
BBX 3 7 1 0
BITMAP
A0
00
C0
40
40
40
60
ENDCHAR
STARTCHAR LATIN
ENCODING 240
SWIDTH 640 0
DWIDTH 6 0
BBX 5 9 0 0
BITMAP
50
20
50
10
78
88
88
88
70
ENDCHAR
STARTCHAR LATIN
ENCODING 241
SWIDTH 640 0
DWIDTH 6 0
BBX 5 8 0 0
BITMAP
68
B0
00
B0
C8
88
88
88
ENDCHAR
STARTCHAR LATIN
ENCODING 242
SWIDTH 640 0
DWIDTH 6 0
BBX 5 8 0 0
BITMAP
40
20
00
70
88
88
88
70
ENDCHAR
STARTCHAR LATIN
ENCODING 243
SWIDTH 640 0
DWIDTH 6 0
BBX 5 8 0 0
BITMAP
10
20
00
70
88
88
88
70
ENDCHAR
STARTCHAR LATIN
ENCODING 244
SWIDTH 640 0
DWIDTH 6 0
BBX 5 8 0 0
BITMAP
20
50
00
70
88
88
88
70
ENDCHAR
STARTCHAR LATIN
ENCODING 245
SWIDTH 640 0
DWIDTH 6 0
BBX 5 8 0 0
BITMAP
68
B0
00
70
88
88
88
70
ENDCHAR
STARTCHAR LATIN
ENCODING 246
SWIDTH 640 0
DWIDTH 6 0
BBX 5 7 0 0
BITMAP
50
00
70
88
88
88
70
ENDCHAR
STARTCHAR DIVISION
ENCODING 247
SWIDTH 640 0
DWIDTH 6 0
BBX 5 5 0 1
BITMAP
20
00
F8
00
20
ENDCHAR
STARTCHAR LATIN
ENCODING 248
SWIDTH 640 0
DWIDTH 6 0
BBX 5 5 0 0
BITMAP
78
98
A8
C8
F0
ENDCHAR
STARTCHAR LATIN
ENCODING 249
SWIDTH 640 0
DWIDTH 6 0
BBX 5 8 0 0
BITMAP
40
20
00
88
88
88
98
68
ENDCHAR
STARTCHAR LATIN
ENCODING 250
SWIDTH 640 0
DWIDTH 6 0
BBX 5 8 0 0
BITMAP
10
20
00
88
88
88
98
68
ENDCHAR
STARTCHAR LATIN
ENCODING 251
SWIDTH 640 0
DWIDTH 6 0
BBX 5 8 0 0
BITMAP
20
50
00
88
88
88
98
68
ENDCHAR
STARTCHAR LATIN
ENCODING 252
SWIDTH 640 0
DWIDTH 6 0
BBX 5 7 0 0
BITMAP
50
00
88
88
88
98
68
ENDCHAR
STARTCHAR LATIN
ENCODING 253
SWIDTH 640 0
DWIDTH 6 0
BBX 5 10 0 -2
BITMAP
10
20
00
88
88
88
88
78
08
70
ENDCHAR
STARTCHAR LATIN
ENCODING 254
SWIDTH 640 0
DWIDTH 6 0
BBX 5 9 0 -2
BITMAP
80
80
F0
88
88
88
F0
80
80
ENDCHAR
STARTCHAR LATIN
ENCODING 255
SWIDTH 640 0
DWIDTH 6 0
BBX 5 9 0 -2
BITMAP
50
00
88
88
88
88
78
08
70
ENDCHAR
STARTCHAR LATIN
ENCODING 256
SWIDTH 640 0
DWIDTH 6 0
BBX 5 9 0 0
BITMAP
F8
00
70
88
88
F8
88
88
88
ENDCHAR
STARTCHAR LATIN
ENCODING 257
SWIDTH 640 0
DWIDTH 6 0
BBX 5 7 0 0
BITMAP
F8
00
78
88
88
98
68
ENDCHAR
STARTCHAR LATIN
ENCODING 258
SWIDTH 640 0
DWIDTH 6 0
BBX 5 9 0 0
BITMAP
88
70
00
70
88
88
F8
88
88
ENDCHAR
STARTCHAR LATIN
ENCODING 259
SWIDTH 640 0
DWIDTH 6 0
BBX 5 8 0 0
BITMAP
88
70
00
78
88
88
98
68
ENDCHAR
STARTCHAR LATIN
ENCODING 260
SWIDTH 640 0
DWIDTH 6 0
BBX 6 8 0 -1
BITMAP
70
88
88
F8
88
88
88
04
ENDCHAR
STARTCHAR LATIN
ENCODING 261
SWIDTH 640 0
DWIDTH 6 0
BBX 6 6 0 -1
BITMAP
78
88
88
98
68
04
ENDCHAR
STARTCHAR LATIN
ENCODING 262
SWIDTH 640 0
DWIDTH 6 0
BBX 5 9 0 0
BITMAP
10
20
70
88
80
80
80
88
70
ENDCHAR
STARTCHAR LATIN
ENCODING 263
SWIDTH 640 0
DWIDTH 6 0
BBX 5 8 0 0
BITMAP
10
20
00
70
88
80
80
78
ENDCHAR
STARTCHAR LATIN
ENCODING 264
SWIDTH 640 0
DWIDTH 6 0
BBX 5 9 0 0
BITMAP
20
50
70
88
80
80
80
88
70
ENDCHAR
STARTCHAR LATIN
ENCODING 265
SWIDTH 640 0
DWIDTH 6 0
BBX 5 8 0 0
BITMAP
20
50
00
70
88
80
80
78
ENDCHAR
STARTCHAR LATIN
ENCODING 266
SWIDTH 640 0
DWIDTH 6 0
BBX 5 9 0 0
BITMAP
20
00
70
88
80
80
80
88
70
ENDCHAR
STARTCHAR LATIN
ENCODING 267
SWIDTH 640 0
DWIDTH 6 0
BBX 5 7 0 0
BITMAP
20
00
70
88
80
80
78
ENDCHAR
STARTCHAR LATIN
ENCODING 268
SWIDTH 640 0
DWIDTH 6 0
BBX 5 9 0 0
BITMAP
50
20
70
88
80
80
80
88
70
ENDCHAR
STARTCHAR LATIN
ENCODING 269
SWIDTH 640 0
DWIDTH 6 0
BBX 5 8 0 0
BITMAP
50
20
00
70
88
80
80
78
ENDCHAR
STARTCHAR LATIN
ENCODING 270
SWIDTH 640 0
DWIDTH 6 0
BBX 5 9 0 0
BITMAP
50
20
F0
88
88
88
88
88
F0
ENDCHAR
STARTCHAR LATIN
ENCODING 271
SWIDTH 640 0
DWIDTH 6 0
BBX 6 8 0 0
BITMAP
04
14
18
70
90
90
90
70
ENDCHAR
STARTCHAR LATIN
ENCODING 272
SWIDTH 640 0
DWIDTH 6 0
BBX 6 7 -1 0
BITMAP
78
44
44
F4
44
44
78
ENDCHAR
STARTCHAR LATIN
ENCODING 273
SWIDTH 640 0
DWIDTH 6 0
BBX 6 7 0 0
BITMAP
1C
08
78
88
88
88
78
ENDCHAR
STARTCHAR LATIN
ENCODING 274
SWIDTH 640 0
DWIDTH 6 0
BBX 5 9 0 0
BITMAP
70
00
F8
80
80
F0
80
80
F8
ENDCHAR
STARTCHAR LATIN
ENCODING 275
SWIDTH 640 0
DWIDTH 6 0
BBX 5 7 0 0
BITMAP
F8
00
70
88
F8
80
78
ENDCHAR
STARTCHAR LATIN
ENCODING 276
SWIDTH 640 0
DWIDTH 6 0
BBX 5 9 0 0
BITMAP
88
70
00
F8
80
F0
80
80
F8
ENDCHAR
STARTCHAR LATIN
ENCODING 277
SWIDTH 640 0
DWIDTH 6 0
BBX 5 8 0 0
BITMAP
88
70
00
70
88
F8
80
78
ENDCHAR
STARTCHAR LATIN
ENCODING 278
SWIDTH 640 0
DWIDTH 6 0
BBX 5 9 0 0
BITMAP
20
00
F8
80
80
F0
80
80
F8
ENDCHAR
STARTCHAR LATIN
ENCODING 279
SWIDTH 640 0
DWIDTH 6 0
BBX 5 7 0 0
BITMAP
20
00
70
88
F8
80
78
ENDCHAR
STARTCHAR LATIN
ENCODING 280
SWIDTH 640 0
DWIDTH 6 0
BBX 6 8 0 -1
BITMAP
F8
80
80
F0
80
80
F8
04
ENDCHAR
STARTCHAR LATIN
ENCODING 281
SWIDTH 640 0
DWIDTH 6 0
BBX 5 7 0 -2
BITMAP
70
88
F8
80
78
10
08
ENDCHAR
STARTCHAR LATIN
ENCODING 282
SWIDTH 640 0
DWIDTH 6 0
BBX 5 9 0 0
BITMAP
50
20
F8
80
80
F0
80
80
F8
ENDCHAR
STARTCHAR LATIN
ENCODING 283
SWIDTH 640 0
DWIDTH 6 0
BBX 5 8 0 0
BITMAP
50
20
00
70
88
F8
80
78
ENDCHAR
STARTCHAR LATIN
ENCODING 284
SWIDTH 640 0
DWIDTH 6 0
BBX 5 9 0 0
BITMAP
20
50
00
70
88
80
98
88
70
ENDCHAR
STARTCHAR LATIN
ENCODING 285
SWIDTH 640 0
DWIDTH 6 0
BBX 5 10 0 -2
BITMAP
20
50
00
78
88
88
88
78
08
70
ENDCHAR
STARTCHAR LATIN
ENCODING 286
SWIDTH 640 0
DWIDTH 6 0
BBX 5 9 0 0
BITMAP
88
70
00
70
88
80
98
88
70
ENDCHAR
STARTCHAR LATIN
ENCODING 287
SWIDTH 640 0
DWIDTH 6 0
BBX 5 10 0 -2
BITMAP
88
70
00
78
88
88
88
78
08
70
ENDCHAR
STARTCHAR LATIN
ENCODING 288
SWIDTH 640 0
DWIDTH 6 0
BBX 5 9 0 0
BITMAP
20
00
70
88
80
98
88
88
70
ENDCHAR
STARTCHAR LATIN
ENCODING 289
SWIDTH 640 0
DWIDTH 6 0
BBX 5 9 0 -2
BITMAP
20
00
78
88
88
88
78
08
70
ENDCHAR
STARTCHAR LATIN
ENCODING 290
SWIDTH 640 0
DWIDTH 6 0
BBX 5 9 0 -2
BITMAP
70
88
80
98
88
88
70
20
40
ENDCHAR
STARTCHAR LATIN
ENCODING 291
SWIDTH 640 0
DWIDTH 6 0
BBX 5 10 0 -2
BITMAP
10
20
00
78
88
88
88
78
08
70
ENDCHAR
STARTCHAR LATIN
ENCODING 292
SWIDTH 533 0
DWIDTH 5 0
BBX 5 9 0 0
BITMAP
20
50
00
88
88
F8
88
88
88
ENDCHAR
STARTCHAR LATIN
ENCODING 293
SWIDTH 640 0
DWIDTH 6 0
BBX 5 9 0 0
BITMAP
20
50
80
80
F0
88
88
88
88
ENDCHAR
STARTCHAR LATIN
ENCODING 294
SWIDTH 640 0
DWIDTH 6 0
BBX 7 7 -1 0
BITMAP
44
FE
44
7C
44
44
44
ENDCHAR
STARTCHAR LATIN
ENCODING 295
SWIDTH 640 0
DWIDTH 6 0
BBX 6 7 -1 0
BITMAP
F0
40
78
44
44
44
44
ENDCHAR
STARTCHAR LATIN
ENCODING 296
SWIDTH 640 0
DWIDTH 6 0
BBX 5 9 0 0
BITMAP
68
B0
00
70
20
20
20
20
70
ENDCHAR
STARTCHAR LATIN
ENCODING 297
SWIDTH 640 0
DWIDTH 6 0
BBX 5 8 0 0
BITMAP
68
B0
00
60
20
20
20
30
ENDCHAR
STARTCHAR LATIN
ENCODING 298
SWIDTH 640 0
DWIDTH 6 0
BBX 3 9 1 0
BITMAP
E0
00
E0
40
40
40
40
40
E0
ENDCHAR
STARTCHAR LATIN
ENCODING 299
SWIDTH 640 0
DWIDTH 6 0
BBX 3 7 1 0
BITMAP
E0
00
C0
40
40
40
60
ENDCHAR
STARTCHAR LATIN
ENCODING 300
SWIDTH 640 0
DWIDTH 6 0
BBX 5 9 0 0
BITMAP
88
70
00
70
20
20
20
20
70
ENDCHAR
STARTCHAR LATIN
ENCODING 301
SWIDTH 640 0
DWIDTH 6 0
BBX 5 8 0 0
BITMAP
88
70
00
60
20
20
20
30
ENDCHAR
STARTCHAR LATIN
ENCODING 302
SWIDTH 640 0
DWIDTH 6 0
BBX 3 9 1 -2
BITMAP
E0
40
40
40
40
40
E0
80
40
ENDCHAR
STARTCHAR LATIN
ENCODING 303
SWIDTH 640 0
DWIDTH 6 0
BBX 3 9 1 -2
BITMAP
40
00
C0
40
40
40
60
80
40
ENDCHAR
STARTCHAR LATIN
ENCODING 304
SWIDTH 640 0
DWIDTH 6 0
BBX 3 9 1 0
BITMAP
40
00
E0
40
40
40
40
40
E0
ENDCHAR
STARTCHAR LATIN
ENCODING 305
SWIDTH 640 0
DWIDTH 6 0
BBX 3 5 1 0
BITMAP
C0
40
40
40
60
ENDCHAR
STARTCHAR LATIN
ENCODING 306
SWIDTH 640 0
DWIDTH 6 0
BBX 6 7 0 0
BITMAP
FC
44
44
44
44
54
E8
ENDCHAR
STARTCHAR LATIN
ENCODING 307
SWIDTH 640 0
DWIDTH 6 0
BBX 6 9 0 -2
BITMAP
44
00
CC
44
44
44
E4
04
18
ENDCHAR
STARTCHAR LATIN
ENCODING 308
SWIDTH 640 0
DWIDTH 6 0
BBX 5 9 0 0
BITMAP
20
50
00
08
08
08
88
88
70
ENDCHAR
STARTCHAR LATIN
ENCODING 309
SWIDTH 640 0
DWIDTH 6 0
BBX 4 10 0 -2
BITMAP
20
50
00
60
20
20
20
20
20
C0
ENDCHAR
STARTCHAR LATIN
ENCODING 310
SWIDTH 640 0
DWIDTH 6 0
BBX 5 9 0 -2
BITMAP
88
90
A0
C0
A0
90
88
20
40
ENDCHAR
STARTCHAR LATIN
ENCODING 311
SWIDTH 640 0
DWIDTH 6 0
BBX 5 9 0 -2
BITMAP
80
80
90
A0
E0
90
88
20
40
ENDCHAR
STARTCHAR LATIN
ENCODING 312
SWIDTH 640 0
DWIDTH 6 0
BBX 4 5 0 0
BITMAP
90
A0
C0
A0
90
ENDCHAR
STARTCHAR LATIN
ENCODING 313
SWIDTH 640 0
DWIDTH 6 0
BBX 5 9 0 0
BITMAP
10
20
80
80
80
80
80
80
F8
ENDCHAR
STARTCHAR LATIN
ENCODING 314
SWIDTH 640 0
DWIDTH 6 0
BBX 4 9 1 0
BITMAP
10
20
C0
40
40
40
40
40
60
ENDCHAR
STARTCHAR LATIN
ENCODING 315
SWIDTH 640 0
DWIDTH 6 0
BBX 5 9 0 -2
BITMAP
80
80
80
80
80
80
F8
20
40
ENDCHAR
STARTCHAR LATIN
ENCODING 316
SWIDTH 640 0
DWIDTH 6 0
BBX 3 9 1 -2
BITMAP
C0
40
40
40
40
40
60
20
40
ENDCHAR
STARTCHAR LATIN
ENCODING 317
SWIDTH 640 0
DWIDTH 6 0
BBX 5 8 0 0
BITMAP
30
90
80
80
80
80
80
F8
ENDCHAR
STARTCHAR LATIN
ENCODING 318
SWIDTH 640 0
DWIDTH 6 0
BBX 4 9 1 0
BITMAP
30
10
C0
40
40
40
40
40
60
ENDCHAR
STARTCHAR LATIN
ENCODING 319
SWIDTH 640 0
DWIDTH 6 0
BBX 5 7 0 0
BITMAP
80
80
80
A0
80
80
F8
ENDCHAR
STARTCHAR LATIN
ENCODING 320
SWIDTH 640 0
DWIDTH 6 0
BBX 4 7 1 0
BITMAP
C0
40
40
50
40
40
60
ENDCHAR
STARTCHAR LATIN
ENCODING 321
SWIDTH 640 0
DWIDTH 6 0
BBX 5 7 0 0
BITMAP
80
80
A0
C0
80
80
F8
ENDCHAR
STARTCHAR LATIN
ENCODING 322
SWIDTH 640 0
DWIDTH 6 0
BBX 3 7 1 0
BITMAP
C0
40
60
40
C0
40
60
ENDCHAR
STARTCHAR LATIN
ENCODING 323
SWIDTH 640 0
DWIDTH 6 0
BBX 5 9 0 0
BITMAP
10
20
88
C8
A8
98
88
88
88
ENDCHAR
STARTCHAR LATIN
ENCODING 324
SWIDTH 640 0
DWIDTH 6 0
BBX 5 8 0 0
BITMAP
10
20
00
B0
C8
88
88
88
ENDCHAR
STARTCHAR LATIN
ENCODING 325
SWIDTH 640 0
DWIDTH 6 0
BBX 5 9 0 -2
BITMAP
88
C8
A8
98
88
88
A8
20
40
ENDCHAR
STARTCHAR LATIN
ENCODING 326
SWIDTH 640 0
DWIDTH 6 0
BBX 5 7 0 -2
BITMAP
B0
C8
88
88
A8
20
40
ENDCHAR
STARTCHAR LATIN
ENCODING 327
SWIDTH 640 0
DWIDTH 6 0
BBX 5 9 0 0
BITMAP
50
20
88
C8
A8
98
88
88
88
ENDCHAR
STARTCHAR LATIN
ENCODING 328
SWIDTH 640 0
DWIDTH 6 0
BBX 5 8 0 0
BITMAP
50
20
00
B0
C8
88
88
88
ENDCHAR
STARTCHAR LATIN
ENCODING 329
SWIDTH 640 0
DWIDTH 6 0
BBX 5 8 0 0
BITMAP
80
80
00
B0
C8
88
88
88
ENDCHAR
STARTCHAR LATIN
ENCODING 330
SWIDTH 640 0
DWIDTH 6 0
BBX 5 9 0 -2
BITMAP
88
C8
A8
98
88
88
88
08
30
ENDCHAR
STARTCHAR LATIN
ENCODING 331
SWIDTH 640 0
DWIDTH 6 0
BBX 5 7 0 -2
BITMAP
B0
C8
88
88
88
08
30
ENDCHAR
STARTCHAR LATIN
ENCODING 332
SWIDTH 640 0
DWIDTH 6 0
BBX 5 9 0 0
BITMAP
70
00
70
88
88
88
88
88
70
ENDCHAR
STARTCHAR LATIN
ENCODING 333
SWIDTH 640 0
DWIDTH 6 0
BBX 5 7 0 0
BITMAP
F8
00
70
88
88
88
70
ENDCHAR
STARTCHAR LATIN
ENCODING 334
SWIDTH 640 0
DWIDTH 6 0
BBX 5 9 0 0
BITMAP
88
70
00
70
88
88
88
88
70
ENDCHAR
STARTCHAR LATIN
ENCODING 335
SWIDTH 640 0
DWIDTH 6 0
BBX 5 8 0 0
BITMAP
88
70
00
70
88
88
88
70
ENDCHAR
STARTCHAR LATIN
ENCODING 336
SWIDTH 640 0
DWIDTH 6 0
BBX 5 9 0 0
BITMAP
28
50
70
88
88
88
88
88
70
ENDCHAR
STARTCHAR LATIN
ENCODING 337
SWIDTH 640 0
DWIDTH 6 0
BBX 5 8 0 0
BITMAP
28
50
00
70
88
88
88
70
ENDCHAR
STARTCHAR LATIN
ENCODING 338
SWIDTH 640 0
DWIDTH 6 0
BBX 5 7 0 0
BITMAP
58
A0
A0
B0
A0
A0
58
ENDCHAR
STARTCHAR LATIN
ENCODING 339
SWIDTH 640 0
DWIDTH 6 0
BBX 5 5 0 0
BITMAP
50
A8
B8
A0
58
ENDCHAR
STARTCHAR LATIN
ENCODING 340
SWIDTH 640 0
DWIDTH 6 0
BBX 5 9 0 0
BITMAP
10
20
F0
88
88
F0
88
88
88
ENDCHAR
STARTCHAR LATIN
ENCODING 341
SWIDTH 640 0
DWIDTH 6 0
BBX 5 8 0 0
BITMAP
10
20
00
B0
C8
80
80
80
ENDCHAR
STARTCHAR LATIN
ENCODING 342
SWIDTH 640 0
DWIDTH 6 0
BBX 5 9 0 -2
BITMAP
F0
88
88
F0
88
88
A8
20
40
ENDCHAR
STARTCHAR LATIN
ENCODING 343
SWIDTH 640 0
DWIDTH 6 0
BBX 5 7 0 -2
BITMAP
B0
C8
80
80
A0
20
40
ENDCHAR
STARTCHAR LATIN
ENCODING 344
SWIDTH 640 0
DWIDTH 6 0
BBX 5 9 0 0
BITMAP
50
20
F0
88
88
F0
88
88
88
ENDCHAR
STARTCHAR LATIN
ENCODING 345
SWIDTH 640 0
DWIDTH 6 0
BBX 5 8 0 0
BITMAP
50
20
00
B0
C8
80
80
80
ENDCHAR
STARTCHAR LATIN
ENCODING 346
SWIDTH 640 0
DWIDTH 6 0
BBX 5 9 0 0
BITMAP
10
20
70
88
80
70
08
88
70
ENDCHAR
STARTCHAR LATIN
ENCODING 347
SWIDTH 640 0
DWIDTH 6 0
BBX 5 8 0 0
BITMAP
10
20
00
78
80
70
08
F0
ENDCHAR
STARTCHAR LATIN
ENCODING 348
SWIDTH 640 0
DWIDTH 6 0
BBX 5 9 0 0
BITMAP
20
50
70
88
80
70
08
88
70
ENDCHAR
STARTCHAR LATIN
ENCODING 349
SWIDTH 640 0
DWIDTH 6 0
BBX 5 8 0 0
BITMAP
20
50
00
78
80
70
08
F0
ENDCHAR
STARTCHAR LATIN
ENCODING 350
SWIDTH 640 0
DWIDTH 6 0
BBX 5 9 0 -2
BITMAP
70
88
80
70
08
88
70
20
20
ENDCHAR
STARTCHAR LATIN
ENCODING 351
SWIDTH 640 0
DWIDTH 6 0
BBX 5 7 0 -2
BITMAP
78
80
70
08
F0
20
20
ENDCHAR
STARTCHAR LATIN
ENCODING 352
SWIDTH 640 0
DWIDTH 6 0
BBX 5 9 0 0
BITMAP
50
20
70
88
80
70
08
88
70
ENDCHAR
STARTCHAR LATIN
ENCODING 353
SWIDTH 640 0
DWIDTH 6 0
BBX 5 8 0 0
BITMAP
50
20
00
78
80
70
08
F0
ENDCHAR
STARTCHAR LATIN
ENCODING 354
SWIDTH 640 0
DWIDTH 6 0
BBX 5 9 0 -2
BITMAP
F8
20
20
20
20
20
20
20
40
ENDCHAR
STARTCHAR LATIN
ENCODING 355
SWIDTH 640 0
DWIDTH 6 0
BBX 4 9 1 -2
BITMAP
40
40
E0
40
40
40
30
20
20
ENDCHAR
STARTCHAR LATIN
ENCODING 356
SWIDTH 640 0
DWIDTH 6 0
BBX 5 9 0 0
BITMAP
50
20
00
F8
20
20
20
20
20
ENDCHAR
STARTCHAR LATIN
ENCODING 357
SWIDTH 640 0
DWIDTH 6 0
BBX 5 9 1 0
BITMAP
18
08
40
40
E0
40
40
40
30
ENDCHAR
STARTCHAR LATIN
ENCODING 358
SWIDTH 640 0
DWIDTH 6 0
BBX 5 7 0 0
BITMAP
F8
20
20
70
20
20
20
ENDCHAR
STARTCHAR LATIN
ENCODING 359
SWIDTH 640 0
DWIDTH 6 0
BBX 4 7 1 0
BITMAP
40
40
E0
40
E0
40
30
ENDCHAR
STARTCHAR LATIN
ENCODING 360
SWIDTH 640 0
DWIDTH 6 0
BBX 5 9 0 0
BITMAP
68
B0
00
88
88
88
88
88
70
ENDCHAR
STARTCHAR LATIN
ENCODING 361
SWIDTH 640 0
DWIDTH 6 0
BBX 5 8 0 0
BITMAP
68
B0
00
88
88
88
98
68
ENDCHAR
STARTCHAR LATIN
ENCODING 362
SWIDTH 640 0
DWIDTH 6 0
BBX 5 9 0 0
BITMAP
70
00
88
88
88
88
88
88
70
ENDCHAR
STARTCHAR LATIN
ENCODING 363
SWIDTH 640 0
DWIDTH 6 0
BBX 5 7 0 0
BITMAP
70
00
88
88
88
98
68
ENDCHAR
STARTCHAR LATIN
ENCODING 364
SWIDTH 640 0
DWIDTH 6 0
BBX 5 9 0 0
BITMAP
88
70
00
88
88
88
88
88
70
ENDCHAR
STARTCHAR LATIN
ENCODING 365
SWIDTH 640 0
DWIDTH 6 0
BBX 5 8 0 0
BITMAP
88
70
00
88
88
88
98
68
ENDCHAR
STARTCHAR LATIN
ENCODING 366
SWIDTH 640 0
DWIDTH 6 0
BBX 5 8 0 0
BITMAP
20
50
20
88
88
88
88
70
ENDCHAR
STARTCHAR LATIN
ENCODING 367
SWIDTH 640 0
DWIDTH 6 0
BBX 5 8 0 0
BITMAP
20
50
20
88
88
88
98
68
ENDCHAR
STARTCHAR LATIN
ENCODING 368
SWIDTH 640 0
DWIDTH 6 0
BBX 5 9 0 0
BITMAP
28
50
00
88
88
88
88
88
70
ENDCHAR
STARTCHAR LATIN
ENCODING 369
SWIDTH 640 0
DWIDTH 6 0
BBX 5 8 0 0
BITMAP
28
50
00
88
88
88
98
68
ENDCHAR
STARTCHAR LATIN
ENCODING 370
SWIDTH 640 0
DWIDTH 6 0
BBX 5 9 0 -2
BITMAP
88
88
88
88
88
88
70
20
10
ENDCHAR
STARTCHAR LATIN
ENCODING 371
SWIDTH 640 0
DWIDTH 6 0
BBX 5 7 0 -2
BITMAP
88
88
88
98
68
20
10
ENDCHAR
STARTCHAR LATIN
ENCODING 372
SWIDTH 640 0
DWIDTH 6 0
BBX 5 9 0 0
BITMAP
20
50
00
88
88
88
A8
D8
88
ENDCHAR
STARTCHAR LATIN
ENCODING 373
SWIDTH 640 0
DWIDTH 6 0
BBX 5 8 0 0
BITMAP
20
50
00
A8
A8
A8
A8
50
ENDCHAR
STARTCHAR LATIN
ENCODING 374
SWIDTH 640 0
DWIDTH 6 0
BBX 5 9 0 0
BITMAP
20
50
00
88
88
88
50
20
20
ENDCHAR
STARTCHAR LATIN
ENCODING 375
SWIDTH 640 0
DWIDTH 6 0
BBX 5 10 0 -2
BITMAP
20
50
00
88
88
88
88
78
08
70
ENDCHAR
STARTCHAR LATIN
ENCODING 376
SWIDTH 640 0
DWIDTH 6 0
BBX 5 9 0 0
BITMAP
50
00
88
88
88
50
20
20
20
ENDCHAR
STARTCHAR LATIN
ENCODING 377
SWIDTH 640 0
DWIDTH 6 0
BBX 5 9 0 0
BITMAP
10
20
F8
08
10
20
40
80
F8
ENDCHAR
STARTCHAR LATIN
ENCODING 378
SWIDTH 640 0
DWIDTH 6 0
BBX 5 8 0 0
BITMAP
10
20
00
F8
10
20
40
F8
ENDCHAR
STARTCHAR LATIN
ENCODING 379
SWIDTH 640 0
DWIDTH 6 0
BBX 5 9 0 0
BITMAP
20
00
F8
08
10
20
40
80
F8
ENDCHAR
STARTCHAR LATIN
ENCODING 380
SWIDTH 640 0
DWIDTH 6 0
BBX 5 7 0 0
BITMAP
20
00
F8
10
20
40
F8
ENDCHAR
STARTCHAR LATIN
ENCODING 381
SWIDTH 640 0
DWIDTH 6 0
BBX 5 9 0 0
BITMAP
50
20
F8
08
10
20
40
80
F8
ENDCHAR
STARTCHAR LATIN
ENCODING 382
SWIDTH 640 0
DWIDTH 6 0
BBX 5 8 0 0
BITMAP
50
20
00
F8
10
20
40
F8
ENDCHAR
STARTCHAR LATIN
ENCODING 383
SWIDTH 640 0
DWIDTH 6 0
BBX 4 7 1 0
BITMAP
30
40
C0
40
40
40
40
ENDCHAR
STARTCHAR LATIN
ENCODING 384
SWIDTH 640 0
DWIDTH 6 0
BBX 6 7 0 0
BITMAP
F0
40
78
44
44
44
78
ENDCHAR
STARTCHAR LATIN
ENCODING 385
SWIDTH 640 0
DWIDTH 6 0
BBX 6 7 0 0
BITMAP
F8
44
44
78
44
44
78
ENDCHAR
STARTCHAR LATIN
ENCODING 386
SWIDTH 640 0
DWIDTH 6 0
BBX 6 8 0 0
BITMAP
F8
88
80
F8
84
84
84
F8
ENDCHAR
STARTCHAR LATIN
ENCODING 387
SWIDTH 640 0
DWIDTH 6 0
BBX 5 8 0 0
BITMAP
F0
90
80
F0
88
88
88
F0
ENDCHAR
STARTCHAR LATIN
ENCODING 388
SWIDTH 640 0
DWIDTH 6 0
BBX 6 8 0 0
BITMAP
40
C0
C0
78
44
44
44
78
ENDCHAR
STARTCHAR LATIN
ENCODING 389
SWIDTH 640 0
DWIDTH 6 0
BBX 5 8 0 0
BITMAP
40
C0
C0
70
48
48
48
70
ENDCHAR
STARTCHAR LATIN
ENCODING 390
SWIDTH 640 0
DWIDTH 6 0
BBX 5 7 0 0
BITMAP
70
88
08
08
08
88
70
ENDCHAR
STARTCHAR LATIN
ENCODING 391
SWIDTH 640 0
DWIDTH 6 0
BBX 6 7 0 0
BITMAP
74
88
80
80
80
88
70
ENDCHAR
STARTCHAR LATIN
ENCODING 392
SWIDTH 640 0
DWIDTH 6 0
BBX 6 7 0 0
BITMAP
0C
10
70
88
80
80
78
ENDCHAR
STARTCHAR LATIN
ENCODING 393
SWIDTH 640 0
DWIDTH 6 0
BBX 6 7 0 0
BITMAP
78
44
44
F4
44
44
78
ENDCHAR
STARTCHAR LATIN
ENCODING 394
SWIDTH 640 0
DWIDTH 6 0
BBX 6 7 0 0
BITMAP
78
A4
24
24
24
24
38
ENDCHAR
STARTCHAR LATIN
ENCODING 395
SWIDTH 640 0
DWIDTH 6 0
BBX 6 8 0 0
BITMAP
7C
44
04
7C
84
84
84
7C
ENDCHAR
STARTCHAR LATIN
ENCODING 396
SWIDTH 640 0
DWIDTH 6 0
BBX 5 8 0 0
BITMAP
78
48
08
78
88
88
88
78
ENDCHAR
STARTCHAR LATIN
ENCODING 397
SWIDTH 640 0
DWIDTH 6 0
BBX 5 8 0 0
BITMAP
70
88
88
88
70
20
10
F8
ENDCHAR
STARTCHAR LATIN
ENCODING 398
SWIDTH 640 0
DWIDTH 6 0
BBX 6 7 0 0
BITMAP
7C
44
84
3C
04
04
7C
ENDCHAR
STARTCHAR LATIN
ENCODING 399
SWIDTH 640 0
DWIDTH 6 0
BBX 5 7 0 0
BITMAP
70
88
08
F8
88
88
70
ENDCHAR
STARTCHAR LATIN
ENCODING 400
SWIDTH 640 0
DWIDTH 6 0
BBX 5 7 0 0
BITMAP
70
88
80
70
80
88
70
ENDCHAR
STARTCHAR LATIN
ENCODING 401
SWIDTH 640 0
DWIDTH 6 0
BBX 6 9 0 -2
BITMAP
7C
40
40
78
40
40
40
40
80
ENDCHAR
STARTCHAR LATIN
ENCODING 402
SWIDTH 640 0
DWIDTH 6 0
BBX 5 10 0 -1
BITMAP
18
20
20
20
70
20
20
20
20
C0
ENDCHAR
STARTCHAR LATIN
ENCODING 403
SWIDTH 640 0
DWIDTH 6 0
BBX 6 7 0 0
BITMAP
68
94
80
98
88
88
70
ENDCHAR
STARTCHAR LATIN
ENCODING 404
SWIDTH 640 0
DWIDTH 6 0
BBX 5 9 0 -2
BITMAP
88
88
88
50
50
20
50
50
20
ENDCHAR
STARTCHAR LATIN
ENCODING 405
SWIDTH 640 0
DWIDTH 6 0
BBX 5 7 0 0
BITMAP
80
80
80
C8
A8
A8
90
ENDCHAR
STARTCHAR LATIN
ENCODING 406
SWIDTH 640 0
DWIDTH 6 0
BBX 3 7 1 0
BITMAP
80
80
80
80
80
A0
40
ENDCHAR
STARTCHAR LATIN
ENCODING 407
SWIDTH 640 0
DWIDTH 6 0
BBX 3 7 1 0
BITMAP
E0
40
40
E0
40
40
E0
ENDCHAR
STARTCHAR LATIN
ENCODING 408
SWIDTH 640 0
DWIDTH 6 0
BBX 6 7 0 0
BITMAP
88
94
A0
C0
A0
90
88
ENDCHAR
STARTCHAR LATIN
ENCODING 409
SWIDTH 640 0
DWIDTH 6 0
BBX 5 8 0 0
BITMAP
60
80
80
90
A0
E0
90
88
ENDCHAR
STARTCHAR LATIN
ENCODING 410
SWIDTH 640 0
DWIDTH 6 0
BBX 3 7 1 0
BITMAP
C0
40
40
E0
40
40
60
ENDCHAR
STARTCHAR LATIN
ENCODING 411
SWIDTH 640 0
DWIDTH 6 0
BBX 5 8 0 0
BITMAP
40
40
E0
20
50
50
88
88
ENDCHAR
STARTCHAR LATIN
ENCODING 412
SWIDTH 640 0
DWIDTH 6 0
BBX 5 5 0 0
BITMAP
A8
A8
A8
A8
78
ENDCHAR
STARTCHAR LATIN
ENCODING 413
SWIDTH 640 0
DWIDTH 6 0
BBX 6 8 0 -1
BITMAP
64
64
54
54
54
4C
4C
80
ENDCHAR
STARTCHAR LATIN
ENCODING 414
SWIDTH 640 0
DWIDTH 6 0
BBX 5 8 0 -3
BITMAP
B0
C8
88
88
88
08
08
10
ENDCHAR
STARTCHAR LATIN
ENCODING 415
SWIDTH 640 0
DWIDTH 6 0
BBX 5 5 0 1
BITMAP
70
88
F8
88
70
ENDCHAR
STARTCHAR LATIN
ENCODING 416
SWIDTH 640 0
DWIDTH 6 0
BBX 6 9 0 0
BITMAP
04
04
78
88
88
88
88
88
70
ENDCHAR
STARTCHAR LATIN
ENCODING 417
SWIDTH 640 0
DWIDTH 6 0
BBX 5 7 0 0
BITMAP
08
08
70
88
88
88
70
ENDCHAR
STARTCHAR LATIN
ENCODING 418
SWIDTH 640 0
DWIDTH 6 0
BBX 6 7 0 0
BITMAP
68
94
94
94
94
94
64
ENDCHAR
STARTCHAR LATIN
ENCODING 419
SWIDTH 640 0
DWIDTH 6 0
BBX 6 5 0 0
BITMAP
68
94
94
94
64
ENDCHAR
STARTCHAR LATIN
ENCODING 420
SWIDTH 640 0
DWIDTH 6 0
BBX 6 7 0 0
BITMAP
78
A4
24
38
20
20
20
ENDCHAR
STARTCHAR LATIN
ENCODING 421
SWIDTH 640 0
DWIDTH 6 0
BBX 6 9 0 -2
BITMAP
08
14
F0
88
88
88
F0
80
80
ENDCHAR
STARTCHAR LATIN
ENCODING 422
SWIDTH 640 0
DWIDTH 6 0
BBX 5 9 0 -1
BITMAP
80
80
F0
88
88
F0
A0
90
08
ENDCHAR
STARTCHAR LATIN
ENCODING 423
SWIDTH 640 0
DWIDTH 6 0
BBX 5 7 0 0
BITMAP
70
88
08
70
80
88
70
ENDCHAR
STARTCHAR LATIN
ENCODING 424
SWIDTH 640 0
DWIDTH 6 0
BBX 5 5 0 0
BITMAP
F0
08
70
80
78
ENDCHAR
STARTCHAR LATIN
ENCODING 425
SWIDTH 640 0
DWIDTH 6 0
BBX 5 7 0 0
BITMAP
F8
80
40
20
40
80
F8
ENDCHAR
STARTCHAR LATIN
ENCODING 426
SWIDTH 640 0
DWIDTH 6 0
BBX 5 9 0 -1
BITMAP
40
A0
60
20
20
20
20
20
18
ENDCHAR
STARTCHAR LATIN
ENCODING 427
SWIDTH 640 0
DWIDTH 6 0
BBX 5 9 0 -2
BITMAP
40
40
F0
40
40
40
30
08
30
ENDCHAR
STARTCHAR LATIN
ENCODING 428
SWIDTH 640 0
DWIDTH 6 0
BBX 5 7 0 0
BITMAP
F8
28
20
20
20
20
20
ENDCHAR
STARTCHAR LATIN
ENCODING 429
SWIDTH 640 0
DWIDTH 6 0
BBX 4 8 1 0
BITMAP
30
40
40
F0
40
40
40
30
ENDCHAR
STARTCHAR LATIN
ENCODING 430
SWIDTH 640 0
DWIDTH 6 0
BBX 5 7 0 0
BITMAP
F8
A8
20
20
20
20
20
ENDCHAR
STARTCHAR LATIN
ENCODING 431
SWIDTH 640 0
DWIDTH 6 0
BBX 6 9 0 0
BITMAP
04
04
88
88
88
88
88
88
70
ENDCHAR
STARTCHAR LATIN
ENCODING 432
SWIDTH 640 0
DWIDTH 6 0
BBX 6 7 0 0
BITMAP
04
04
88
88
88
98
68
ENDCHAR
STARTCHAR LATIN
ENCODING 433
SWIDTH 640 0
DWIDTH 6 0
BBX 5 7 0 0
BITMAP
D8
50
88
88
88
88
70
ENDCHAR
STARTCHAR LATIN
ENCODING 434
SWIDTH 640 0
DWIDTH 6 0
BBX 5 7 0 0
BITMAP
90
88
88
88
88
88
70
ENDCHAR
STARTCHAR LATIN
ENCODING 435
SWIDTH 640 0
DWIDTH 6 0
BBX 6 8 0 0
BITMAP
04
88
88
88
50
20
20
20
ENDCHAR
STARTCHAR LATIN
ENCODING 436
SWIDTH 640 0
DWIDTH 6 0
BBX 6 8 0 -2
BITMAP
04
88
88
88
88
78
08
70
ENDCHAR
STARTCHAR LATIN
ENCODING 437
SWIDTH 640 0
DWIDTH 6 0
BBX 5 7 0 0
BITMAP
F8
08
10
F8
40
80
F8
ENDCHAR
STARTCHAR LATIN
ENCODING 438
SWIDTH 640 0
DWIDTH 6 0
BBX 5 5 0 0
BITMAP
F8
10
F8
40
F8
ENDCHAR
STARTCHAR LATIN
ENCODING 439
SWIDTH 640 0
DWIDTH 6 0
BBX 5 7 0 0
BITMAP
F8
10
20
10
08
88
70
ENDCHAR
STARTCHAR LATIN
ENCODING 440
SWIDTH 640 0
DWIDTH 6 0
BBX 5 7 0 0
BITMAP
F8
40
20
40
80
88
70
ENDCHAR
STARTCHAR LATIN
ENCODING 441
SWIDTH 640 0
DWIDTH 6 0
BBX 5 7 0 -2
BITMAP
F8
40
20
40
80
88
70
ENDCHAR
STARTCHAR LATIN
ENCODING 442
SWIDTH 640 0
DWIDTH 6 0
BBX 6 8 0 -3
BITMAP
F8
10
20
10
08
70
84
78
ENDCHAR
STARTCHAR LATIN
ENCODING 443
SWIDTH 640 0
DWIDTH 6 0
BBX 5 7 0 0
BITMAP
70
88
08
F8
20
40
F8
ENDCHAR
STARTCHAR LATIN
ENCODING 444
SWIDTH 640 0
DWIDTH 6 0
BBX 5 7 0 0
BITMAP
F8
40
70
08
08
88
70
ENDCHAR
STARTCHAR LATIN
ENCODING 445
SWIDTH 640 0
DWIDTH 6 0
BBX 5 6 0 0
BITMAP
F8
40
70
08
88
70
ENDCHAR
STARTCHAR LATIN
ENCODING 446
SWIDTH 640 0
DWIDTH 6 0
BBX 5 7 0 1
BITMAP
20
70
20
10
08
88
70
ENDCHAR
STARTCHAR LATIN
ENCODING 447
SWIDTH 640 0
DWIDTH 6 0
BBX 4 7 0 0
BITMAP
A0
D0
90
A0
C0
80
80
ENDCHAR
STARTCHAR LATIN
ENCODING 448
SWIDTH 640 0
DWIDTH 6 0
BBX 3 10 0 -2
BITMAP
20
20
20
20
20
20
20
20
20
20
ENDCHAR
STARTCHAR LATIN
ENCODING 449
SWIDTH 640 0
DWIDTH 6 0
BBX 3 10 0 -2
BITMAP
A0
A0
A0
A0
A0
A0
A0
A0
A0
A0
ENDCHAR
STARTCHAR LATIN
ENCODING 450
SWIDTH 640 0
DWIDTH 6 0
BBX 5 10 0 -2
BITMAP
20
20
20
F8
20
20
F8
20
20
20
ENDCHAR
STARTCHAR LATIN
ENCODING 451
SWIDTH 640 0
DWIDTH 6 0
BBX 3 7 0 0
BITMAP
20
20
20
20
20
00
20
ENDCHAR
STARTCHAR LATIN
ENCODING 452
SWIDTH 640 0
DWIDTH 6 0
BBX 6 9 0 0
BITMAP
14
08
C0
BC
A4
A8
A8
B0
DC
ENDCHAR
STARTCHAR LATIN
ENCODING 453
SWIDTH 640 0
DWIDTH 6 0
BBX 6 8 0 0
BITMAP
14
C8
A0
BC
A4
A8
B0
DC
ENDCHAR
STARTCHAR LATIN
ENCODING 454
SWIDTH 640 0
DWIDTH 6 0
BBX 6 9 0 0
BITMAP
20
34
28
20
7C
A4
A8
B0
7C
ENDCHAR
STARTCHAR LATIN
ENCODING 455
SWIDTH 640 0
DWIDTH 6 0
BBX 5 7 0 0
BITMAP
88
88
88
88
88
A8
D0
ENDCHAR
STARTCHAR LATIN
ENCODING 456
SWIDTH 640 0
DWIDTH 6 0
BBX 5 9 0 -2
BITMAP
88
80
98
88
88
88
E8
08
30
ENDCHAR
STARTCHAR LATIN
ENCODING 457
SWIDTH 640 0
DWIDTH 6 0
BBX 5 9 0 -2
BITMAP
C8
40
58
48
48
48
68
08
30
ENDCHAR
STARTCHAR LATIN
ENCODING 458
SWIDTH 640 0
DWIDTH 6 0
BBX 5 7 0 0
BITMAP
A8
A8
E8
E8
E8
A8
B0
ENDCHAR
STARTCHAR LATIN
ENCODING 459
SWIDTH 640 0
DWIDTH 6 0
BBX 5 9 0 -2
BITMAP
A8
A0
F8
E8
E8
A8
A8
08
30
ENDCHAR
STARTCHAR LATIN
ENCODING 460
SWIDTH 640 0
DWIDTH 6 0
BBX 5 9 0 -2
BITMAP
08
00
D8
A8
A8
A8
A8
08
30
ENDCHAR
STARTCHAR LATIN
ENCODING 461
SWIDTH 640 0
DWIDTH 6 0
BBX 5 9 0 0
BITMAP
50
20
00
70
88
88
F8
88
88
ENDCHAR
STARTCHAR LATIN
ENCODING 462
SWIDTH 640 0
DWIDTH 6 0
BBX 5 8 0 0
BITMAP
50
20
00
78
88
88
98
68
ENDCHAR
STARTCHAR LATIN
ENCODING 463
SWIDTH 640 0
DWIDTH 6 0
BBX 3 9 1 0
BITMAP
A0
40
00
E0
40
40
40
40
E0
ENDCHAR
STARTCHAR LATIN
ENCODING 464
SWIDTH 640 0
DWIDTH 6 0
BBX 3 8 1 0
BITMAP
A0
40
00
C0
40
40
40
60
ENDCHAR
STARTCHAR LATIN
ENCODING 465
SWIDTH 640 0
DWIDTH 6 0
BBX 5 9 0 0
BITMAP
50
20
00
70
88
88
88
88
70
ENDCHAR
STARTCHAR LATIN
ENCODING 466
SWIDTH 640 0
DWIDTH 6 0
BBX 5 8 0 0
BITMAP
50
20
00
70
88
88
88
70
ENDCHAR
STARTCHAR LATIN
ENCODING 467
SWIDTH 640 0
DWIDTH 6 0
BBX 5 9 0 0
BITMAP
50
20
88
88
88
88
88
88
70
ENDCHAR
STARTCHAR LATIN
ENCODING 468
SWIDTH 640 0
DWIDTH 6 0
BBX 5 8 0 0
BITMAP
50
20
00
88
88
88
98
68
ENDCHAR
STARTCHAR LATIN
ENCODING 469
SWIDTH 640 0
DWIDTH 6 0
BBX 5 9 0 0
BITMAP
70
00
50
88
88
88
88
88
70
ENDCHAR
STARTCHAR LATIN
ENCODING 470
SWIDTH 640 0
DWIDTH 6 0
BBX 5 9 0 0
BITMAP
70
00
50
00
88
88
88
98
68
ENDCHAR
STARTCHAR LATIN
ENCODING 471
SWIDTH 640 0
DWIDTH 6 0
BBX 5 9 0 0
BITMAP
10
20
D8
88
88
88
88
88
70
ENDCHAR
STARTCHAR LATIN
ENCODING 472
SWIDTH 640 0
DWIDTH 6 0
BBX 5 9 0 0
BITMAP
10
20
50
00
88
88
88
98
68
ENDCHAR
STARTCHAR LATIN
ENCODING 473
SWIDTH 640 0
DWIDTH 6 0
BBX 5 9 0 0
BITMAP
50
20
D8
88
88
88
88
88
70
ENDCHAR
STARTCHAR LATIN
ENCODING 474
SWIDTH 640 0
DWIDTH 6 0
BBX 5 9 0 0
BITMAP
50
20
50
00
88
88
88
98
68
ENDCHAR
STARTCHAR LATIN
ENCODING 475
SWIDTH 640 0
DWIDTH 6 0
BBX 5 9 0 0
BITMAP
40
20
D8
88
88
88
88
88
70
ENDCHAR
STARTCHAR LATIN
ENCODING 476
SWIDTH 640 0
DWIDTH 6 0
BBX 5 9 0 0
BITMAP
40
20
50
00
88
88
88
98
68
ENDCHAR
STARTCHAR LATIN
ENCODING 477
SWIDTH 640 0
DWIDTH 6 0
BBX 5 5 0 0
BITMAP
F0
08
F8
88
70
ENDCHAR
STARTCHAR LATIN
ENCODING 478
SWIDTH 640 0
DWIDTH 6 0
BBX 5 9 0 0
BITMAP
70
00
50
00
70
88
F8
88
88
ENDCHAR
STARTCHAR LATIN
ENCODING 479
SWIDTH 640 0
DWIDTH 6 0
BBX 5 9 0 0
BITMAP
70
00
50
00
78
88
88
98
68
ENDCHAR
STARTCHAR LATIN
ENCODING 480
SWIDTH 640 0
DWIDTH 6 0
BBX 5 9 0 0
BITMAP
70
00
20
00
70
88
F8
88
88
ENDCHAR
STARTCHAR LATIN
ENCODING 481
SWIDTH 640 0
DWIDTH 6 0
BBX 5 9 0 0
BITMAP
70
00
20
00
78
88
88
98
68
ENDCHAR
STARTCHAR LATIN
ENCODING 482
SWIDTH 640 0
DWIDTH 6 0
BBX 5 9 0 0
BITMAP
70
00
78
A0
A0
F0
A0
A0
B8
ENDCHAR
STARTCHAR LATIN
ENCODING 483
SWIDTH 640 0
DWIDTH 6 0
BBX 5 7 0 0
BITMAP
70
00
70
A8
B8
A0
78
ENDCHAR
STARTCHAR LATIN
ENCODING 484
SWIDTH 640 0
DWIDTH 6 0
BBX 5 7 0 0
BITMAP
70
88
80
98
98
88
70
ENDCHAR
STARTCHAR LATIN
ENCODING 485
SWIDTH 640 0
DWIDTH 6 0
BBX 5 7 0 -2
BITMAP
78
88
88
88
78
F8
70
ENDCHAR
STARTCHAR LATIN
ENCODING 486
SWIDTH 640 0
DWIDTH 6 0
BBX 5 9 0 0
BITMAP
50
20
00
70
88
80
98
88
70
ENDCHAR
STARTCHAR LATIN
ENCODING 487
SWIDTH 640 0
DWIDTH 6 0
BBX 5 11 0 -2
BITMAP
50
20
00
00
78
88
88
88
78
08
70
ENDCHAR
STARTCHAR LATIN
ENCODING 488
SWIDTH 640 0
DWIDTH 6 0
BBX 5 7 0 0
BITMAP
88
90
A0
C0
A0
90
88
ENDCHAR
STARTCHAR LATIN
ENCODING 489
SWIDTH 640 0
DWIDTH 6 0
BBX 5 7 0 0
BITMAP
80
80
90
A0
E0
90
88
ENDCHAR
STARTCHAR LATIN
ENCODING 490
SWIDTH 640 0
DWIDTH 6 0
BBX 5 9 0 -2
BITMAP
70
88
88
88
88
88
70
40
30
ENDCHAR
STARTCHAR LATIN
ENCODING 491
SWIDTH 640 0
DWIDTH 6 0
BBX 5 7 0 -2
BITMAP
70
88
88
88
70
40
30
ENDCHAR
STARTCHAR LATIN
ENCODING 492
SWIDTH 640 0
DWIDTH 6 0
BBX 5 11 0 -2
BITMAP
50
20
00
70
88
88
88
88
70
40
30
ENDCHAR
STARTCHAR LATIN
ENCODING 493
SWIDTH 640 0
DWIDTH 6 0
BBX 5 10 0 -2
BITMAP
50
20
00
70
88
88
88
70
40
30
ENDCHAR
STARTCHAR LATIN
ENCODING 494
SWIDTH 640 0
DWIDTH 6 0
BBX 5 9 0 0
BITMAP
50
20
00
F8
10
20
10
88
70
ENDCHAR
STARTCHAR LATIN
ENCODING 495
SWIDTH 640 0
DWIDTH 6 0
BBX 5 9 0 -2
BITMAP
50
20
00
F8
10
20
10
88
70
ENDCHAR
STARTCHAR LATIN
ENCODING 496
SWIDTH 640 0
DWIDTH 6 0
BBX 4 10 0 -2
BITMAP
50
20
00
60
20
20
20
20
20
C0
ENDCHAR
STARTCHAR LATIN
ENCODING 497
SWIDTH 640 0
DWIDTH 6 0
BBX 6 7 0 0
BITMAP
DC
A4
A8
A8
A8
B0
DC
ENDCHAR
STARTCHAR LATIN
ENCODING 498
SWIDTH 640 0
DWIDTH 6 0
BBX 6 7 0 0
BITMAP
C0
A0
BC
A4
A8
B0
DC
ENDCHAR
STARTCHAR LATIN
ENCODING 499
SWIDTH 640 0
DWIDTH 6 0
BBX 6 7 0 0
BITMAP
20
20
7C
A4
A8
B0
7C
ENDCHAR
STARTCHAR LATIN
ENCODING 500
SWIDTH 640 0
DWIDTH 6 0
BBX 5 9 0 0
BITMAP
50
20
00
70
88
80
98
88
70
ENDCHAR
STARTCHAR LATIN
ENCODING 501
SWIDTH 640 0
DWIDTH 6 0
BBX 5 10 0 -2
BITMAP
50
20
00
78
88
88
88
78
08
70
ENDCHAR
STARTCHAR LATIN
ENCODING 502
SWIDTH 640 0
DWIDTH 6 0
BBX 5 7 0 0
BITMAP
A0
A0
A8
E8
A8
A8
90
ENDCHAR
STARTCHAR LATIN
ENCODING 503
SWIDTH 640 0
DWIDTH 6 0
BBX 5 7 0 0
BITMAP
B0
C8
88
90
A0
C0
80
ENDCHAR
STARTCHAR LATIN
ENCODING 504
SWIDTH 640 0
DWIDTH 6 0
BBX 5 9 0 0
BITMAP
40
20
C8
C8
A8
A8
A8
98
98
ENDCHAR
STARTCHAR LATIN
ENCODING 505
SWIDTH 640 0
DWIDTH 6 0
BBX 5 8 0 0
BITMAP
40
20
00
B0
C8
88
88
88
ENDCHAR
STARTCHAR LATIN
ENCODING 506
SWIDTH 640 0
DWIDTH 6 0
BBX 5 9 0 0
BITMAP
10
20
50
20
70
88
F8
88
88
ENDCHAR
STARTCHAR LATIN
ENCODING 507
SWIDTH 640 0
DWIDTH 6 0
BBX 5 9 0 0
BITMAP
10
20
50
20
78
88
88
98
68
ENDCHAR
STARTCHAR LATIN
ENCODING 508
SWIDTH 640 0
DWIDTH 6 0
BBX 5 9 0 0
BITMAP
10
20
78
A0
A0
F0
A0
A0
B8
ENDCHAR
STARTCHAR LATIN
ENCODING 509
SWIDTH 640 0
DWIDTH 6 0
BBX 5 8 0 0
BITMAP
10
20
00
70
A8
B8
A0
78
ENDCHAR
STARTCHAR LATIN
ENCODING 510
SWIDTH 640 0
DWIDTH 6 0
BBX 5 10 0 -1
BITMAP
10
28
70
98
A8
A8
A8
C8
70
80
ENDCHAR
STARTCHAR LATIN
ENCODING 511
SWIDTH 640 0
DWIDTH 6 0
BBX 5 8 0 0
BITMAP
10
20
00
78
98
A8
C8
F0
ENDCHAR
STARTCHAR LATIN
ENCODING 512
SWIDTH 640 0
DWIDTH 6 0
BBX 5 9 0 0
BITMAP
A0
50
00
70
88
88
F8
88
88
ENDCHAR
STARTCHAR LATIN
ENCODING 513
SWIDTH 640 0
DWIDTH 6 0
BBX 5 8 0 0
BITMAP
A0
50
00
78
88
88
98
68
ENDCHAR
STARTCHAR LATIN
ENCODING 514
SWIDTH 640 0
DWIDTH 6 0
BBX 5 9 0 0
BITMAP
70
88
70
88
88
F8
88
88
88
ENDCHAR
STARTCHAR LATIN
ENCODING 515
SWIDTH 640 0
DWIDTH 6 0
BBX 5 8 0 0
BITMAP
70
88
00
78
88
88
98
68
ENDCHAR
STARTCHAR LATIN
ENCODING 516
SWIDTH 640 0
DWIDTH 6 0
BBX 5 9 0 0
BITMAP
A0
50
F8
80
80
F0
80
80
F8
ENDCHAR
STARTCHAR LATIN
ENCODING 517
SWIDTH 640 0
DWIDTH 6 0
BBX 5 8 0 0
BITMAP
A0
50
00
70
88
F8
80
78
ENDCHAR
STARTCHAR LATIN
ENCODING 518
SWIDTH 640 0
DWIDTH 6 0
BBX 5 9 0 0
BITMAP
70
88
F8
80
80
F0
80
80
F8
ENDCHAR
STARTCHAR LATIN
ENCODING 519
SWIDTH 640 0
DWIDTH 6 0
BBX 5 8 0 0
BITMAP
70
88
00
70
88
F8
80
78
ENDCHAR
STARTCHAR LATIN
ENCODING 520
SWIDTH 640 0
DWIDTH 6 0
BBX 4 9 0 0
BITMAP
A0
50
00
70
20
20
20
20
70
ENDCHAR
STARTCHAR LATIN
ENCODING 521
SWIDTH 640 0
DWIDTH 6 0
BBX 4 8 0 0
BITMAP
A0
50
00
60
20
20
20
30
ENDCHAR
STARTCHAR LATIN
ENCODING 522
SWIDTH 640 0
DWIDTH 6 0
BBX 5 9 0 0
BITMAP
70
88
70
20
20
20
20
20
70
ENDCHAR
STARTCHAR LATIN
ENCODING 523
SWIDTH 640 0
DWIDTH 6 0
BBX 5 8 0 0
BITMAP
70
88
00
60
20
20
20
30
ENDCHAR
STARTCHAR LATIN
ENCODING 524
SWIDTH 640 0
DWIDTH 6 0
BBX 5 9 0 0
BITMAP
A0
50
00
70
88
88
88
88
70
ENDCHAR
STARTCHAR LATIN
ENCODING 525
SWIDTH 640 0
DWIDTH 6 0
BBX 5 8 0 0
BITMAP
A0
50
00
70
88
88
88
70
ENDCHAR
STARTCHAR LATIN
ENCODING 526
SWIDTH 640 0
DWIDTH 6 0
BBX 5 9 0 0
BITMAP
70
88
70
88
88
88
88
88
70
ENDCHAR
STARTCHAR LATIN
ENCODING 527
SWIDTH 640 0
DWIDTH 6 0
BBX 5 8 0 0
BITMAP
70
88
00
70
88
88
88
70
ENDCHAR
STARTCHAR LATIN
ENCODING 528
SWIDTH 640 0
DWIDTH 6 0
BBX 5 9 0 0
BITMAP
A0
50
00
F0
88
88
F0
88
88
ENDCHAR
STARTCHAR LATIN
ENCODING 529
SWIDTH 640 0
DWIDTH 6 0
BBX 5 8 0 0
BITMAP
A0
50
00
B0
C8
80
80
80
ENDCHAR
STARTCHAR LATIN
ENCODING 530
SWIDTH 640 0
DWIDTH 6 0
BBX 5 9 0 0
BITMAP
70
88
00
F0
88
88
F0
88
88
ENDCHAR
STARTCHAR LATIN
ENCODING 531
SWIDTH 640 0
DWIDTH 6 0
BBX 5 8 0 0
BITMAP
70
88
00
B0
C8
80
80
80
ENDCHAR
STARTCHAR LATIN
ENCODING 532
SWIDTH 640 0
DWIDTH 6 0
BBX 5 9 0 0
BITMAP
A0
50
00
88
88
88
88
88
70
ENDCHAR
STARTCHAR LATIN
ENCODING 533
SWIDTH 640 0
DWIDTH 6 0
BBX 5 8 0 0
BITMAP
A0
50
00
88
88
88
98
68
ENDCHAR
STARTCHAR LATIN
ENCODING 534
SWIDTH 640 0
DWIDTH 6 0
BBX 5 9 0 0
BITMAP
70
88
00
88
88
88
88
88
70
ENDCHAR
STARTCHAR LATIN
ENCODING 535
SWIDTH 640 0
DWIDTH 6 0
BBX 5 8 0 0
BITMAP
70
88
00
88
88
88
98
68
ENDCHAR
STARTCHAR LATIN
ENCODING 536
SWIDTH 640 0
DWIDTH 6 0
BBX 5 9 0 -2
BITMAP
70
88
80
70
08
88
70
20
40
ENDCHAR
STARTCHAR LATIN
ENCODING 537
SWIDTH 640 0
DWIDTH 6 0
BBX 5 7 0 -2
BITMAP
78
80
70
08
F0
20
40
ENDCHAR
STARTCHAR LATIN
ENCODING 538
SWIDTH 640 0
DWIDTH 6 0
BBX 5 9 0 -2
BITMAP
F8
20
20
20
20
20
20
20
40
ENDCHAR
STARTCHAR LATIN
ENCODING 539
SWIDTH 640 0
DWIDTH 6 0
BBX 4 9 1 -2
BITMAP
40
40
F0
40
40
40
30
40
80
ENDCHAR
STARTCHAR LATIN
ENCODING 540
SWIDTH 640 0
DWIDTH 6 0
BBX 5 8 0 -1
BITMAP
70
88
08
30
C8
08
30
C0
ENDCHAR
STARTCHAR LATIN
ENCODING 541
SWIDTH 640 0
DWIDTH 6 0
BBX 5 6 0 0
BITMAP
70
88
30
C8
10
E0
ENDCHAR
STARTCHAR LATIN
ENCODING 542
SWIDTH 640 0
DWIDTH 6 0
BBX 5 9 0 0
BITMAP
50
20
88
88
88
F8
88
88
88
ENDCHAR
STARTCHAR LATIN
ENCODING 543
SWIDTH 640 0
DWIDTH 6 0
BBX 5 9 0 0
BITMAP
50
20
80
80
F0
88
88
88
88
ENDCHAR
STARTCHAR LATIN
ENCODING 544
SWIDTH 640 0
DWIDTH 6 0
BBX 5 9 0 -2
BITMAP
80
B0
C8
88
88
88
88
08
08
ENDCHAR
STARTCHAR LATIN
ENCODING 545
SWIDTH 640 0
DWIDTH 6 0
BBX 6 8 0 -1
BITMAP
10
10
70
90
90
98
74
28
ENDCHAR
STARTCHAR LATIN
ENCODING 546
SWIDTH 640 0
DWIDTH 6 0
BBX 5 8 0 0
BITMAP
30
08
48
88
70
88
88
70
ENDCHAR
STARTCHAR LATIN
ENCODING 547
SWIDTH 640 0
DWIDTH 6 0
BBX 5 7 0 0
BITMAP
50
88
88
70
88
88
70
ENDCHAR
STARTCHAR LATIN
ENCODING 548
SWIDTH 640 0
DWIDTH 6 0
BBX 6 8 0 -1
BITMAP
F8
08
10
20
40
80
F8
04
ENDCHAR
STARTCHAR LATIN
ENCODING 549
SWIDTH 640 0
DWIDTH 6 0
BBX 6 6 0 -1
BITMAP
F8
10
20
40
F8
04
ENDCHAR
STARTCHAR LATIN
ENCODING 550
SWIDTH 640 0
DWIDTH 6 0
BBX 5 9 0 0
BITMAP
20
00
70
88
88
F8
88
88
88
ENDCHAR
STARTCHAR LATIN
ENCODING 551
SWIDTH 640 0
DWIDTH 6 0
BBX 5 7 0 0
BITMAP
20
00
78
88
88
98
68
ENDCHAR
STARTCHAR LATIN
ENCODING 552
SWIDTH 640 0
DWIDTH 6 0
BBX 5 9 0 -2
BITMAP
F8
80
80
F0
80
80
F8
20
40
ENDCHAR
STARTCHAR LATIN
ENCODING 553
SWIDTH 640 0
DWIDTH 6 0
BBX 5 7 0 -2
BITMAP
70
88
F8
80
70
20
40
ENDCHAR
STARTCHAR LATIN
ENCODING 554
SWIDTH 640 0
DWIDTH 6 0
BBX 5 9 0 0
BITMAP
70
00
50
70
88
88
88
88
70
ENDCHAR
STARTCHAR LATIN
ENCODING 555
SWIDTH 640 0
DWIDTH 6 0
BBX 5 9 0 0
BITMAP
70
00
50
00
70
88
88
88
70
ENDCHAR
STARTCHAR LATIN
ENCODING 556
SWIDTH 640 0
DWIDTH 6 0
BBX 5 9 0 0
BITMAP
70
68
B0
70
88
88
88
88
70
ENDCHAR
STARTCHAR LATIN
ENCODING 557
SWIDTH 640 0
DWIDTH 6 0
BBX 5 9 0 0
BITMAP
70
00
68
B0
70
88
88
88
70
ENDCHAR
STARTCHAR LATIN
ENCODING 558
SWIDTH 640 0
DWIDTH 6 0
BBX 5 9 0 0
BITMAP
20
00
70
88
88
88
88
88
70
ENDCHAR
STARTCHAR LATIN
ENCODING 559
SWIDTH 640 0
DWIDTH 6 0
BBX 5 7 0 0
BITMAP
20
00
70
88
88
88
70
ENDCHAR
STARTCHAR LATIN
ENCODING 560
SWIDTH 640 0
DWIDTH 6 0
BBX 5 9 0 0
BITMAP
70
00
20
70
88
88
88
88
70
ENDCHAR
STARTCHAR LATIN
ENCODING 561
SWIDTH 640 0
DWIDTH 6 0
BBX 5 9 0 0
BITMAP
70
00
20
00
70
88
88
88
70
ENDCHAR
STARTCHAR LATIN
ENCODING 562
SWIDTH 640 0
DWIDTH 6 0
BBX 5 9 0 0
BITMAP
70
00
88
88
88
50
20
20
20
ENDCHAR
STARTCHAR LATIN
ENCODING 563
SWIDTH 640 0
DWIDTH 6 0
BBX 5 9 0 -2
BITMAP
70
00
88
88
88
88
78
08
70
ENDCHAR
STARTCHAR LATIN
ENCODING 564
SWIDTH 640 0
DWIDTH 6 0
BBX 5 7 0 0
BITMAP
60
20
20
20
30
68
30
ENDCHAR
STARTCHAR LATIN
ENCODING 565
SWIDTH 640 0
DWIDTH 6 0
BBX 6 6 0 -1
BITMAP
B0
C8
88
98
B4
08
ENDCHAR
STARTCHAR LATIN
ENCODING 566
SWIDTH 640 0
DWIDTH 6 0
BBX 5 7 1 0
BITMAP
40
40
F0
40
50
68
70
ENDCHAR
STARTCHAR LATIN
ENCODING 567
SWIDTH 640 0
DWIDTH 6 0
BBX 3 7 0 -2
BITMAP
60
20
20
20
20
20
C0
ENDCHAR
STARTCHAR LATIN
ENCODING 568
SWIDTH 640 0
DWIDTH 6 0
BBX 5 7 0 0
BITMAP
20
20
70
A8
A8
A8
70
ENDCHAR
STARTCHAR LATIN
ENCODING 569
SWIDTH 640 0
DWIDTH 6 0
BBX 5 7 0 -2
BITMAP
70
A8
A8
A8
70
20
20
ENDCHAR
STARTCHAR LATIN
ENCODING 570
SWIDTH 640 0
DWIDTH 6 0
BBX 5 8 0 0
BITMAP
10
70
A8
A8
F8
C8
C8
88
ENDCHAR
STARTCHAR LATIN
ENCODING 571
SWIDTH 640 0
DWIDTH 6 0
BBX 5 10 0 -1
BITMAP
08
08
70
98
A0
A0
C0
C8
F0
80
ENDCHAR
STARTCHAR LATIN
ENCODING 572
SWIDTH 640 0
DWIDTH 6 0
BBX 5 10 0 -2
BITMAP
08
08
10
70
A8
A0
C0
78
80
80
ENDCHAR
STARTCHAR LATIN
ENCODING 573
SWIDTH 640 0
DWIDTH 6 0
BBX 6 7 0 0
BITMAP
40
40
40
F0
40
40
7C
ENDCHAR
STARTCHAR LATIN
ENCODING 574
SWIDTH 640 0
DWIDTH 6 0
BBX 5 8 0 0
BITMAP
08
F8
30
30
60
60
A0
A0
ENDCHAR
STARTCHAR LATIN
ENCODING 575
SWIDTH 640 0
DWIDTH 6 0
BBX 6 7 0 -2
BITMAP
78
80
70
08
F0
64
18
ENDCHAR
STARTCHAR LATIN
ENCODING 576
SWIDTH 640 0
DWIDTH 6 0
BBX 5 7 0 -2
BITMAP
F8
10
20
40
F8
40
30
ENDCHAR
STARTCHAR LATIN
ENCODING 577
SWIDTH 640 0
DWIDTH 6 0
BBX 5 7 0 1
BITMAP
70
88
08
10
20
20
20
ENDCHAR
STARTCHAR LATIN
ENCODING 578
SWIDTH 640 0
DWIDTH 6 0
BBX 5 6 0 1
BITMAP
70
88
08
10
20
20
ENDCHAR
STARTCHAR LATIN
ENCODING 579
SWIDTH 640 0
DWIDTH 6 0
BBX 6 7 0 0
BITMAP
78
44
44
78
F4
44
78
ENDCHAR
STARTCHAR LATIN
ENCODING 580
SWIDTH 640 0
DWIDTH 6 0
BBX 5 7 0 0
BITMAP
88
88
88
F8
88
88
70
ENDCHAR
STARTCHAR LATIN
ENCODING 581
SWIDTH 640 0
DWIDTH 6 0
BBX 5 7 0 0
BITMAP
20
20
50
50
88
88
88
ENDCHAR
STARTCHAR LATIN
ENCODING 582
SWIDTH 640 0
DWIDTH 6 0
BBX 5 10 0 -2
BITMAP
08
F8
90
90
F0
A0
C0
F8
80
80
ENDCHAR
STARTCHAR LATIN
ENCODING 583
SWIDTH 640 0
DWIDTH 6 0
BBX 5 10 0 -2
BITMAP
08
08
10
70
A8
F8
C0
70
80
80
ENDCHAR
STARTCHAR LATIN
ENCODING 584
SWIDTH 640 0
DWIDTH 6 0
BBX 6 7 0 0
BITMAP
08
08
08
1C
08
88
70
ENDCHAR
STARTCHAR LATIN
ENCODING 585
SWIDTH 640 0
DWIDTH 6 0
BBX 5 9 -1 -2
BITMAP
10
00
30
10
38
10
10
10
60
ENDCHAR
STARTCHAR LATIN
ENCODING 586
SWIDTH 640 0
DWIDTH 6 0
BBX 6 8 0 -1
BITMAP
78
88
88
88
88
78
08
04
ENDCHAR
STARTCHAR LATIN
ENCODING 587
SWIDTH 640 0
DWIDTH 6 0
BBX 6 7 0 -2
BITMAP
78
88
88
88
78
08
04
ENDCHAR
STARTCHAR LATIN
ENCODING 588
SWIDTH 640 0
DWIDTH 6 0
BBX 6 7 0 0
BITMAP
78
44
44
F8
44
44
44
ENDCHAR
STARTCHAR LATIN
ENCODING 589
SWIDTH 640 0
DWIDTH 6 0
BBX 6 5 0 0
BITMAP
58
64
E0
40
40
ENDCHAR
STARTCHAR LATIN
ENCODING 590
SWIDTH 640 0
DWIDTH 6 0
BBX 5 7 0 0
BITMAP
88
88
F8
50
20
20
20
ENDCHAR
STARTCHAR LATIN
ENCODING 591
SWIDTH 640 0
DWIDTH 6 0
BBX 5 7 0 -2
BITMAP
88
88
F8
88
78
08
70
ENDCHAR
STARTCHAR LATIN
ENCODING 592
SWIDTH 640 0
DWIDTH 6 0
BBX 5 5 0 0
BITMAP
B0
C8
88
88
F0
ENDCHAR
STARTCHAR LATIN
ENCODING 593
SWIDTH 640 0
DWIDTH 6 0
BBX 5 5 0 0
BITMAP
68
98
88
98
68
ENDCHAR
STARTCHAR LATIN
ENCODING 594
SWIDTH 640 0
DWIDTH 6 0
BBX 5 5 0 0
BITMAP
B0
C8
88
C8
B0
ENDCHAR
STARTCHAR LATIN
ENCODING 595
SWIDTH 640 0
DWIDTH 6 0
BBX 5 8 0 0
BITMAP
60
80
80
F0
88
88
88
F0
ENDCHAR
STARTCHAR LATIN
ENCODING 596
SWIDTH 640 0
DWIDTH 6 0
BBX 5 5 0 0
BITMAP
70
88
08
88
70
ENDCHAR
STARTCHAR LATIN
ENCODING 597
SWIDTH 640 0
DWIDTH 6 0
BBX 5 5 0 0
BITMAP
70
88
90
A8
70
ENDCHAR
STARTCHAR LATIN
ENCODING 598
SWIDTH 640 0
DWIDTH 6 0
BBX 6 9 0 -2
BITMAP
08
08
78
88
88
88
78
08
04
ENDCHAR
STARTCHAR LATIN
ENCODING 599
SWIDTH 640 0
DWIDTH 6 0
BBX 6 8 0 0
BITMAP
04
08
08
78
88
88
88
78
ENDCHAR
STARTCHAR LATIN
ENCODING 600
SWIDTH 640 0
DWIDTH 6 0
BBX 5 5 0 0
BITMAP
70
88
F8
08
F0
ENDCHAR
STARTCHAR LATIN
ENCODING 601
SWIDTH 640 0
DWIDTH 6 0
BBX 5 5 0 0
BITMAP
F0
08
F8
88
70
ENDCHAR
STARTCHAR LATIN
ENCODING 602
SWIDTH 640 0
DWIDTH 6 0
BBX 6 5 0 0
BITMAP
F4
08
F8
88
70
ENDCHAR
STARTCHAR LATIN
ENCODING 603
SWIDTH 640 0
DWIDTH 6 0
BBX 5 7 0 0
BITMAP
70
88
80
60
80
88
70
ENDCHAR
STARTCHAR LATIN
ENCODING 604
SWIDTH 640 0
DWIDTH 6 0
BBX 5 7 0 0
BITMAP
70
88
08
30
08
88
70
ENDCHAR
STARTCHAR LATIN
ENCODING 605
SWIDTH 640 0
DWIDTH 6 0
BBX 6 7 0 0
BITMAP
74
88
08
30
08
88
70
ENDCHAR
STARTCHAR LATIN
ENCODING 606
SWIDTH 640 0
DWIDTH 6 0
BBX 5 7 0 0
BITMAP
70
88
88
B0
88
88
70
ENDCHAR
STARTCHAR LATIN
ENCODING 607
SWIDTH 640 0
DWIDTH 6 0
BBX 4 7 0 -2
BITMAP
60
20
20
70
20
20
C0
ENDCHAR
STARTCHAR LATIN
ENCODING 608
SWIDTH 640 0
DWIDTH 6 0
BBX 6 8 0 -2
BITMAP
04
78
88
88
88
78
08
70
ENDCHAR
STARTCHAR LATIN
ENCODING 609
SWIDTH 640 0
DWIDTH 6 0
BBX 5 7 0 -2
BITMAP
78
88
88
88
78
08
70
ENDCHAR
STARTCHAR LATIN
ENCODING 610
SWIDTH 640 0
DWIDTH 6 0
BBX 5 5 0 0
BITMAP
78
80
98
88
78
ENDCHAR
STARTCHAR LATIN
ENCODING 611
SWIDTH 640 0
DWIDTH 6 0
BBX 5 7 0 -2
BITMAP
88
88
50
50
20
50
20
ENDCHAR
STARTCHAR LATIN
ENCODING 612
SWIDTH 640 0
DWIDTH 6 0
BBX 5 6 0 -1
BITMAP
88
50
50
20
50
20
ENDCHAR
STARTCHAR LATIN
ENCODING 613
SWIDTH 640 0
DWIDTH 6 0
BBX 5 7 0 0
BITMAP
88
88
88
88
78
08
08
ENDCHAR
STARTCHAR LATIN
ENCODING 614
SWIDTH 640 0
DWIDTH 6 0
BBX 5 8 0 0
BITMAP
60
80
80
F0
88
88
88
88
ENDCHAR
STARTCHAR LATIN
ENCODING 615
SWIDTH 640 0
DWIDTH 6 0
BBX 5 10 0 -2
BITMAP
60
80
80
F0
88
88
88
88
08
10
ENDCHAR
STARTCHAR LATIN
ENCODING 616
SWIDTH 640 0
DWIDTH 6 0
BBX 3 7 1 0
BITMAP
40
00
40
40
E0
40
40
ENDCHAR
STARTCHAR LATIN
ENCODING 617
SWIDTH 640 0
DWIDTH 6 0
BBX 2 5 2 0
BITMAP
80
80
80
80
40
ENDCHAR
STARTCHAR LATIN
ENCODING 618
SWIDTH 640 0
DWIDTH 6 0
BBX 4 5 0 0
BITMAP
70
20
20
20
70
ENDCHAR
STARTCHAR LATIN
ENCODING 619
SWIDTH 640 0
DWIDTH 6 0
BBX 5 7 0 0
BITMAP
20
20
20
68
B0
20
20
ENDCHAR
STARTCHAR LATIN
ENCODING 620
SWIDTH 640 0
DWIDTH 6 0
BBX 4 7 0 0
BITMAP
20
20
60
A0
70
20
20
ENDCHAR
STARTCHAR LATIN
ENCODING 621
SWIDTH 640 0
DWIDTH 6 0
BBX 2 7 2 0
BITMAP
80
80
80
80
80
80
40
ENDCHAR
STARTCHAR LATIN
ENCODING 622
SWIDTH 640 0
DWIDTH 6 0
BBX 5 8 0 -1
BITMAP
80
F8
88
90
B0
88
48
30
ENDCHAR
STARTCHAR LATIN
ENCODING 623
SWIDTH 640 0
DWIDTH 6 0
BBX 5 5 0 0
BITMAP
A8
A8
A8
A8
78
ENDCHAR
STARTCHAR LATIN
ENCODING 624
SWIDTH 640 0
DWIDTH 6 0
BBX 5 7 0 -2
BITMAP
A8
A8
A8
A8
78
08
08
ENDCHAR
STARTCHAR LATIN
ENCODING 625
SWIDTH 640 0
DWIDTH 6 0
BBX 5 7 0 -2
BITMAP
F0
A8
A8
A8
A8
08
10
ENDCHAR
STARTCHAR LATIN
ENCODING 626
SWIDTH 640 0
DWIDTH 6 0
BBX 5 7 0 -2
BITMAP
50
68
48
48
48
40
80
ENDCHAR
STARTCHAR LATIN
ENCODING 627
SWIDTH 640 0
DWIDTH 6 0
BBX 5 7 0 -2
BITMAP
A0
D0
90
90
90
10
08
ENDCHAR
STARTCHAR LATIN
ENCODING 628
SWIDTH 640 0
DWIDTH 6 0
BBX 5 5 0 0
BITMAP
C8
C8
A8
98
98
ENDCHAR
STARTCHAR LATIN
ENCODING 629
SWIDTH 640 0
DWIDTH 6 0
BBX 5 5 0 0
BITMAP
70
88
F8
88
70
ENDCHAR
STARTCHAR LATIN
ENCODING 630
SWIDTH 640 0
DWIDTH 6 0
BBX 5 5 0 0
BITMAP
78
A0
B8
A0
78
ENDCHAR
STARTCHAR LATIN
ENCODING 631
SWIDTH 640 0
DWIDTH 6 0
BBX 5 5 0 0
BITMAP
70
88
A8
A8
D8
ENDCHAR
STARTCHAR LATIN
ENCODING 632
SWIDTH 640 0
DWIDTH 6 0
BBX 5 9 0 -2
BITMAP
20
20
70
A8
A8
A8
70
20
20
ENDCHAR
STARTCHAR LATIN
ENCODING 633
SWIDTH 640 0
DWIDTH 6 0
BBX 5 5 0 0
BITMAP
08
08
08
98
68
ENDCHAR
STARTCHAR LATIN
ENCODING 634
SWIDTH 640 0
DWIDTH 6 0
BBX 5 7 0 0
BITMAP
08
08
08
08
08
98
68
ENDCHAR
STARTCHAR LATIN
ENCODING 635
SWIDTH 640 0
DWIDTH 6 0
BBX 6 6 0 -1
BITMAP
08
08
08
98
68
04
ENDCHAR
STARTCHAR LATIN
ENCODING 636
SWIDTH 640 0
DWIDTH 6 0
BBX 5 7 0 0
BITMAP
B0
C8
80
80
80
80
80
ENDCHAR
STARTCHAR LATIN
ENCODING 637
SWIDTH 640 0
DWIDTH 6 0
BBX 5 8 0 -1
BITMAP
B0
C8
80
80
80
80
80
40
ENDCHAR
STARTCHAR LATIN
ENCODING 638
SWIDTH 640 0
DWIDTH 6 0
BBX 4 5 0 0
BITMAP
60
90
80
80
80
ENDCHAR
STARTCHAR LATIN
ENCODING 639
SWIDTH 640 0
DWIDTH 6 0
BBX 4 5 0 0
BITMAP
60
90
10
10
10
ENDCHAR
STARTCHAR LATIN
ENCODING 640
SWIDTH 640 0
DWIDTH 6 0
BBX 5 5 0 0
BITMAP
F0
88
F0
90
88
ENDCHAR
STARTCHAR LATIN
ENCODING 641
SWIDTH 640 0
DWIDTH 6 0
BBX 5 5 0 0
BITMAP
88
90
F0
88
F0
ENDCHAR
STARTCHAR LATIN
ENCODING 642
SWIDTH 640 0
DWIDTH 6 0
BBX 5 7 0 -2
BITMAP
78
80
70
08
F0
80
40
ENDCHAR
STARTCHAR LATIN
ENCODING 643
SWIDTH 640 0
DWIDTH 6 0
BBX 5 9 0 -1
BITMAP
18
20
20
20
20
20
20
20
C0
ENDCHAR
STARTCHAR LATIN
ENCODING 644
SWIDTH 640 0
DWIDTH 6 0
BBX 5 9 0 -1
BITMAP
18
20
20
20
20
70
20
20
C0
ENDCHAR
STARTCHAR LATIN
ENCODING 645
SWIDTH 640 0
DWIDTH 6 0
BBX 5 7 0 -1
BITMAP
C0
20
20
20
20
20
18
ENDCHAR
STARTCHAR LATIN
ENCODING 646
SWIDTH 640 0
DWIDTH 6 0
BBX 6 9 0 -1
BITMAP
18
20
20
20
20
20
60
B4
48
ENDCHAR
STARTCHAR LATIN
ENCODING 647
SWIDTH 640 0
DWIDTH 6 0
BBX 4 7 0 0
BITMAP
C0
20
20
20
F0
20
20
ENDCHAR
STARTCHAR LATIN
ENCODING 648
SWIDTH 640 0
DWIDTH 6 0
BBX 4 8 0 -1
BITMAP
40
40
F0
40
40
40
40
30
ENDCHAR
STARTCHAR LATIN
ENCODING 649
SWIDTH 640 0
DWIDTH 6 0
BBX 5 5 0 0
BITMAP
88
F8
88
98
68
ENDCHAR
STARTCHAR LATIN
ENCODING 650
SWIDTH 640 0
DWIDTH 6 0
BBX 5 5 0 0
BITMAP
88
50
88
88
70
ENDCHAR
STARTCHAR LATIN
ENCODING 651
SWIDTH 640 0
DWIDTH 6 0
BBX 5 5 0 0
BITMAP
B0
88
88
88
70
ENDCHAR
STARTCHAR LATIN
ENCODING 652
SWIDTH 640 0
DWIDTH 6 0
BBX 5 5 0 0
BITMAP
20
50
50
88
88
ENDCHAR
STARTCHAR LATIN
ENCODING 653
SWIDTH 640 0
DWIDTH 6 0
BBX 5 5 0 0
BITMAP
50
A8
A8
A8
88
ENDCHAR
STARTCHAR LATIN
ENCODING 654
SWIDTH 640 0
DWIDTH 6 0
BBX 5 7 0 -2
BITMAP
70
80
F0
88
88
88
88
ENDCHAR
STARTCHAR LATIN
ENCODING 655
SWIDTH 640 0
DWIDTH 6 0
BBX 5 5 0 0
BITMAP
88
50
20
20
20
ENDCHAR
STARTCHAR LATIN
ENCODING 656
SWIDTH 640 0
DWIDTH 6 0
BBX 5 7 0 -2
BITMAP
F8
10
20
40
F8
08
10
ENDCHAR
STARTCHAR LATIN
ENCODING 657
SWIDTH 640 0
DWIDTH 6 0
BBX 5 6 0 -1
BITMAP
F8
10
30
68
F8
20
ENDCHAR
STARTCHAR LATIN
ENCODING 658
SWIDTH 640 0
DWIDTH 6 0
BBX 5 7 0 -2
BITMAP
F8
10
20
10
08
88
70
ENDCHAR
STARTCHAR LATIN
ENCODING 659
SWIDTH 640 0
DWIDTH 6 0
BBX 5 7 0 -2
BITMAP
F8
10
20
10
68
98
78
ENDCHAR
STARTCHAR LATIN
ENCODING 660
SWIDTH 640 0
DWIDTH 6 0
BBX 5 7 0 1
BITMAP
70
88
08
10
20
20
20
ENDCHAR
STARTCHAR LATIN
ENCODING 661
SWIDTH 640 0
DWIDTH 6 0
BBX 5 7 0 1
BITMAP
70
88
80
40
20
20
20
ENDCHAR
STARTCHAR LATIN
ENCODING 662
SWIDTH 640 0
DWIDTH 6 0
BBX 5 7 0 1
BITMAP
20
20
20
10
08
88
70
ENDCHAR
STARTCHAR LATIN
ENCODING 663
SWIDTH 640 0
DWIDTH 6 0
BBX 5 7 0 -2
BITMAP
70
88
80
80
80
88
70
ENDCHAR
STARTCHAR LATIN
ENCODING 664
SWIDTH 640 0
DWIDTH 6 0
BBX 5 5 0 0
BITMAP
70
88
A8
88
70
ENDCHAR
STARTCHAR LATIN
ENCODING 665
SWIDTH 640 0
DWIDTH 6 0
BBX 5 5 0 0
BITMAP
F0
88
F0
88
F0
ENDCHAR
STARTCHAR LATIN
ENCODING 666
SWIDTH 640 0
DWIDTH 6 0
BBX 5 5 0 0
BITMAP
70
88
68
88
70
ENDCHAR
STARTCHAR LATIN
ENCODING 667
SWIDTH 640 0
DWIDTH 6 0
BBX 6 7 0 0
BITMAP
04
08
78
80
98
88
78
ENDCHAR
STARTCHAR LATIN
ENCODING 668
SWIDTH 640 0
DWIDTH 6 0
BBX 5 5 0 0
BITMAP
88
88
F8
88
88
ENDCHAR
STARTCHAR LATIN
ENCODING 669
SWIDTH 640 0
DWIDTH 6 0
BBX 4 9 0 -2
BITMAP
20
00
60
20
20
20
70
A0
C0
ENDCHAR
STARTCHAR LATIN
ENCODING 670
SWIDTH 640 0
DWIDTH 6 0
BBX 5 7 0 0
BITMAP
88
48
38
28
48
08
08
ENDCHAR
STARTCHAR LATIN
ENCODING 671
SWIDTH 640 0
DWIDTH 6 0
BBX 4 5 0 0
BITMAP
80
80
80
80
F0
ENDCHAR
STARTCHAR LATIN
ENCODING 672
SWIDTH 640 0
DWIDTH 6 0
BBX 6 9 0 -2
BITMAP
04
08
78
88
88
88
78
08
08
ENDCHAR
STARTCHAR LATIN
ENCODING 673
SWIDTH 640 0
DWIDTH 6 0
BBX 5 7 0 1
BITMAP
70
88
08
10
20
70
20
ENDCHAR
STARTCHAR LATIN
ENCODING 674
SWIDTH 640 0
DWIDTH 6 0
BBX 5 7 0 1
BITMAP
70
88
80
40
20
70
20
ENDCHAR
STARTCHAR LATIN
ENCODING 675
SWIDTH 640 0
DWIDTH 6 0
BBX 6 7 0 0
BITMAP
20
20
7C
A4
A8
B0
7C
ENDCHAR
STARTCHAR LATIN
ENCODING 676
SWIDTH 640 0
DWIDTH 6 0
BBX 6 8 0 -1
BITMAP
20
20
7C
A4
A8
A4
74
08
ENDCHAR
STARTCHAR LATIN
ENCODING 677
SWIDTH 640 0
DWIDTH 6 0
BBX 6 8 0 -1
BITMAP
20
20
7C
A4
A8
B4
7C
10
ENDCHAR
STARTCHAR LATIN
ENCODING 678
SWIDTH 640 0
DWIDTH 6 0
BBX 6 7 0 0
BITMAP
40
40
FC
60
58
44
38
ENDCHAR
STARTCHAR LATIN
ENCODING 679
SWIDTH 640 0
DWIDTH 6 0
BBX 5 9 0 -2
BITMAP
48
50
F0
50
50
50
30
10
20
ENDCHAR
STARTCHAR LATIN
ENCODING 680
SWIDTH 640 0
DWIDTH 6 0
BBX 6 8 0 -1
BITMAP
40
40
EC
50
58
54
3C
10
ENDCHAR
STARTCHAR LATIN
ENCODING 681
SWIDTH 640 0
DWIDTH 6 0
BBX 6 9 0 -2
BITMAP
20
40
40
F8
54
54
54
08
10
ENDCHAR
STARTCHAR LATIN
ENCODING 682
SWIDTH 640 0
DWIDTH 6 0
BBX 5 7 0 0
BITMAP
80
80
B8
C0
B0
88
F0
ENDCHAR
STARTCHAR LATIN
ENCODING 683
SWIDTH 640 0
DWIDTH 6 0
BBX 5 7 0 0
BITMAP
80
80
F8
90
A0
C0
F8
ENDCHAR
STARTCHAR LATIN
ENCODING 684
SWIDTH 640 0
DWIDTH 6 0
BBX 5 6 0 0
BITMAP
A8
A8
50
A8
A8
50
ENDCHAR
STARTCHAR LATIN
ENCODING 685
SWIDTH 640 0
DWIDTH 6 0
BBX 5 5 0 0
BITMAP
F8
88
00
F8
88
ENDCHAR
STARTCHAR LATIN
ENCODING 686
SWIDTH 640 0
DWIDTH 6 0
BBX 5 7 0 -2
BITMAP
88
48
48
48
38
08
08
ENDCHAR
STARTCHAR LATIN
ENCODING 687
SWIDTH 640 0
DWIDTH 6 0
BBX 6 7 0 -2
BITMAP
88
48
48
48
38
08
04
ENDCHAR
STARTCHAR MODIFIER
ENCODING 688
SWIDTH 640 0
DWIDTH 6 0
BBX 3 4 0 3
BITMAP
80
C0
A0
A0
ENDCHAR
STARTCHAR MODIFIER
ENCODING 689
SWIDTH 640 0
DWIDTH 6 0
BBX 3 5 0 3
BITMAP
60
80
C0
A0
A0
ENDCHAR
STARTCHAR MODIFIER
ENCODING 690
SWIDTH 640 0
DWIDTH 6 0
BBX 3 6 0 2
BITMAP
20
00
20
20
A0
40
ENDCHAR
STARTCHAR MODIFIER
ENCODING 691
SWIDTH 640 0
DWIDTH 6 0
BBX 4 4 0 3
BITMAP
A0
D0
80
80
ENDCHAR
STARTCHAR MODIFIER
ENCODING 692
SWIDTH 640 0
DWIDTH 6 0
BBX 4 4 0 3
BITMAP
10
10
B0
50
ENDCHAR
STARTCHAR MODIFIER
ENCODING 693
SWIDTH 533 0
DWIDTH 5 0
BBX 5 5 0 2
BITMAP
10
10
B0
50
08
ENDCHAR
STARTCHAR MODIFIER
ENCODING 694
SWIDTH 320 0
DWIDTH 3 0
BBX 3 5 0 3
BITMAP
A0
A0
C0
A0
C0
ENDCHAR
STARTCHAR MODIFIER
ENCODING 695
SWIDTH 640 0
DWIDTH 6 0
BBX 5 4 0 3
BITMAP
A8
A8
50
50
ENDCHAR
STARTCHAR MODIFIER
ENCODING 696
SWIDTH 320 0
DWIDTH 3 0
BBX 3 5 0 3
BITMAP
A0
A0
60
20
C0
ENDCHAR
STARTCHAR MODIFIER
ENCODING 697
SWIDTH 213 0
DWIDTH 2 0
BBX 1 2 1 5
BITMAP
80
80
ENDCHAR
STARTCHAR MODIFIER
ENCODING 698
SWIDTH 320 0
DWIDTH 3 0
BBX 3 2 0 5
BITMAP
A0
A0
ENDCHAR
STARTCHAR MODIFIER
ENCODING 699
SWIDTH 213 0
DWIDTH 2 0
BBX 2 3 1 5
BITMAP
40
80
C0
ENDCHAR
STARTCHAR MODIFIER
ENCODING 700
SWIDTH 213 0
DWIDTH 2 0
BBX 2 3 1 5
BITMAP
C0
40
80
ENDCHAR
STARTCHAR MODIFIER
ENCODING 701
SWIDTH 213 0
DWIDTH 2 0
BBX 2 3 1 5
BITMAP
C0
80
40
ENDCHAR
STARTCHAR MODIFIER
ENCODING 706
SWIDTH 640 0
DWIDTH 6 0
BBX 6 5 0 1
BITMAP
0C
30
C0
30
0C
ENDCHAR
STARTCHAR MODIFIER
ENCODING 707
SWIDTH 640 0
DWIDTH 6 0
BBX 6 5 0 1
BITMAP
C0
30
0C
30
C0
ENDCHAR
STARTCHAR MODIFIER
ENCODING 708
SWIDTH 640 0
DWIDTH 6 0
BBX 5 6 0 1
BITMAP
88
88
50
50
20
20
ENDCHAR
STARTCHAR MODIFIER
ENCODING 709
SWIDTH 640 0
DWIDTH 6 0
BBX 5 6 0 1
BITMAP
20
20
50
50
88
88
ENDCHAR
STARTCHAR MODIFIER
ENCODING 710
SWIDTH 640 0
DWIDTH 6 0
BBX 5 3 0 5
BITMAP
20
50
88
ENDCHAR
STARTCHAR CARON
ENCODING 711
SWIDTH 640 0
DWIDTH 6 0
BBX 5 3 0 5
BITMAP
88
50
20
ENDCHAR
STARTCHAR MODIFIER
ENCODING 712
SWIDTH 640 0
DWIDTH 6 0
BBX 1 2 2 5
BITMAP
80
80
ENDCHAR
STARTCHAR MODIFIER
ENCODING 713
SWIDTH 640 0
DWIDTH 6 0
BBX 2 1 1 6
BITMAP
C0
ENDCHAR
STARTCHAR MODIFIER
ENCODING 714
SWIDTH 640 0
DWIDTH 6 0
BBX 2 2 2 5
BITMAP
40
80
ENDCHAR
STARTCHAR MODIFIER
ENCODING 715
SWIDTH 640 0
DWIDTH 6 0
BBX 2 2 2 5
BITMAP
80
40
ENDCHAR
STARTCHAR MODIFIER
ENCODING 720
SWIDTH 640 0
DWIDTH 6 0
BBX 3 6 1 0
BITMAP
E0
40
00
00
40
E0
ENDCHAR
STARTCHAR MODIFIER
ENCODING 721
SWIDTH 640 0
DWIDTH 6 0
BBX 3 2 1 2
BITMAP
E0
40
ENDCHAR
STARTCHAR BREVE
ENCODING 728
SWIDTH 640 0
DWIDTH 6 0
BBX 5 2 1 7
BITMAP
88
70
ENDCHAR
STARTCHAR DOT
ENCODING 729
SWIDTH 640 0
DWIDTH 6 0
BBX 2 2 2 7
BITMAP
C0
C0
ENDCHAR
STARTCHAR RING
ENCODING 730
SWIDTH 640 0
DWIDTH 6 0
BBX 3 3 1 6
BITMAP
40
A0
40
ENDCHAR
STARTCHAR OGONEK
ENCODING 731
SWIDTH 640 0
DWIDTH 6 0
BBX 2 3 2 -2
BITMAP
40
80
40
ENDCHAR
STARTCHAR SMALL
ENCODING 732
SWIDTH 640 0
DWIDTH 6 0
BBX 5 2 0 7
BITMAP
68
B0
ENDCHAR
STARTCHAR DOUBLE
ENCODING 733
SWIDTH 640 0
DWIDTH 6 0
BBX 6 2 0 7
BITMAP
44
88
ENDCHAR
STARTCHAR MODIFIER
ENCODING 734
SWIDTH 640 0
DWIDTH 6 0
BBX 3 2 1 4
BITMAP
C0
A0
ENDCHAR
STARTCHAR MODIFIER
ENCODING 736
SWIDTH 640 0
DWIDTH 6 0
BBX 5 5 0 1
BITMAP
88
50
20
50
20
ENDCHAR
STARTCHAR MODIFIER
ENCODING 740
SWIDTH 640 0
DWIDTH 6 0
BBX 3 5 1 3
BITMAP
60
80
80
40
40
ENDCHAR
STARTCHAR MODIFIER
ENCODING 750
SWIDTH 640 0
DWIDTH 6 0
BBX 5 4 0 3
BITMAP
D8
D8
48
90
ENDCHAR
STARTCHAR COMBINING
ENCODING 768
SWIDTH 640 0
DWIDTH 6 0
BBX 2 2 1 7
BITMAP
80
40
ENDCHAR
STARTCHAR COMBINING
ENCODING 769
SWIDTH 640 0
DWIDTH 6 0
BBX 2 2 1 7
BITMAP
40
80
ENDCHAR
STARTCHAR COMBINING
ENCODING 770
SWIDTH 640 0
DWIDTH 6 0
BBX 4 2 0 7
BITMAP
60
90
ENDCHAR
STARTCHAR COMBINING
ENCODING 771
SWIDTH 640 0
DWIDTH 6 0
BBX 5 2 0 7
BITMAP
68
B0
ENDCHAR
STARTCHAR COMBINING
ENCODING 772
SWIDTH 640 0
DWIDTH 6 0
BBX 3 1 1 8
BITMAP
E0
ENDCHAR
STARTCHAR COMBINING
ENCODING 773
SWIDTH 640 0
DWIDTH 6 0
BBX 5 1 0 8
BITMAP
F8
ENDCHAR
STARTCHAR COMBINING
ENCODING 774
SWIDTH 640 0
DWIDTH 6 0
BBX 4 2 1 7
BITMAP
90
60
ENDCHAR
STARTCHAR COMBINING
ENCODING 775
SWIDTH 640 0
DWIDTH 6 0
BBX 1 1 2 8
BITMAP
80
ENDCHAR
STARTCHAR COMBINING
ENCODING 776
SWIDTH 640 0
DWIDTH 6 0
BBX 3 1 1 8
BITMAP
A0
ENDCHAR
STARTCHAR COMBINING
ENCODING 777
SWIDTH 640 0
DWIDTH 6 0
BBX 3 3 1 6
BITMAP
C0
20
40
ENDCHAR
STARTCHAR COMBINING
ENCODING 778
SWIDTH 640 0
DWIDTH 6 0
BBX 3 3 2 6
BITMAP
40
A0
40
ENDCHAR
STARTCHAR COMBINING
ENCODING 779
SWIDTH 640 0
DWIDTH 6 0
BBX 5 2 0 7
BITMAP
48
90
ENDCHAR
STARTCHAR COMBINING
ENCODING 780
SWIDTH 640 0
DWIDTH 6 0
BBX 3 2 1 7
BITMAP
A0
40
ENDCHAR
STARTCHAR COMBINING
ENCODING 781
SWIDTH 640 0
DWIDTH 6 0
BBX 1 2 2 7
BITMAP
80
80
ENDCHAR
STARTCHAR COMBINING
ENCODING 782
SWIDTH 640 0
DWIDTH 6 0
BBX 3 2 1 7
BITMAP
A0
A0
ENDCHAR
STARTCHAR COMBINING
ENCODING 784
SWIDTH 640 0
DWIDTH 6 0
BBX 5 3 0 6
BITMAP
20
88
70
ENDCHAR
STARTCHAR COMBINING
ENCODING 785
SWIDTH 640 0
DWIDTH 6 0
BBX 5 2 0 7
BITMAP
70
88
ENDCHAR
STARTCHAR COMBINING
ENCODING 786
SWIDTH 640 0
DWIDTH 6 0
BBX 2 3 1 6
BITMAP
40
80
C0
ENDCHAR
STARTCHAR COMBINING
ENCODING 787
SWIDTH 640 0
DWIDTH 6 0
BBX 2 3 1 6
BITMAP
C0
40
80
ENDCHAR
STARTCHAR COMBINING
ENCODING 788
SWIDTH 640 0
DWIDTH 6 0
BBX 2 3 1 6
BITMAP
C0
80
40
ENDCHAR
STARTCHAR COMBINING
ENCODING 789
SWIDTH 640 0
DWIDTH 6 0
BBX 2 3 1 6
BITMAP
C0
40
80
ENDCHAR
STARTCHAR COMBINING
ENCODING 794
SWIDTH 640 0
DWIDTH 6 0
BBX 4 3 1 6
BITMAP
F0
10
10
ENDCHAR
STARTCHAR COMBINING
ENCODING 796
SWIDTH 640 0
DWIDTH 6 0
BBX 2 3 1 -3
BITMAP
40
80
40
ENDCHAR
STARTCHAR COMBINING
ENCODING 799
SWIDTH 640 0
DWIDTH 6 0
BBX 3 3 1 -3
BITMAP
40
E0
40
ENDCHAR
STARTCHAR COMBINING
ENCODING 800
SWIDTH 640 0
DWIDTH 6 0
BBX 3 1 1 -2
BITMAP
E0
ENDCHAR
STARTCHAR COMBINING
ENCODING 804
SWIDTH 640 0
DWIDTH 6 0
BBX 4 1 1 -2
BITMAP
A0
ENDCHAR
STARTCHAR COMBINING
ENCODING 805
SWIDTH 640 0
DWIDTH 6 0
BBX 4 3 0 -3
BITMAP
20
50
20
ENDCHAR
STARTCHAR COMBINING
ENCODING 810
SWIDTH 640 0
DWIDTH 6 0
BBX 3 2 1 -2
BITMAP
E0
A0
ENDCHAR
STARTCHAR COMBINING
ENCODING 812
SWIDTH 640 0
DWIDTH 6 0
BBX 3 2 1 -2
BITMAP
A0
40
ENDCHAR
STARTCHAR COMBINING
ENCODING 816
SWIDTH 640 0
DWIDTH 6 0
BBX 4 2 1 -3
BITMAP
50
A0
ENDCHAR
STARTCHAR COMBINING
ENCODING 825
SWIDTH 640 0
DWIDTH 6 0
BBX 4 3 0 -3
BITMAP
20
10
20
ENDCHAR
STARTCHAR COMBINING
ENCODING 826
SWIDTH 640 0
DWIDTH 6 0
BBX 3 2 1 -3
BITMAP
A0
E0
ENDCHAR
STARTCHAR COMBINING
ENCODING 827
SWIDTH 640 0
DWIDTH 6 0
BBX 4 3 0 -3
BITMAP
70
50
70
ENDCHAR
STARTCHAR COMBINING
ENCODING 828
SWIDTH 640 0
DWIDTH 6 0
BBX 5 2 0 -3
BITMAP
50
A8
ENDCHAR
STARTCHAR COMBINING
ENCODING 835
SWIDTH 640 0
DWIDTH 6 0
BBX 2 4 2 3
BITMAP
C0
C0
40
80
ENDCHAR
STARTCHAR COMBINING
ENCODING 836
SWIDTH 640 0
DWIDTH 6 0
BBX 3 2 1 2
BITMAP
E0
40
ENDCHAR
STARTCHAR COMBINING
ENCODING 860
SWIDTH 640 0
DWIDTH 6 0
BBX 5 2 0 -2
BITMAP
88
70
ENDCHAR
STARTCHAR COMBINING
ENCODING 865
SWIDTH 640 0
DWIDTH 6 0
BBX 5 2 0 7
BITMAP
70
88
ENDCHAR
STARTCHAR GREEK
ENCODING 880
SWIDTH 640 0
DWIDTH 6 0
BBX 4 7 0 0
BITMAP
80
80
80
F0
80
80
80
ENDCHAR
STARTCHAR GREEK
ENCODING 881
SWIDTH 640 0
DWIDTH 6 0
BBX 5 6 0 0
BITMAP
80
40
40
78
40
40
ENDCHAR
STARTCHAR GREEK
ENCODING 882
SWIDTH 640 0
DWIDTH 6 0
BBX 5 7 0 0
BITMAP
F8
A8
A8
20
20
20
20
ENDCHAR
STARTCHAR GREEK
ENCODING 883
SWIDTH 640 0
DWIDTH 6 0
BBX 5 5 0 0
BITMAP
F8
A8
20
20
20
ENDCHAR
STARTCHAR GREEK
ENCODING 884
SWIDTH 640 0
DWIDTH 6 0
BBX 3 2 1 7
BITMAP
60
C0
ENDCHAR
STARTCHAR GREEK
ENCODING 885
SWIDTH 640 0
DWIDTH 6 0
BBX 4 3 0 -1
BITMAP
30
60
C0
ENDCHAR
STARTCHAR GREEK
ENCODING 886
SWIDTH 640 0
DWIDTH 6 0
BBX 5 6 0 0
BITMAP
98
98
A8
A8
C8
C8
ENDCHAR
STARTCHAR GREEK
ENCODING 887
SWIDTH 640 0
DWIDTH 6 0
BBX 6 6 0 -1
BITMAP
88
98
A8
C8
88
04
ENDCHAR
STARTCHAR GREEK
ENCODING 890
SWIDTH 640 0
DWIDTH 6 0
BBX 5 2 -2 -2
BITMAP
10
18
ENDCHAR
STARTCHAR GREEK
ENCODING 891
SWIDTH 640 0
DWIDTH 6 0
BBX 5 5 0 0
BITMAP
70
88
08
88
70
ENDCHAR
STARTCHAR GREEK
ENCODING 892
SWIDTH 640 0
DWIDTH 6 0
BBX 5 5 0 0
BITMAP
70
88
A0
88
70
ENDCHAR
STARTCHAR GREEK
ENCODING 893
SWIDTH 640 0
DWIDTH 6 0
BBX 5 5 0 0
BITMAP
70
88
28
88
70
ENDCHAR
STARTCHAR GREEK
ENCODING 894
SWIDTH 640 0
DWIDTH 6 0
BBX 2 8 2 -2
BITMAP
C0
C0
00
00
C0
C0
40
80
ENDCHAR
STARTCHAR uni037F
ENCODING 895
SWIDTH 640 0
DWIDTH 6 0
BBX 6 3 0 1
BITMAP
FC
FC
FC
ENDCHAR
STARTCHAR uni0380
ENCODING 896
SWIDTH 640 0
DWIDTH 6 0
BBX 6 3 0 1
BITMAP
A8
54
A8
ENDCHAR
STARTCHAR uni0381
ENCODING 897
SWIDTH 640 0
DWIDTH 6 0
BBX 5 3 0 1
BITMAP
A8
00
A8
ENDCHAR
STARTCHAR GREEK
ENCODING 900
SWIDTH 640 0
DWIDTH 6 0
BBX 2 3 2 5
BITMAP
40
C0
80
ENDCHAR
STARTCHAR GREEK
ENCODING 901
SWIDTH 640 0
DWIDTH 6 0
BBX 6 3 0 5
BITMAP
10
B4
20
ENDCHAR
STARTCHAR GREEK
ENCODING 902
SWIDTH 640 0
DWIDTH 6 0
BBX 5 9 0 0
BITMAP
40
80
70
88
88
F8
88
88
88
ENDCHAR
STARTCHAR GREEK
ENCODING 903
SWIDTH 640 0
DWIDTH 6 0
BBX 2 2 2 3
BITMAP
C0
C0
ENDCHAR
STARTCHAR GREEK
ENCODING 904
SWIDTH 640 0
DWIDTH 6 0
BBX 5 9 0 0
BITMAP
20
40
F8
80
80
F0
80
80
F8
ENDCHAR
STARTCHAR GREEK
ENCODING 905
SWIDTH 640 0
DWIDTH 6 0
BBX 5 8 0 0
BITMAP
20
48
C8
48
78
48
48
48
ENDCHAR
STARTCHAR GREEK
ENCODING 906
SWIDTH 640 0
DWIDTH 6 0
BBX 4 8 0 0
BITMAP
40
F0
20
20
20
20
20
70
ENDCHAR
STARTCHAR GREEK
ENCODING 908
SWIDTH 640 0
DWIDTH 6 0
BBX 5 8 0 0
BITMAP
40
B0
48
48
48
48
48
30
ENDCHAR
STARTCHAR GREEK
ENCODING 910
SWIDTH 640 0
DWIDTH 6 0
BBX 5 7 0 0
BITMAP
40
A8
28
28
10
10
10
ENDCHAR
STARTCHAR GREEK
ENCODING 911
SWIDTH 640 0
DWIDTH 6 0
BBX 5 8 0 0
BITMAP
40
F0
88
88
88
88
50
D8
ENDCHAR
STARTCHAR GREEK
ENCODING 912
SWIDTH 640 0
DWIDTH 6 0
BBX 6 9 0 0
BITMAP
10
B4
20
00
20
20
20
20
20
ENDCHAR
STARTCHAR GREEK
ENCODING 913
SWIDTH 640 0
DWIDTH 6 0
BBX 5 7 0 0
BITMAP
70
88
88
F8
88
88
88
ENDCHAR
STARTCHAR GREEK
ENCODING 914
SWIDTH 640 0
DWIDTH 6 0
BBX 5 7 0 0
BITMAP
F0
88
88
F0
88
88
F0
ENDCHAR
STARTCHAR GREEK
ENCODING 915
SWIDTH 640 0
DWIDTH 6 0
BBX 5 7 0 0
BITMAP
F8
80
80
80
80
80
80
ENDCHAR
STARTCHAR GREEK
ENCODING 916
SWIDTH 640 0
DWIDTH 6 0
BBX 5 7 0 0
BITMAP
20
20
50
50
50
88
F8
ENDCHAR
STARTCHAR GREEK
ENCODING 917
SWIDTH 640 0
DWIDTH 6 0
BBX 5 7 0 0
BITMAP
F8
80
80
F0
80
80
F8
ENDCHAR
STARTCHAR GREEK
ENCODING 918
SWIDTH 640 0
DWIDTH 6 0
BBX 5 7 0 0
BITMAP
F8
08
10
20
40
80
F8
ENDCHAR
STARTCHAR GREEK
ENCODING 919
SWIDTH 640 0
DWIDTH 6 0
BBX 5 7 0 0
BITMAP
88
88
88
F8
88
88
88
ENDCHAR
STARTCHAR GREEK
ENCODING 920
SWIDTH 640 0
DWIDTH 6 0
BBX 5 7 0 0
BITMAP
70
88
88
F8
88
88
70
ENDCHAR
STARTCHAR GREEK
ENCODING 921
SWIDTH 640 0
DWIDTH 6 0
BBX 4 7 0 0
BITMAP
70
20
20
20
20
20
70
ENDCHAR
STARTCHAR GREEK
ENCODING 922
SWIDTH 640 0
DWIDTH 6 0
BBX 5 7 0 0
BITMAP
88
90
A0
C0
A0
90
88
ENDCHAR
STARTCHAR GREEK
ENCODING 923
SWIDTH 640 0
DWIDTH 6 0
BBX 5 7 0 0
BITMAP
20
20
50
50
50
88
88
ENDCHAR
STARTCHAR GREEK
ENCODING 924
SWIDTH 640 0
DWIDTH 6 0
BBX 5 7 0 0
BITMAP
88
D8
A8
88
88
88
88
ENDCHAR
STARTCHAR GREEK
ENCODING 925
SWIDTH 640 0
DWIDTH 6 0
BBX 5 6 0 0
BITMAP
C8
C8
A8
A8
98
98
ENDCHAR
STARTCHAR GREEK
ENCODING 926
SWIDTH 640 0
DWIDTH 6 0
BBX 5 7 0 0
BITMAP
F8
00
00
70
00
00
F8
ENDCHAR
STARTCHAR GREEK
ENCODING 927
SWIDTH 640 0
DWIDTH 6 0
BBX 5 7 0 0
BITMAP
70
88
88
88
88
88
70
ENDCHAR
STARTCHAR GREEK
ENCODING 928
SWIDTH 640 0
DWIDTH 6 0
BBX 5 7 0 0
BITMAP
F8
88
88
88
88
88
88
ENDCHAR
STARTCHAR GREEK
ENCODING 929
SWIDTH 640 0
DWIDTH 6 0
BBX 5 7 0 0
BITMAP
F0
88
88
F0
80
80
80
ENDCHAR
STARTCHAR GREEK
ENCODING 931
SWIDTH 640 0
DWIDTH 6 0
BBX 5 7 0 0
BITMAP
F8
80
40
20
40
80
F8
ENDCHAR
STARTCHAR GREEK
ENCODING 932
SWIDTH 640 0
DWIDTH 6 0
BBX 5 7 0 0
BITMAP
F8
20
20
20
20
20
20
ENDCHAR
STARTCHAR GREEK
ENCODING 933
SWIDTH 640 0
DWIDTH 6 0
BBX 5 7 0 0
BITMAP
88
88
88
50
20
20
20
ENDCHAR
STARTCHAR GREEK
ENCODING 934
SWIDTH 640 0
DWIDTH 6 0
BBX 5 7 0 0
BITMAP
20
70
A8
A8
A8
70
20
ENDCHAR
STARTCHAR GREEK
ENCODING 935
SWIDTH 640 0
DWIDTH 6 0
BBX 5 7 0 0
BITMAP
88
88
50
20
50
88
88
ENDCHAR
STARTCHAR GREEK
ENCODING 936
SWIDTH 640 0
DWIDTH 6 0
BBX 5 7 0 0
BITMAP
A8
A8
A8
70
20
20
20
ENDCHAR
STARTCHAR GREEK
ENCODING 937
SWIDTH 640 0
DWIDTH 6 0
BBX 5 7 0 0
BITMAP
70
88
88
88
88
50
D8
ENDCHAR
STARTCHAR GREEK
ENCODING 938
SWIDTH 640 0
DWIDTH 6 0
BBX 3 9 1 0
BITMAP
A0
00
40
40
40
40
40
40
40
ENDCHAR
STARTCHAR GREEK
ENCODING 939
SWIDTH 640 0
DWIDTH 6 0
BBX 5 9 0 0
BITMAP
50
00
88
88
88
50
20
20
20
ENDCHAR
STARTCHAR GREEK
ENCODING 940
SWIDTH 640 0
DWIDTH 6 0
BBX 5 8 0 0
BITMAP
10
20
00
78
88
88
88
78
ENDCHAR
STARTCHAR GREEK
ENCODING 941
SWIDTH 640 0
DWIDTH 6 0
BBX 4 8 0 0
BITMAP
20
40
00
70
80
E0
80
70
ENDCHAR
STARTCHAR GREEK
ENCODING 942
SWIDTH 640 0
DWIDTH 6 0
BBX 5 10 0 -2
BITMAP
20
40
00
B0
C8
88
88
88
08
08
ENDCHAR
STARTCHAR GREEK
ENCODING 943
SWIDTH 640 0
DWIDTH 6 0
BBX 2 8 2 0
BITMAP
40
80
00
80
80
80
80
80
ENDCHAR
STARTCHAR GREEK
ENCODING 944
SWIDTH 640 0
DWIDTH 6 0
BBX 6 8 0 0
BITMAP
10
B4
20
88
88
88
98
68
ENDCHAR
STARTCHAR GREEK
ENCODING 945
SWIDTH 640 0
DWIDTH 6 0
BBX 5 5 0 0
BITMAP
78
88
88
88
78
ENDCHAR
STARTCHAR GREEK
ENCODING 946
SWIDTH 640 0
DWIDTH 6 0
BBX 4 9 0 -2
BITMAP
60
90
90
A0
90
D0
A0
80
80
ENDCHAR
STARTCHAR GREEK
ENCODING 947
SWIDTH 640 0
DWIDTH 6 0
BBX 5 7 0 -2
BITMAP
88
88
50
50
20
20
20
ENDCHAR
STARTCHAR GREEK
ENCODING 948
SWIDTH 640 0
DWIDTH 6 0
BBX 5 8 0 0
BITMAP
F8
40
20
70
88
88
88
70
ENDCHAR
STARTCHAR GREEK
ENCODING 949
SWIDTH 640 0
DWIDTH 6 0
BBX 4 5 0 0
BITMAP
70
80
E0
80
70
ENDCHAR
STARTCHAR GREEK
ENCODING 950
SWIDTH 640 0
DWIDTH 6 0
BBX 4 9 0 -2
BITMAP
F0
20
40
80
80
80
60
10
20
ENDCHAR
STARTCHAR GREEK
ENCODING 951
SWIDTH 640 0
DWIDTH 6 0
BBX 5 7 0 -2
BITMAP
B0
C8
88
88
88
08
08
ENDCHAR
STARTCHAR GREEK
ENCODING 952
SWIDTH 640 0
DWIDTH 6 0
BBX 4 7 0 0
BITMAP
60
90
90
F0
90
90
60
ENDCHAR
STARTCHAR GREEK
ENCODING 953
SWIDTH 640 0
DWIDTH 6 0
BBX 1 5 2 0
BITMAP
80
80
80
80
80
ENDCHAR
STARTCHAR GREEK
ENCODING 954
SWIDTH 640 0
DWIDTH 6 0
BBX 5 5 0 0
BITMAP
88
90
E0
90
88
ENDCHAR
STARTCHAR GREEK
ENCODING 955
SWIDTH 640 0
DWIDTH 6 0
BBX 5 8 0 0
BITMAP
40
40
20
20
50
50
88
88
ENDCHAR
STARTCHAR GREEK
ENCODING 956
SWIDTH 640 0
DWIDTH 6 0
BBX 5 7 0 -2
BITMAP
90
90
90
90
E8
80
80
ENDCHAR
STARTCHAR GREEK
ENCODING 957
SWIDTH 640 0
DWIDTH 6 0
BBX 5 5 0 0
BITMAP
88
88
50
50
20
ENDCHAR
STARTCHAR GREEK
ENCODING 958
SWIDTH 640 0
DWIDTH 6 0
BBX 4 9 0 -2
BITMAP
60
90
80
60
80
80
60
10
20
ENDCHAR
STARTCHAR GREEK
ENCODING 959
SWIDTH 640 0
DWIDTH 6 0
BBX 5 5 0 0
BITMAP
70
88
88
88
70
ENDCHAR
STARTCHAR GREEK
ENCODING 960
SWIDTH 640 0
DWIDTH 6 0
BBX 5 5 0 0
BITMAP
F8
50
50
50
50
ENDCHAR
STARTCHAR GREEK
ENCODING 961
SWIDTH 640 0
DWIDTH 6 0
BBX 5 7 0 -2
BITMAP
70
88
88
88
F0
80
80
ENDCHAR
STARTCHAR GREEK
ENCODING 962
SWIDTH 640 0
DWIDTH 6 0
BBX 5 7 0 -2
BITMAP
70
88
80
80
70
08
30
ENDCHAR
STARTCHAR GREEK
ENCODING 963
SWIDTH 640 0
DWIDTH 6 0
BBX 6 5 0 0
BITMAP
7C
88
88
88
70
ENDCHAR
STARTCHAR GREEK
ENCODING 964
SWIDTH 640 0
DWIDTH 6 0
BBX 5 5 0 0
BITMAP
78
A0
20
20
10
ENDCHAR
STARTCHAR GREEK
ENCODING 965
SWIDTH 640 0
DWIDTH 6 0
BBX 5 5 0 0
BITMAP
88
88
88
88
70
ENDCHAR
STARTCHAR GREEK
ENCODING 966
SWIDTH 640 0
DWIDTH 6 0
BBX 5 7 0 -2
BITMAP
B0
A8
A8
A8
70
20
20
ENDCHAR
STARTCHAR GREEK
ENCODING 967
SWIDTH 640 0
DWIDTH 6 0
BBX 5 7 0 -2
BITMAP
88
88
50
20
50
88
88
ENDCHAR
STARTCHAR GREEK
ENCODING 968
SWIDTH 640 0
DWIDTH 6 0
BBX 5 7 0 -2
BITMAP
A8
A8
A8
70
20
20
20
ENDCHAR
STARTCHAR GREEK
ENCODING 969
SWIDTH 640 0
DWIDTH 6 0
BBX 5 5 0 0
BITMAP
50
88
A8
A8
50
ENDCHAR
STARTCHAR GREEK
ENCODING 970
SWIDTH 640 0
DWIDTH 6 0
BBX 4 7 0 0
BITMAP
50
00
20
20
20
20
20
ENDCHAR
STARTCHAR GREEK
ENCODING 971
SWIDTH 640 0
DWIDTH 6 0
BBX 5 7 0 0
BITMAP
50
00
88
88
88
88
70
ENDCHAR
STARTCHAR GREEK
ENCODING 972
SWIDTH 640 0
DWIDTH 6 0
BBX 5 8 0 0
BITMAP
20
40
00
70
88
88
88
70
ENDCHAR
STARTCHAR GREEK
ENCODING 973
SWIDTH 640 0
DWIDTH 6 0
BBX 5 8 0 0
BITMAP
20
40
00
88
88
88
88
70
ENDCHAR
STARTCHAR GREEK
ENCODING 974
SWIDTH 640 0
DWIDTH 6 0
BBX 5 8 0 0
BITMAP
20
40
00
50
88
A8
A8
50
ENDCHAR
STARTCHAR GREEK
ENCODING 975
SWIDTH 640 0
DWIDTH 6 0
BBX 5 8 0 -1
BITMAP
88
90
A0
C0
A0
90
88
10
ENDCHAR
STARTCHAR GREEK
ENCODING 976
SWIDTH 640 0
DWIDTH 6 0
BBX 4 7 0 0
BITMAP
60
90
A0
E0
90
90
60
ENDCHAR
STARTCHAR GREEK
ENCODING 977
SWIDTH 640 0
DWIDTH 6 0
BBX 6 7 0 0
BITMAP
30
48
48
3C
C8
48
30
ENDCHAR
STARTCHAR GREEK
ENCODING 978
SWIDTH 640 0
DWIDTH 6 0
BBX 6 7 0 0
BITMAP
88
8C
88
50
20
20
20
ENDCHAR
STARTCHAR GREEK
ENCODING 979
SWIDTH 640 0
DWIDTH 6 0
BBX 6 8 0 0
BITMAP
40
88
8C
88
50
20
20
20
ENDCHAR
STARTCHAR GREEK
ENCODING 980
SWIDTH 640 0
DWIDTH 6 0
BBX 6 9 0 0
BITMAP
50
00
88
8C
88
50
20
20
20
ENDCHAR
STARTCHAR GREEK
ENCODING 981
SWIDTH 640 0
DWIDTH 6 0
BBX 5 9 0 -2
BITMAP
20
20
70
A8
A8
A8
70
20
20
ENDCHAR
STARTCHAR GREEK
ENCODING 982
SWIDTH 640 0
DWIDTH 6 0
BBX 5 5 0 0
BITMAP
F8
88
A8
A8
50
ENDCHAR
STARTCHAR GREEK
ENCODING 983
SWIDTH 640 0
DWIDTH 6 0
BBX 6 7 0 -2
BITMAP
88
50
70
50
8C
04
08
ENDCHAR
STARTCHAR GREEK
ENCODING 984
SWIDTH 640 0
DWIDTH 6 0
BBX 5 9 0 -2
BITMAP
70
88
88
88
88
88
70
20
20
ENDCHAR
STARTCHAR GREEK
ENCODING 985
SWIDTH 640 0
DWIDTH 6 0
BBX 5 7 0 -2
BITMAP
70
88
88
88
70
20
20
ENDCHAR
STARTCHAR GREEK
ENCODING 986
SWIDTH 640 0
DWIDTH 6 0
BBX 5 9 0 -2
BITMAP
70
88
80
80
80
80
70
08
30
ENDCHAR
STARTCHAR GREEK
ENCODING 987
SWIDTH 640 0
DWIDTH 6 0
BBX 5 7 0 -2
BITMAP
70
88
80
80
70
08
30
ENDCHAR
STARTCHAR GREEK
ENCODING 988
SWIDTH 640 0
DWIDTH 6 0
BBX 5 7 0 0
BITMAP
F8
80
80
F0
90
80
80
ENDCHAR
STARTCHAR GREEK
ENCODING 989
SWIDTH 640 0
DWIDTH 6 0
BBX 4 7 0 -2
BITMAP
F0
80
E0
A0
80
80
80
ENDCHAR
STARTCHAR GREEK
ENCODING 990
SWIDTH 640 0
DWIDTH 6 0
BBX 6 8 0 -2
BITMAP
80
40
48
58
68
48
08
04
ENDCHAR
STARTCHAR GREEK
ENCODING 991
SWIDTH 640 0
DWIDTH 6 0
BBX 4 7 0 -1
BITMAP
20
40
80
F0
10
20
40
ENDCHAR
STARTCHAR GREEK
ENCODING 992
SWIDTH 640 0
DWIDTH 6 0
BBX 4 9 0 -2
BITMAP
80
40
20
60
90
30
50
10
10
ENDCHAR
STARTCHAR GREEK
ENCODING 993
SWIDTH 640 0
DWIDTH 6 0
BBX 4 9 0 -2
BITMAP
80
40
20
60
90
30
50
10
10
ENDCHAR
STARTCHAR COPTIC
ENCODING 994
SWIDTH 640 0
DWIDTH 6 0
BBX 5 9 0 -2
BITMAP
A8
A8
A8
A8
A8
A8
58
08
F0
ENDCHAR
STARTCHAR COPTIC
ENCODING 995
SWIDTH 640 0
DWIDTH 6 0
BBX 5 7 0 -2
BITMAP
A8
A8
A8
A8
58
08
F0
ENDCHAR
STARTCHAR COPTIC
ENCODING 996
SWIDTH 640 0
DWIDTH 6 0
BBX 5 7 0 0
BITMAP
68
88
88
78
08
08
08
ENDCHAR
STARTCHAR COPTIC
ENCODING 997
SWIDTH 640 0
DWIDTH 6 0
BBX 4 6 0 0
BITMAP
50
90
90
70
10
10
ENDCHAR
STARTCHAR COPTIC
ENCODING 998
SWIDTH 640 0
DWIDTH 6 0
BBX 5 9 0 -2
BITMAP
80
80
80
F0
88
88
88
08
F0
ENDCHAR
STARTCHAR COPTIC
ENCODING 999
SWIDTH 640 0
DWIDTH 6 0
BBX 5 7 0 -1
BITMAP
10
70
A8
48
08
70
80
ENDCHAR
STARTCHAR COPTIC
ENCODING 1000
SWIDTH 640 0
DWIDTH 6 0
BBX 5 7 0 0
BITMAP
70
88
08
70
80
88
70
ENDCHAR
STARTCHAR COPTIC
ENCODING 1001
SWIDTH 640 0
DWIDTH 6 0
BBX 5 7 0 0
BITMAP
70
88
08
70
80
80
78
ENDCHAR
STARTCHAR COPTIC
ENCODING 1002
SWIDTH 640 0
DWIDTH 6 0
BBX 5 7 0 0
BITMAP
50
A8
20
50
50
88
F8
ENDCHAR
STARTCHAR COPTIC
ENCODING 1003
SWIDTH 640 0
DWIDTH 6 0
BBX 5 5 0 0
BITMAP
50
A8
20
50
70
ENDCHAR
STARTCHAR COPTIC
ENCODING 1004
SWIDTH 640 0
DWIDTH 6 0
BBX 5 8 0 0
BITMAP
78
80
F0
88
88
88
88
70
ENDCHAR
STARTCHAR COPTIC
ENCODING 1005
SWIDTH 640 0
DWIDTH 6 0
BBX 5 7 0 0
BITMAP
70
80
B0
88
88
88
70
ENDCHAR
STARTCHAR COPTIC
ENCODING 1006
SWIDTH 640 0
DWIDTH 6 0
BBX 5 7 0 0
BITMAP
20
70
A8
20
20
20
20
ENDCHAR
STARTCHAR COPTIC
ENCODING 1007
SWIDTH 640 0
DWIDTH 6 0
BBX 5 7 0 0
BITMAP
30
20
F8
A0
20
20
60
ENDCHAR
STARTCHAR GREEK
ENCODING 1008
SWIDTH 640 0
DWIDTH 6 0
BBX 5 5 0 0
BITMAP
C8
50
70
50
98
ENDCHAR
STARTCHAR GREEK
ENCODING 1009
SWIDTH 640 0
DWIDTH 6 0
BBX 5 8 0 -3
BITMAP
70
88
88
88
F0
80
70
08
ENDCHAR
STARTCHAR GREEK
ENCODING 1010
SWIDTH 640 0
DWIDTH 6 0
BBX 5 5 0 0
BITMAP
70
88
80
88
70
ENDCHAR
STARTCHAR GREEK
ENCODING 1011
SWIDTH 640 0
DWIDTH 6 0
BBX 3 9 0 -2
BITMAP
20
00
20
20
20
20
20
20
C0
ENDCHAR
STARTCHAR GREEK
ENCODING 1012
SWIDTH 640 0
DWIDTH 6 0
BBX 5 7 0 0
BITMAP
70
88
88
F8
88
88
70
ENDCHAR
STARTCHAR GREEK
ENCODING 1013
SWIDTH 640 0
DWIDTH 6 0
BBX 4 5 0 0
BITMAP
70
80
E0
80
70
ENDCHAR
STARTCHAR GREEK
ENCODING 1014
SWIDTH 640 0
DWIDTH 6 0
BBX 4 5 0 0
BITMAP
E0
10
70
10
E0
ENDCHAR
STARTCHAR GREEK
ENCODING 1015
SWIDTH 640 0
DWIDTH 6 0
BBX 5 7 0 0
BITMAP
80
F0
88
88
88
F0
80
ENDCHAR
STARTCHAR GREEK
ENCODING 1016
SWIDTH 640 0
DWIDTH 6 0
BBX 5 9 0 -2
BITMAP
80
80
F0
88
88
88
F0
80
80
ENDCHAR
STARTCHAR GREEK
ENCODING 1017
SWIDTH 640 0
DWIDTH 6 0
BBX 5 7 0 0
BITMAP
70
88
80
80
80
88
70
ENDCHAR
STARTCHAR GREEK
ENCODING 1018
SWIDTH 640 0
DWIDTH 6 0
BBX 5 7 0 0
BITMAP
88
D8
A8
88
88
88
88
ENDCHAR
STARTCHAR GREEK
ENCODING 1019
SWIDTH 640 0
DWIDTH 6 0
BBX 5 6 0 -2
BITMAP
88
D8
A8
A8
80
80
ENDCHAR
STARTCHAR GREEK
ENCODING 1020
SWIDTH 640 0
DWIDTH 6 0
BBX 5 8 0 -3
BITMAP
70
88
88
88
F0
80
C0
80
ENDCHAR
STARTCHAR GREEK
ENCODING 1021
SWIDTH 640 0
DWIDTH 6 0
BBX 5 7 0 0
BITMAP
70
88
08
08
08
88
70
ENDCHAR
STARTCHAR GREEK
ENCODING 1022
SWIDTH 640 0
DWIDTH 6 0
BBX 5 7 0 0
BITMAP
70
88
80
A0
80
88
70
ENDCHAR
STARTCHAR GREEK
ENCODING 1023
SWIDTH 640 0
DWIDTH 6 0
BBX 5 7 0 0
BITMAP
70
88
08
28
08
88
70
ENDCHAR
STARTCHAR CYRILLIC
ENCODING 1024
SWIDTH 640 0
DWIDTH 6 0
BBX 5 9 0 0
BITMAP
40
20
F8
80
80
F0
80
80
F8
ENDCHAR
STARTCHAR CYRILLIC
ENCODING 1025
SWIDTH 640 0
DWIDTH 6 0
BBX 5 9 0 0
BITMAP
50
00
F8
80
80
F0
80
80
F8
ENDCHAR
STARTCHAR CYRILLIC
ENCODING 1026
SWIDTH 640 0
DWIDTH 6 0
BBX 5 8 0 -1
BITMAP
F0
40
70
48
48
48
48
10
ENDCHAR
STARTCHAR CYRILLIC
ENCODING 1027
SWIDTH 640 0
DWIDTH 6 0
BBX 4 9 1 0
BITMAP
20
40
F0
80
80
80
80
80
80
ENDCHAR
STARTCHAR CYRILLIC
ENCODING 1028
SWIDTH 640 0
DWIDTH 6 0
BBX 5 7 0 0
BITMAP
70
88
80
E0
80
88
70
ENDCHAR
STARTCHAR CYRILLIC
ENCODING 1029
SWIDTH 640 0
DWIDTH 6 0
BBX 5 7 0 0
BITMAP
70
88
80
70
08
88
70
ENDCHAR
STARTCHAR CYRILLIC
ENCODING 1030
SWIDTH 640 0
DWIDTH 6 0
BBX 1 7 2 0
BITMAP
80
80
80
80
80
80
80
ENDCHAR
STARTCHAR CYRILLIC
ENCODING 1031
SWIDTH 640 0
DWIDTH 6 0
BBX 3 9 1 0
BITMAP
A0
00
40
40
40
40
40
40
40
ENDCHAR
STARTCHAR CYRILLIC
ENCODING 1032
SWIDTH 640 0
DWIDTH 6 0
BBX 5 7 0 0
BITMAP
08
08
08
08
88
88
70
ENDCHAR
STARTCHAR CYRILLIC
ENCODING 1033
SWIDTH 640 0
DWIDTH 6 0
BBX 6 7 0 0
BITMAP
30
50
50
58
54
54
98
ENDCHAR
STARTCHAR CYRILLIC
ENCODING 1034
SWIDTH 640 0
DWIDTH 6 0
BBX 5 7 0 0
BITMAP
A0
A0
A0
F0
A8
A8
B0
ENDCHAR
STARTCHAR CYRILLIC
ENCODING 1035
SWIDTH 640 0
DWIDTH 6 0
BBX 5 7 0 0
BITMAP
F0
40
70
48
48
48
48
ENDCHAR
STARTCHAR CYRILLIC
ENCODING 1036
SWIDTH 640 0
DWIDTH 6 0
BBX 5 9 0 0
BITMAP
10
20
88
90
A0
C0
A0
90
88
ENDCHAR
STARTCHAR CYRILLIC
ENCODING 1037
SWIDTH 640 0
DWIDTH 6 0
BBX 5 9 0 0
BITMAP
40
20
98
98
A8
A8
A8
C8
C8
ENDCHAR
STARTCHAR CYRILLIC
ENCODING 1038
SWIDTH 640 0
DWIDTH 6 0
BBX 5 9 0 0
BITMAP
50
20
88
88
88
78
08
88
70
ENDCHAR
STARTCHAR CYRILLIC
ENCODING 1039
SWIDTH 640 0
DWIDTH 6 0
BBX 5 9 0 -2
BITMAP
88
88
88
88
88
88
F8
20
20
ENDCHAR
STARTCHAR CYRILLIC
ENCODING 1040
SWIDTH 640 0
DWIDTH 6 0
BBX 5 7 0 0
BITMAP
70
88
88
F8
88
88
88
ENDCHAR
STARTCHAR CYRILLIC
ENCODING 1041
SWIDTH 640 0
DWIDTH 6 0
BBX 5 7 0 0
BITMAP
F0
80
80
F0
88
88
F0
ENDCHAR
STARTCHAR CYRILLIC
ENCODING 1042
SWIDTH 640 0
DWIDTH 6 0
BBX 5 7 0 0
BITMAP
F0
88
88
F0
88
88
F0
ENDCHAR
STARTCHAR CYRILLIC
ENCODING 1043
SWIDTH 640 0
DWIDTH 6 0
BBX 4 7 1 0
BITMAP
F0
80
80
80
80
80
80
ENDCHAR
STARTCHAR CYRILLIC
ENCODING 1044
SWIDTH 640 0
DWIDTH 6 0
BBX 6 9 0 -2
BITMAP
38
48
48
48
48
48
FC
84
84
ENDCHAR
STARTCHAR CYRILLIC
ENCODING 1045
SWIDTH 640 0
DWIDTH 6 0
BBX 5 7 0 0
BITMAP
F8
80
80
F0
80
80
F8
ENDCHAR
STARTCHAR CYRILLIC
ENCODING 1046
SWIDTH 640 0
DWIDTH 6 0
BBX 5 7 0 0
BITMAP
A8
A8
A8
70
A8
A8
A8
ENDCHAR
STARTCHAR CYRILLIC
ENCODING 1047
SWIDTH 640 0
DWIDTH 6 0
BBX 5 7 0 0
BITMAP
70
88
08
30
08
88
70
ENDCHAR
STARTCHAR CYRILLIC
ENCODING 1048
SWIDTH 640 0
DWIDTH 6 0
BBX 5 7 0 0
BITMAP
98
98
A8
A8
A8
C8
C8
ENDCHAR
STARTCHAR CYRILLIC
ENCODING 1049
SWIDTH 640 0
DWIDTH 6 0
BBX 5 9 0 0
BITMAP
50
20
98
98
A8
A8
A8
C8
C8
ENDCHAR
STARTCHAR CYRILLIC
ENCODING 1050
SWIDTH 640 0
DWIDTH 6 0
BBX 5 7 0 0
BITMAP
88
90
A0
C0
A0
90
88
ENDCHAR
STARTCHAR CYRILLIC
ENCODING 1051
SWIDTH 640 0
DWIDTH 6 0
BBX 5 7 0 0
BITMAP
38
48
48
48
48
48
88
ENDCHAR
STARTCHAR CYRILLIC
ENCODING 1052
SWIDTH 640 0
DWIDTH 6 0
BBX 5 7 0 0
BITMAP
88
D8
A8
88
88
88
88
ENDCHAR
STARTCHAR CYRILLIC
ENCODING 1053
SWIDTH 640 0
DWIDTH 6 0
BBX 5 7 0 0
BITMAP
88
88
88
F8
88
88
88
ENDCHAR
STARTCHAR CYRILLIC
ENCODING 1054
SWIDTH 640 0
DWIDTH 6 0
BBX 5 7 0 0
BITMAP
70
88
88
88
88
88
70
ENDCHAR
STARTCHAR CYRILLIC
ENCODING 1055
SWIDTH 640 0
DWIDTH 6 0
BBX 5 7 0 0
BITMAP
F8
88
88
88
88
88
88
ENDCHAR
STARTCHAR CYRILLIC
ENCODING 1056
SWIDTH 640 0
DWIDTH 6 0
BBX 5 7 0 0
BITMAP
F0
88
88
F0
80
80
80
ENDCHAR
STARTCHAR CYRILLIC
ENCODING 1057
SWIDTH 640 0
DWIDTH 6 0
BBX 5 7 0 0
BITMAP
70
88
80
80
80
88
70
ENDCHAR
STARTCHAR CYRILLIC
ENCODING 1058
SWIDTH 640 0
DWIDTH 6 0
BBX 5 7 0 0
BITMAP
F8
20
20
20
20
20
20
ENDCHAR
STARTCHAR CYRILLIC
ENCODING 1059
SWIDTH 640 0
DWIDTH 6 0
BBX 5 7 0 0
BITMAP
88
88
88
78
08
88
70
ENDCHAR
STARTCHAR CYRILLIC
ENCODING 1060
SWIDTH 640 0
DWIDTH 6 0
BBX 5 7 0 0
BITMAP
20
70
A8
A8
A8
70
20
ENDCHAR
STARTCHAR CYRILLIC
ENCODING 1061
SWIDTH 640 0
DWIDTH 6 0
BBX 5 7 0 0
BITMAP
88
88
50
20
50
88
88
ENDCHAR
STARTCHAR CYRILLIC
ENCODING 1062
SWIDTH 640 0
DWIDTH 6 0
BBX 6 9 0 -2
BITMAP
88
88
88
88
88
88
FC
04
04
ENDCHAR
STARTCHAR CYRILLIC
ENCODING 1063
SWIDTH 640 0
DWIDTH 6 0
BBX 5 7 0 0
BITMAP
88
88
88
78
08
08
08
ENDCHAR
STARTCHAR CYRILLIC
ENCODING 1064
SWIDTH 640 0
DWIDTH 6 0
BBX 5 7 0 0
BITMAP
A8
A8
A8
A8
A8
A8
F8
ENDCHAR
STARTCHAR CYRILLIC
ENCODING 1065
SWIDTH 640 0
DWIDTH 6 0
BBX 6 9 0 -2
BITMAP
A8
A8
A8
A8
A8
A8
FC
04
04
ENDCHAR
STARTCHAR CYRILLIC
ENCODING 1066
SWIDTH 640 0
DWIDTH 6 0
BBX 5 7 0 0
BITMAP
C0
40
40
70
48
48
70
ENDCHAR
STARTCHAR CYRILLIC
ENCODING 1067
SWIDTH 640 0
DWIDTH 6 0
BBX 5 7 0 0
BITMAP
88
88
88
E8
98
98
E8
ENDCHAR
STARTCHAR CYRILLIC
ENCODING 1068
SWIDTH 640 0
DWIDTH 6 0
BBX 5 7 0 0
BITMAP
80
80
80
F0
88
88
F0
ENDCHAR
STARTCHAR CYRILLIC
ENCODING 1069
SWIDTH 640 0
DWIDTH 6 0
BBX 5 7 0 0
BITMAP
70
88
08
78
08
88
70
ENDCHAR
STARTCHAR CYRILLIC
ENCODING 1070
SWIDTH 640 0
DWIDTH 6 0
BBX 5 7 0 0
BITMAP
90
A8
A8
E8
A8
A8
90
ENDCHAR
STARTCHAR CYRILLIC
ENCODING 1071
SWIDTH 640 0
DWIDTH 6 0
BBX 5 7 0 0
BITMAP
38
48
48
38
28
48
88
ENDCHAR
STARTCHAR CYRILLIC
ENCODING 1072
SWIDTH 640 0
DWIDTH 6 0
BBX 5 5 0 0
BITMAP
78
88
88
98
68
ENDCHAR
STARTCHAR CYRILLIC
ENCODING 1073
SWIDTH 640 0
DWIDTH 6 0
BBX 5 8 0 0
BITMAP
08
70
80
F0
88
88
88
70
ENDCHAR
STARTCHAR CYRILLIC
ENCODING 1074
SWIDTH 640 0
DWIDTH 6 0
BBX 5 5 0 0
BITMAP
F0
88
F0
88
F0
ENDCHAR
STARTCHAR CYRILLIC
ENCODING 1075
SWIDTH 640 0
DWIDTH 6 0
BBX 4 5 1 0
BITMAP
F0
80
80
80
80
ENDCHAR
STARTCHAR CYRILLIC
ENCODING 1076
SWIDTH 640 0
DWIDTH 6 0
BBX 6 7 0 -2
BITMAP
38
48
48
48
FC
84
84
ENDCHAR
STARTCHAR CYRILLIC
ENCODING 1077
SWIDTH 640 0
DWIDTH 6 0
BBX 5 5 0 0
BITMAP
70
88
F8
80
78
ENDCHAR
STARTCHAR CYRILLIC
ENCODING 1078
SWIDTH 640 0
DWIDTH 6 0
BBX 5 5 0 0
BITMAP
A8
A8
70
A8
A8
ENDCHAR
STARTCHAR CYRILLIC
ENCODING 1079
SWIDTH 640 0
DWIDTH 6 0
BBX 5 5 0 0
BITMAP
70
88
30
88
70
ENDCHAR
STARTCHAR CYRILLIC
ENCODING 1080
SWIDTH 640 0
DWIDTH 6 0
BBX 5 5 0 0
BITMAP
88
98
A8
C8
88
ENDCHAR
STARTCHAR CYRILLIC
ENCODING 1081
SWIDTH 640 0
DWIDTH 6 0
BBX 5 7 0 0
BITMAP
50
20
88
98
A8
C8
88
ENDCHAR
STARTCHAR CYRILLIC
ENCODING 1082
SWIDTH 640 0
DWIDTH 6 0
BBX 5 5 0 0
BITMAP
88
90
E0
90
88
ENDCHAR
STARTCHAR CYRILLIC
ENCODING 1083
SWIDTH 640 0
DWIDTH 6 0
BBX 5 5 0 0
BITMAP
38
48
48
48
88
ENDCHAR
STARTCHAR CYRILLIC
ENCODING 1084
SWIDTH 640 0
DWIDTH 6 0
BBX 5 5 0 0
BITMAP
88
D8
A8
88
88
ENDCHAR
STARTCHAR CYRILLIC
ENCODING 1085
SWIDTH 640 0
DWIDTH 6 0
BBX 5 5 0 0
BITMAP
88
88
F8
88
88
ENDCHAR
STARTCHAR CYRILLIC
ENCODING 1086
SWIDTH 640 0
DWIDTH 6 0
BBX 5 5 0 0
BITMAP
70
88
88
88
70
ENDCHAR
STARTCHAR CYRILLIC
ENCODING 1087
SWIDTH 640 0
DWIDTH 6 0
BBX 5 5 0 0
BITMAP
F8
88
88
88
88
ENDCHAR
STARTCHAR CYRILLIC
ENCODING 1088
SWIDTH 640 0
DWIDTH 6 0
BBX 5 7 0 -2
BITMAP
F0
88
88
88
F0
80
80
ENDCHAR
STARTCHAR CYRILLIC
ENCODING 1089
SWIDTH 640 0
DWIDTH 6 0
BBX 5 5 0 0
BITMAP
70
88
80
88
70
ENDCHAR
STARTCHAR CYRILLIC
ENCODING 1090
SWIDTH 640 0
DWIDTH 6 0
BBX 5 5 0 0
BITMAP
F8
20
20
20
20
ENDCHAR
STARTCHAR CYRILLIC
ENCODING 1091
SWIDTH 640 0
DWIDTH 6 0
BBX 5 7 0 -2
BITMAP
88
88
88
88
78
08
70
ENDCHAR
STARTCHAR CYRILLIC
ENCODING 1092
SWIDTH 640 0
DWIDTH 6 0
BBX 5 9 0 -2
BITMAP
20
20
70
A8
A8
A8
70
20
20
ENDCHAR
STARTCHAR CYRILLIC
ENCODING 1093
SWIDTH 640 0
DWIDTH 6 0
BBX 5 5 0 0
BITMAP
88
50
20
50
88
ENDCHAR
STARTCHAR CYRILLIC
ENCODING 1094
SWIDTH 640 0
DWIDTH 6 0
BBX 6 7 0 -2
BITMAP
88
88
88
88
FC
04
04
ENDCHAR
STARTCHAR CYRILLIC
ENCODING 1095
SWIDTH 640 0
DWIDTH 6 0
BBX 5 5 0 0
BITMAP
88
88
78
08
08
ENDCHAR
STARTCHAR CYRILLIC
ENCODING 1096
SWIDTH 640 0
DWIDTH 6 0
BBX 5 5 0 0
BITMAP
A8
A8
A8
A8
F8
ENDCHAR
STARTCHAR CYRILLIC
ENCODING 1097
SWIDTH 640 0
DWIDTH 6 0
BBX 6 7 0 -2
BITMAP
A8
A8
A8
A8
FC
04
04
ENDCHAR
STARTCHAR CYRILLIC
ENCODING 1098
SWIDTH 640 0
DWIDTH 6 0
BBX 5 5 0 0
BITMAP
C0
40
70
48
70
ENDCHAR
STARTCHAR CYRILLIC
ENCODING 1099
SWIDTH 640 0
DWIDTH 6 0
BBX 5 5 0 0
BITMAP
88
88
E8
98
E8
ENDCHAR
STARTCHAR CYRILLIC
ENCODING 1100
SWIDTH 640 0
DWIDTH 6 0
BBX 5 5 0 0
BITMAP
80
80
F0
88
F0
ENDCHAR
STARTCHAR CYRILLIC
ENCODING 1101
SWIDTH 640 0
DWIDTH 6 0
BBX 5 5 0 0
BITMAP
F0
08
78
08
F0
ENDCHAR
STARTCHAR CYRILLIC
ENCODING 1102
SWIDTH 640 0
DWIDTH 6 0
BBX 5 5 0 0
BITMAP
90
A8
E8
A8
90
ENDCHAR
STARTCHAR CYRILLIC
ENCODING 1103
SWIDTH 640 0
DWIDTH 6 0
BBX 5 5 0 0
BITMAP
78
88
78
48
88
ENDCHAR
STARTCHAR CYRILLIC
ENCODING 1104
SWIDTH 640 0
DWIDTH 6 0
BBX 5 8 0 0
BITMAP
40
20
00
70
88
F8
80
78
ENDCHAR
STARTCHAR CYRILLIC
ENCODING 1105
SWIDTH 640 0
DWIDTH 6 0
BBX 5 7 0 0
BITMAP
50
00
70
88
F8
80
78
ENDCHAR
STARTCHAR CYRILLIC
ENCODING 1106
SWIDTH 640 0
DWIDTH 6 0
BBX 5 8 0 -1
BITMAP
40
40
F0
40
70
48
48
10
ENDCHAR
STARTCHAR CYRILLIC
ENCODING 1107
SWIDTH 640 0
DWIDTH 6 0
BBX 4 8 1 0
BITMAP
20
40
00
F0
80
80
80
80
ENDCHAR
STARTCHAR CYRILLIC
ENCODING 1108
SWIDTH 640 0
DWIDTH 6 0
BBX 5 5 0 0
BITMAP
70
88
E0
80
78
ENDCHAR
STARTCHAR CYRILLIC
ENCODING 1109
SWIDTH 640 0
DWIDTH 6 0
BBX 5 5 0 0
BITMAP
78
80
70
08
F0
ENDCHAR
STARTCHAR CYRILLIC
ENCODING 1110
SWIDTH 640 0
DWIDTH 6 0
BBX 1 7 2 0
BITMAP
80
00
80
80
80
80
80
ENDCHAR
STARTCHAR CYRILLIC
ENCODING 1111
SWIDTH 640 0
DWIDTH 6 0
BBX 3 7 1 0
BITMAP
A0
00
40
40
40
40
40
ENDCHAR
STARTCHAR CYRILLIC
ENCODING 1112
SWIDTH 640 0
DWIDTH 6 0
BBX 3 9 0 -2
BITMAP
20
00
20
20
20
20
20
20
C0
ENDCHAR
STARTCHAR CYRILLIC
ENCODING 1113
SWIDTH 640 0
DWIDTH 6 0
BBX 6 5 0 0
BITMAP
30
50
58
54
98
ENDCHAR
STARTCHAR CYRILLIC
ENCODING 1114
SWIDTH 640 0
DWIDTH 6 0
BBX 5 5 0 0
BITMAP
A0
A0
F0
A8
B0
ENDCHAR
STARTCHAR CYRILLIC
ENCODING 1115
SWIDTH 640 0
DWIDTH 6 0
BBX 5 7 0 0
BITMAP
40
40
F0
40
70
48
48
ENDCHAR
STARTCHAR CYRILLIC
ENCODING 1116
SWIDTH 640 0
DWIDTH 6 0
BBX 5 8 0 0
BITMAP
10
20
00
88
90
E0
90
88
ENDCHAR
STARTCHAR CYRILLIC
ENCODING 1117
SWIDTH 533 0
DWIDTH 5 0
BBX 5 8 0 0
BITMAP
40
20
00
88
98
A8
C8
88
ENDCHAR
STARTCHAR CYRILLIC
ENCODING 1118
SWIDTH 640 0
DWIDTH 6 0
BBX 5 9 0 -2
BITMAP
50
20
88
88
88
88
78
08
70
ENDCHAR
STARTCHAR CYRILLIC
ENCODING 1119
SWIDTH 640 0
DWIDTH 6 0
BBX 5 7 0 -2
BITMAP
88
88
88
88
F8
20
20
ENDCHAR
STARTCHAR CYRILLIC
ENCODING 1120
SWIDTH 533 0
DWIDTH 5 0
BBX 5 7 0 0
BITMAP
A8
A8
A8
A8
A8
A8
50
ENDCHAR
STARTCHAR CYRILLIC
ENCODING 1121
SWIDTH 533 0
DWIDTH 5 0
BBX 5 5 0 0
BITMAP
A8
A8
A8
A8
50
ENDCHAR
STARTCHAR CYRILLIC
ENCODING 1122
SWIDTH 533 0
DWIDTH 5 0
BBX 5 8 0 0
BITMAP
40
E0
40
70
48
48
48
70
ENDCHAR
STARTCHAR CYRILLIC
ENCODING 1123
SWIDTH 533 0
DWIDTH 5 0
BBX 5 7 0 0
BITMAP
40
E0
40
70
48
48
70
ENDCHAR
STARTCHAR CYRILLIC
ENCODING 1124
SWIDTH 533 0
DWIDTH 5 0
BBX 5 7 0 0
BITMAP
90
A8
A0
F0
A0
A8
90
ENDCHAR
STARTCHAR CYRILLIC
ENCODING 1125
SWIDTH 533 0
DWIDTH 5 0
BBX 5 5 0 0
BITMAP
98
A0
F0
A0
98
ENDCHAR
STARTCHAR CYRILLIC
ENCODING 1126
SWIDTH 533 0
DWIDTH 5 0
BBX 5 7 0 0
BITMAP
20
20
50
50
F8
A8
A8
ENDCHAR
STARTCHAR CYRILLIC
ENCODING 1127
SWIDTH 533 0
DWIDTH 5 0
BBX 5 6 0 0
BITMAP
20
20
50
70
A8
A8
ENDCHAR
STARTCHAR CYRILLIC
ENCODING 1128
SWIDTH 533 0
DWIDTH 5 0
BBX 5 7 0 0
BITMAP
A0
A0
D0
D0
F8
A8
A8
ENDCHAR
STARTCHAR CYRILLIC
ENCODING 1129
SWIDTH 533 0
DWIDTH 5 0
BBX 5 6 0 0
BITMAP
A0
A0
D0
F0
A8
A8
ENDCHAR
STARTCHAR CYRILLIC
ENCODING 1130
SWIDTH 533 0
DWIDTH 5 0
BBX 5 7 0 0
BITMAP
F8
88
50
70
A8
A8
A8
ENDCHAR
STARTCHAR CYRILLIC
ENCODING 1131
SWIDTH 533 0
DWIDTH 5 0
BBX 5 5 0 0
BITMAP
70
50
20
70
A8
ENDCHAR
STARTCHAR CYRILLIC
ENCODING 1132
SWIDTH 533 0
DWIDTH 5 0
BBX 5 7 0 0
BITMAP
F0
D0
A0
F0
A8
A8
A8
ENDCHAR
STARTCHAR CYRILLIC
ENCODING 1133
SWIDTH 533 0
DWIDTH 5 0
BBX 5 5 0 0
BITMAP
F0
D0
A0
F0
A8
ENDCHAR
STARTCHAR CYRILLIC
ENCODING 1134
SWIDTH 533 0
DWIDTH 5 0
BBX 4 11 1 -2
BITMAP
A0
40
00
E0
10
60
10
10
60
80
60
ENDCHAR
STARTCHAR CYRILLIC
ENCODING 1135
SWIDTH 533 0
DWIDTH 5 0
BBX 4 10 1 -2
BITMAP
A0
40
00
E0
10
60
10
60
80
40
ENDCHAR
STARTCHAR CYRILLIC
ENCODING 1136
SWIDTH 533 0
DWIDTH 5 0
BBX 5 7 0 0
BITMAP
A8
A8
A8
A8
70
20
20
ENDCHAR
STARTCHAR CYRILLIC
ENCODING 1137
SWIDTH 533 0
DWIDTH 5 0
BBX 5 6 0 0
BITMAP
A8
A8
A8
70
20
20
ENDCHAR
STARTCHAR CYRILLIC
ENCODING 1138
SWIDTH 533 0
DWIDTH 5 0
BBX 5 7 0 0
BITMAP
70
88
88
F8
88
88
70
ENDCHAR
STARTCHAR CYRILLIC
ENCODING 1139
SWIDTH 533 0
DWIDTH 5 0
BBX 5 5 0 0
BITMAP
70
88
F8
88
70
ENDCHAR
STARTCHAR CYRILLIC
ENCODING 1140
SWIDTH 533 0
DWIDTH 5 0
BBX 5 7 0 0
BITMAP
88
90
90
50
50
20
20
ENDCHAR
STARTCHAR CYRILLIC
ENCODING 1141
SWIDTH 533 0
DWIDTH 5 0
BBX 5 5 0 0
BITMAP
88
90
50
50
20
ENDCHAR
STARTCHAR CYRILLIC
ENCODING 1142
SWIDTH 533 0
DWIDTH 5 0
BBX 5 9 0 0
BITMAP
A0
50
00
88
90
50
50
20
20
ENDCHAR
STARTCHAR CYRILLIC
ENCODING 1143
SWIDTH 533 0
DWIDTH 5 0
BBX 5 8 0 0
BITMAP
A0
50
00
88
90
50
50
20
ENDCHAR
STARTCHAR CYRILLIC
ENCODING 1144
SWIDTH 533 0
DWIDTH 5 0
BBX 5 9 0 -2
BITMAP
40
A0
A0
A8
A8
A8
58
08
30
ENDCHAR
STARTCHAR CYRILLIC
ENCODING 1145
SWIDTH 533 0
DWIDTH 5 0
BBX 5 7 0 -2
BITMAP
40
A8
A8
A8
58
08
30
ENDCHAR
STARTCHAR CYRILLIC
ENCODING 1146
SWIDTH 533 0
DWIDTH 5 0
BBX 5 9 0 -1
BITMAP
20
70
A8
88
88
88
A8
70
20
ENDCHAR
STARTCHAR CYRILLIC
ENCODING 1147
SWIDTH 533 0
DWIDTH 5 0
BBX 5 7 0 -1
BITMAP
20
70
A8
88
A8
70
20
ENDCHAR
STARTCHAR CYRILLIC
ENCODING 1148
SWIDTH 533 0
DWIDTH 5 0
BBX 5 9 0 0
BITMAP
60
90
08
20
88
88
88
A8
50
ENDCHAR
STARTCHAR CYRILLIC
ENCODING 1149
SWIDTH 533 0
DWIDTH 5 0
BBX 5 8 0 0
BITMAP
60
90
08
20
88
88
A8
50
ENDCHAR
STARTCHAR CYRILLIC
ENCODING 1150
SWIDTH 533 0
DWIDTH 5 0
BBX 5 9 0 0
BITMAP
F8
A8
00
A8
A8
A8
A8
A8
50
ENDCHAR
STARTCHAR CYRILLIC
ENCODING 1151
SWIDTH 533 0
DWIDTH 5 0
BBX 5 8 0 0
BITMAP
F8
A8
00
A8
A8
A8
A8
50
ENDCHAR
STARTCHAR CYRILLIC
ENCODING 1154
SWIDTH 640 0
DWIDTH 6 0
BBX 4 8 0 0
BITMAP
10
10
60
30
C0
60
80
80
ENDCHAR
STARTCHAR CYRILLIC
ENCODING 1168
SWIDTH 640 0
DWIDTH 6 0
BBX 4 9 1 0
BITMAP
10
10
F0
80
80
80
80
80
80
ENDCHAR
STARTCHAR CYRILLIC
ENCODING 1169
SWIDTH 640 0
DWIDTH 6 0
BBX 4 7 1 0
BITMAP
10
10
F0
80
80
80
80
ENDCHAR
STARTCHAR CYRILLIC
ENCODING 1285
SWIDTH 640 0
DWIDTH 6 0
BBX 5 6 0 0
BITMAP
C0
20
C8
28
28
10
ENDCHAR
STARTCHAR ARABIC
ENCODING 1604
SWIDTH 640 0
DWIDTH 6 0
BBX 5 7 0 1
BITMAP
10
10
10
08
88
88
70
ENDCHAR
STARTCHAR ARABIC
ENCODING 1697
SWIDTH 640 0
DWIDTH 6 0
BBX 5 4 0 1
BITMAP
10
28
98
70
ENDCHAR
STARTCHAR NKO
ENCODING 2040
SWIDTH 640 0
DWIDTH 6 0
BBX 6 4 0 -2
BITMAP
FC
FC
FC
FC
ENDCHAR
STARTCHAR NKO
ENCODING 2041
SWIDTH 640 0
DWIDTH 6 0
BBX 6 4 0 -2
BITMAP
54
A8
54
A8
ENDCHAR
STARTCHAR NKO
ENCODING 2042
SWIDTH 640 0
DWIDTH 6 0
BBX 5 9 0 -2
BITMAP
A8
00
A8
00
A8
00
A8
00
A8
ENDCHAR
STARTCHAR TELUGU
ENCODING 3178
SWIDTH 640 0
DWIDTH 6 0
BBX 5 6 0 0
BITMAP
50
88
88
70
50
20
ENDCHAR
STARTCHAR KANNADA
ENCODING 3232
SWIDTH 640 0
DWIDTH 6 0
BBX 6 7 0 0
BITMAP
18
04
F8
44
54
44
38
ENDCHAR
STARTCHAR KANNADA
ENCODING 3237
SWIDTH 640 0
DWIDTH 6 0
BBX 6 10 0 -2
BITMAP
08
04
F8
44
54
44
54
28
00
10
ENDCHAR
STARTCHAR THAI
ENCODING 3591
SWIDTH 640 0
DWIDTH 6 0
BBX 4 7 0 0
BITMAP
20
50
30
90
50
50
20
ENDCHAR
STARTCHAR THAI
ENCODING 3647
SWIDTH 640 0
DWIDTH 6 0
BBX 5 9 0 -1
BITMAP
20
F0
A8
A8
F0
A8
A8
F0
20
ENDCHAR
STARTCHAR THAI
ENCODING 3665
SWIDTH 640 0
DWIDTH 6 0
BBX 5 4 0 1
BITMAP
70
88
A8
68
ENDCHAR
STARTCHAR LAO
ENCODING 3720
SWIDTH 640 0
DWIDTH 6 0
BBX 6 6 0 3
BITMAP
78
84
B4
6C
5C
24
ENDCHAR
STARTCHAR TIBETAN
ENCODING 3900
SWIDTH 640 0
DWIDTH 6 0
BBX 4 9 2 -1
BITMAP
10
20
40
40
20
40
80
80
80
ENDCHAR
STARTCHAR TIBETAN
ENCODING 3901
SWIDTH 640 0
DWIDTH 6 0
BBX 4 9 0 -1
BITMAP
80
40
20
20
40
20
10
10
10
ENDCHAR
STARTCHAR GEORGIAN
ENCODING 4314
SWIDTH 640 0
DWIDTH 6 0
BBX 6 6 0 -1
BITMAP
54
AC
80
40
F8
04
ENDCHAR
STARTCHAR CANADIAN
ENCODING 5463
SWIDTH 640 0
DWIDTH 6 0
BBX 5 6 0 0
BITMAP
40
A0
50
08
30
C0
ENDCHAR
STARTCHAR CANADIAN
ENCODING 5465
SWIDTH 640 0
DWIDTH 6 0
BBX 5 6 0 0
BITMAP
10
28
50
80
60
18
ENDCHAR
STARTCHAR LATIN
ENCODING 7461
SWIDTH 640 0
DWIDTH 6 0
BBX 6 6 0 0
BITMAP
30
78
78
30
B4
48
ENDCHAR
STARTCHAR LATIN
ENCODING 7680
SWIDTH 533 0
DWIDTH 5 0
BBX 5 10 0 -3
BITMAP
70
88
88
F8
88
88
88
20
50
20
ENDCHAR
STARTCHAR LATIN
ENCODING 7681
SWIDTH 533 0
DWIDTH 5 0
BBX 5 8 0 -3
BITMAP
78
88
88
98
68
20
50
20
ENDCHAR
STARTCHAR LATIN
ENCODING 7682
SWIDTH 533 0
DWIDTH 5 0
BBX 5 9 0 0
BITMAP
20
00
F0
88
88
F0
88
88
F0
ENDCHAR
STARTCHAR LATIN
ENCODING 7683
SWIDTH 640 0
DWIDTH 6 0
BBX 5 8 0 0
BITMAP
20
80
80
F0
88
88
88
F0
ENDCHAR
STARTCHAR LATIN
ENCODING 7684
SWIDTH 533 0
DWIDTH 5 0
BBX 5 9 0 -2
BITMAP
F0
88
88
F0
88
88
F0
00
20
ENDCHAR
STARTCHAR LATIN
ENCODING 7685
SWIDTH 640 0
DWIDTH 6 0
BBX 5 9 0 -2
BITMAP
80
80
F0
88
88
88
F0
00
20
ENDCHAR
STARTCHAR LATIN
ENCODING 7686
SWIDTH 533 0
DWIDTH 5 0
BBX 5 9 0 -2
BITMAP
F0
88
88
F0
88
88
F0
00
70
ENDCHAR
STARTCHAR LATIN
ENCODING 7687
SWIDTH 640 0
DWIDTH 6 0
BBX 5 9 0 -2
BITMAP
80
80
F0
88
88
88
F0
00
70
ENDCHAR
STARTCHAR LATIN
ENCODING 7688
SWIDTH 640 0
DWIDTH 6 0
BBX 5 12 0 -3
BITMAP
10
20
70
88
80
80
80
88
70
20
10
20
ENDCHAR
STARTCHAR LATIN
ENCODING 7689
SWIDTH 640 0
DWIDTH 6 0
BBX 5 11 0 -3
BITMAP
10
20
00
70
88
80
80
78
20
10
20
ENDCHAR
STARTCHAR LATIN
ENCODING 7690
SWIDTH 640 0
DWIDTH 6 0
BBX 5 9 0 0
BITMAP
20
00
F0
88
88
88
88
88
F0
ENDCHAR
STARTCHAR LATIN
ENCODING 7691
SWIDTH 640 0
DWIDTH 6 0
BBX 5 8 0 0
BITMAP
20
08
08
78
88
88
88
78
ENDCHAR
STARTCHAR LATIN
ENCODING 7692
SWIDTH 640 0
DWIDTH 6 0
BBX 5 9 0 -2
BITMAP
F0
88
88
88
88
88
F0
00
20
ENDCHAR
STARTCHAR LATIN
ENCODING 7693
SWIDTH 640 0
DWIDTH 6 0
BBX 5 9 0 -2
BITMAP
08
08
78
88
88
88
78
00
20
ENDCHAR
STARTCHAR LATIN
ENCODING 7694
SWIDTH 640 0
DWIDTH 6 0
BBX 5 9 0 -2
BITMAP
F0
88
88
88
88
88
F0
00
70
ENDCHAR
STARTCHAR LATIN
ENCODING 7695
SWIDTH 640 0
DWIDTH 6 0
BBX 5 9 0 -2
BITMAP
08
08
78
88
88
88
78
00
70
ENDCHAR
STARTCHAR LATIN
ENCODING 7696
SWIDTH 640 0
DWIDTH 6 0
BBX 5 10 0 -3
BITMAP
F0
88
88
88
88
88
F0
20
10
20
ENDCHAR
STARTCHAR LATIN
ENCODING 7697
SWIDTH 640 0
DWIDTH 6 0
BBX 5 10 0 -3
BITMAP
08
08
78
88
88
88
78
20
10
20
ENDCHAR
STARTCHAR LATIN
ENCODING 7698
SWIDTH 640 0
DWIDTH 6 0
BBX 5 9 0 -2
BITMAP
F0
88
88
88
88
88
F0
20
50
ENDCHAR
STARTCHAR LATIN
ENCODING 7699
SWIDTH 640 0
DWIDTH 6 0
BBX 5 9 0 -2
BITMAP
08
08
78
88
88
88
78
20
50
ENDCHAR
STARTCHAR LATIN
ENCODING 7700
SWIDTH 640 0
DWIDTH 6 0
BBX 5 9 0 0
BITMAP
40
70
F8
80
80
F0
80
80
F8
ENDCHAR
STARTCHAR LATIN
ENCODING 7701
SWIDTH 640 0
DWIDTH 6 0
BBX 5 9 0 0
BITMAP
40
20
70
00
70
88
F8
80
78
ENDCHAR
STARTCHAR LATIN
ENCODING 7702
SWIDTH 640 0
DWIDTH 6 0
BBX 5 9 0 0
BITMAP
10
70
F8
80
80
F0
80
80
F8
ENDCHAR
STARTCHAR LATIN
ENCODING 7703
SWIDTH 640 0
DWIDTH 6 0
BBX 5 9 0 0
BITMAP
10
20
70
00
70
88
F8
80
78
ENDCHAR
STARTCHAR LATIN
ENCODING 7704
SWIDTH 640 0
DWIDTH 6 0
BBX 5 9 0 -2
BITMAP
F8
80
80
F0
80
80
F8
20
50
ENDCHAR
STARTCHAR LATIN
ENCODING 7705
SWIDTH 640 0
DWIDTH 6 0
BBX 5 7 0 -2
BITMAP
70
88
F8
80
78
20
50
ENDCHAR
STARTCHAR LATIN
ENCODING 7706
SWIDTH 640 0
DWIDTH 6 0
BBX 5 10 0 -3
BITMAP
F8
80
80
F0
80
80
F8
00
68
90
ENDCHAR
STARTCHAR LATIN
ENCODING 7707
SWIDTH 640 0
DWIDTH 6 0
BBX 5 8 0 -3
BITMAP
70
88
F8
80
78
00
68
90
ENDCHAR
STARTCHAR LATIN
ENCODING 7708
SWIDTH 640 0
DWIDTH 6 0
BBX 5 12 0 -3
BITMAP
88
70
F8
80
80
F0
80
80
F8
20
10
20
ENDCHAR
STARTCHAR LATIN
ENCODING 7709
SWIDTH 640 0
DWIDTH 6 0
BBX 5 11 0 -3
BITMAP
88
70
00
70
88
F8
80
78
20
10
20
ENDCHAR
STARTCHAR LATIN
ENCODING 7710
SWIDTH 640 0
DWIDTH 6 0
BBX 5 9 0 0
BITMAP
20
00
F8
80
80
F0
80
80
80
ENDCHAR
STARTCHAR LATIN
ENCODING 7711
SWIDTH 640 0
DWIDTH 6 0
BBX 4 9 0 0
BITMAP
20
00
30
40
40
E0
40
40
40
ENDCHAR
STARTCHAR LATIN
ENCODING 7712
SWIDTH 640 0
DWIDTH 6 0
BBX 5 9 0 0
BITMAP
70
00
70
88
80
98
88
88
70
ENDCHAR
STARTCHAR LATIN
ENCODING 7713
SWIDTH 640 0
DWIDTH 6 0
BBX 5 9 0 -2
BITMAP
70
00
78
88
88
88
78
08
70
ENDCHAR
STARTCHAR LATIN
ENCODING 7714
SWIDTH 640 0
DWIDTH 6 0
BBX 5 9 0 0
BITMAP
20
00
88
88
88
F8
88
88
88
ENDCHAR
STARTCHAR LATIN
ENCODING 7715
SWIDTH 640 0
DWIDTH 6 0
BBX 5 8 0 0
BITMAP
20
80
80
F0
88
88
88
88
ENDCHAR
STARTCHAR LATIN
ENCODING 7716
SWIDTH 640 0
DWIDTH 6 0
BBX 5 9 0 -2
BITMAP
88
88
88
F8
88
88
88
00
20
ENDCHAR
STARTCHAR LATIN
ENCODING 7717
SWIDTH 640 0
DWIDTH 6 0
BBX 5 9 0 -2
BITMAP
80
80
F0
88
88
88
88
00
20
ENDCHAR
STARTCHAR LATIN
ENCODING 7718
SWIDTH 640 0
DWIDTH 6 0
BBX 5 9 0 0
BITMAP
50
00
88
88
88
F8
88
88
88
ENDCHAR
STARTCHAR LATIN
ENCODING 7719
SWIDTH 640 0
DWIDTH 6 0
BBX 5 9 0 0
BITMAP
50
00
80
80
F0
88
88
88
88
ENDCHAR
STARTCHAR LATIN
ENCODING 7720
SWIDTH 533 0
DWIDTH 5 0
BBX 5 9 0 -2
BITMAP
88
88
88
F8
88
88
88
40
80
ENDCHAR
STARTCHAR LATIN
ENCODING 7721
SWIDTH 640 0
DWIDTH 6 0
BBX 5 9 0 -2
BITMAP
80
80
F0
88
88
88
88
40
80
ENDCHAR
STARTCHAR LATIN
ENCODING 7722
SWIDTH 640 0
DWIDTH 6 0
BBX 5 10 0 -3
BITMAP
88
88
88
F8
88
88
88
00
88
70
ENDCHAR
STARTCHAR LATIN
ENCODING 7723
SWIDTH 640 0
DWIDTH 6 0
BBX 5 10 0 -3
BITMAP
80
80
F0
88
88
88
88
00
88
70
ENDCHAR
STARTCHAR LATIN
ENCODING 7724
SWIDTH 533 0
DWIDTH 5 0
BBX 5 10 0 -3
BITMAP
70
20
20
20
20
20
70
00
68
90
ENDCHAR
STARTCHAR LATIN
ENCODING 7725
SWIDTH 533 0
DWIDTH 5 0
BBX 5 10 0 -3
BITMAP
20
00
60
20
20
20
30
00
68
90
ENDCHAR
STARTCHAR LATIN
ENCODING 7726
SWIDTH 640 0
DWIDTH 6 0
BBX 3 9 1 0
BITMAP
20
E0
00
E0
40
40
40
40
E0
ENDCHAR
STARTCHAR LATIN
ENCODING 7727
SWIDTH 640 0
DWIDTH 6 0
BBX 3 9 1 0
BITMAP
20
40
A0
00
C0
40
40
40
60
ENDCHAR
STARTCHAR LATIN
ENCODING 7728
SWIDTH 640 0
DWIDTH 6 0
BBX 5 9 0 0
BITMAP
10
20
88
90
A0
C0
A0
90
88
ENDCHAR
STARTCHAR LATIN
ENCODING 7729
SWIDTH 640 0
DWIDTH 6 0
BBX 5 9 0 0
BITMAP
10
20
80
80
90
A0
E0
90
88
ENDCHAR
STARTCHAR LATIN
ENCODING 7730
SWIDTH 640 0
DWIDTH 6 0
BBX 5 9 0 -2
BITMAP
88
90
A0
C0
A0
90
88
00
20
ENDCHAR
STARTCHAR LATIN
ENCODING 7731
SWIDTH 640 0
DWIDTH 6 0
BBX 5 9 0 -2
BITMAP
80
80
90
A0
E0
90
88
00
20
ENDCHAR
STARTCHAR LATIN
ENCODING 7732
SWIDTH 640 0
DWIDTH 6 0
BBX 5 9 0 -2
BITMAP
88
90
A0
C0
A0
90
88
00
70
ENDCHAR
STARTCHAR LATIN
ENCODING 7733
SWIDTH 640 0
DWIDTH 6 0
BBX 5 9 0 -2
BITMAP
80
80
90
A0
E0
90
88
00
70
ENDCHAR
STARTCHAR LATIN
ENCODING 7734
SWIDTH 640 0
DWIDTH 6 0
BBX 5 9 0 -2
BITMAP
80
80
80
80
80
80
F8
00
20
ENDCHAR
STARTCHAR LATIN
ENCODING 7735
SWIDTH 640 0
DWIDTH 6 0
BBX 3 9 1 -2
BITMAP
C0
40
40
40
40
40
60
00
40
ENDCHAR
STARTCHAR LATIN
ENCODING 7736
SWIDTH 640 0
DWIDTH 6 0
BBX 5 11 0 -2
BITMAP
70
00
80
80
80
80
80
80
F8
00
20
ENDCHAR
STARTCHAR LATIN
ENCODING 7737
SWIDTH 640 0
DWIDTH 6 0
BBX 3 11 1 -2
BITMAP
E0
00
C0
40
40
40
40
40
60
00
40
ENDCHAR
STARTCHAR LATIN
ENCODING 7738
SWIDTH 640 0
DWIDTH 6 0
BBX 5 9 0 -2
BITMAP
80
80
80
80
80
80
F8
00
70
ENDCHAR
STARTCHAR LATIN
ENCODING 7739
SWIDTH 640 0
DWIDTH 6 0
BBX 3 9 1 -2
BITMAP
C0
40
40
40
40
40
60
00
E0
ENDCHAR
STARTCHAR LATIN
ENCODING 7740
SWIDTH 640 0
DWIDTH 6 0
BBX 5 10 0 -3
BITMAP
80
80
80
80
80
80
F8
00
20
50
ENDCHAR
STARTCHAR LATIN
ENCODING 7741
SWIDTH 640 0
DWIDTH 6 0
BBX 3 10 1 -3
BITMAP
C0
40
40
40
40
40
60
00
40
A0
ENDCHAR
STARTCHAR LATIN
ENCODING 7742
SWIDTH 640 0
DWIDTH 6 0
BBX 5 9 0 0
BITMAP
10
20
88
D8
A8
88
88
88
88
ENDCHAR
STARTCHAR LATIN
ENCODING 7743
SWIDTH 640 0
DWIDTH 6 0
BBX 5 8 0 0
BITMAP
10
20
00
F0
A8
A8
A8
A8
ENDCHAR
STARTCHAR LATIN
ENCODING 7744
SWIDTH 640 0
DWIDTH 6 0
BBX 5 9 0 0
BITMAP
20
00
88
D8
A8
88
88
88
88
ENDCHAR
STARTCHAR LATIN
ENCODING 7745
SWIDTH 640 0
DWIDTH 6 0
BBX 5 7 0 0
BITMAP
20
00
F0
A8
A8
A8
A8
ENDCHAR
STARTCHAR LATIN
ENCODING 7746
SWIDTH 640 0
DWIDTH 6 0
BBX 5 9 0 -2
BITMAP
88
D8
A8
88
88
88
88
00
20
ENDCHAR
STARTCHAR LATIN
ENCODING 7747
SWIDTH 640 0
DWIDTH 6 0
BBX 5 7 0 -2
BITMAP
F0
A8
A8
A8
A8
00
20
ENDCHAR
STARTCHAR LATIN
ENCODING 7748
SWIDTH 640 0
DWIDTH 6 0
BBX 5 9 0 0
BITMAP
20
00
C8
C8
A8
A8
A8
98
98
ENDCHAR
STARTCHAR LATIN
ENCODING 7749
SWIDTH 640 0
DWIDTH 6 0
BBX 5 7 0 0
BITMAP
20
00
B0
C8
88
88
88
ENDCHAR
STARTCHAR LATIN
ENCODING 7750
SWIDTH 640 0
DWIDTH 6 0
BBX 5 9 0 -2
BITMAP
C8
C8
A8
A8
A8
98
98
00
20
ENDCHAR
STARTCHAR LATIN
ENCODING 7751
SWIDTH 640 0
DWIDTH 6 0
BBX 5 7 0 -2
BITMAP
B0
C8
88
88
88
00
20
ENDCHAR
STARTCHAR LATIN
ENCODING 7752
SWIDTH 640 0
DWIDTH 6 0
BBX 5 9 0 -2
BITMAP
C8
C8
A8
A8
A8
98
98
00
70
ENDCHAR
STARTCHAR LATIN
ENCODING 7753
SWIDTH 640 0
DWIDTH 6 0
BBX 5 7 0 -2
BITMAP
B0
C8
88
88
88
00
70
ENDCHAR
STARTCHAR LATIN
ENCODING 7754
SWIDTH 640 0
DWIDTH 6 0
BBX 5 10 0 -3
BITMAP
C8
C8
A8
A8
A8
98
98
00
20
50
ENDCHAR
STARTCHAR LATIN
ENCODING 7755
SWIDTH 640 0
DWIDTH 6 0
BBX 5 8 0 -3
BITMAP
B0
C8
88
88
88
00
20
50
ENDCHAR
STARTCHAR LATIN
ENCODING 7756
SWIDTH 640 0
DWIDTH 6 0
BBX 5 9 0 0
BITMAP
10
68
90
70
88
88
88
88
70
ENDCHAR
STARTCHAR LATIN
ENCODING 7757
SWIDTH 640 0
DWIDTH 6 0
BBX 5 9 0 0
BITMAP
10
20
68
90
70
88
88
88
70
ENDCHAR
STARTCHAR LATIN
ENCODING 7758
SWIDTH 640 0
DWIDTH 6 0
BBX 5 9 0 0
BITMAP
50
68
90
70
88
88
88
88
70
ENDCHAR
STARTCHAR LATIN
ENCODING 7759
SWIDTH 640 0
DWIDTH 6 0
BBX 5 9 0 0
BITMAP
50
00
68
90
70
88
88
88
70
ENDCHAR
STARTCHAR LATIN
ENCODING 7760
SWIDTH 640 0
DWIDTH 6 0
BBX 5 9 0 0
BITMAP
40
70
00
70
88
88
88
88
70
ENDCHAR
STARTCHAR LATIN
ENCODING 7761
SWIDTH 640 0
DWIDTH 6 0
BBX 5 9 0 0
BITMAP
40
20
70
00
70
88
88
88
70
ENDCHAR
STARTCHAR LATIN
ENCODING 7762
SWIDTH 640 0
DWIDTH 6 0
BBX 5 9 0 0
BITMAP
10
70
00
70
88
88
88
88
70
ENDCHAR
STARTCHAR LATIN
ENCODING 7763
SWIDTH 640 0
DWIDTH 6 0
BBX 5 9 0 0
BITMAP
10
20
70
00
70
88
88
88
70
ENDCHAR
STARTCHAR LATIN
ENCODING 7764
SWIDTH 640 0
DWIDTH 6 0
BBX 5 9 0 0
BITMAP
10
20
F0
88
88
F0
80
80
80
ENDCHAR
STARTCHAR LATIN
ENCODING 7765
SWIDTH 640 0
DWIDTH 6 0
BBX 5 10 0 -2
BITMAP
10
20
00
F0
88
88
88
F0
80
80
ENDCHAR
STARTCHAR LATIN
ENCODING 7766
SWIDTH 640 0
DWIDTH 6 0
BBX 5 9 0 0
BITMAP
20
00
F0
88
88
F0
80
80
80
ENDCHAR
STARTCHAR LATIN
ENCODING 7767
SWIDTH 640 0
DWIDTH 6 0
BBX 5 9 0 -2
BITMAP
20
00
F0
88
88
88
F0
80
80
ENDCHAR
STARTCHAR LATIN
ENCODING 7768
SWIDTH 640 0
DWIDTH 6 0
BBX 5 9 0 0
BITMAP
20
00
F0
88
88
F0
88
88
88
ENDCHAR
STARTCHAR LATIN
ENCODING 7769
SWIDTH 640 0
DWIDTH 6 0
BBX 5 7 0 0
BITMAP
20
00
B0
C8
80
80
80
ENDCHAR
STARTCHAR LATIN
ENCODING 7770
SWIDTH 640 0
DWIDTH 6 0
BBX 5 9 0 -2
BITMAP
F0
88
88
F0
88
88
88
00
20
ENDCHAR
STARTCHAR LATIN
ENCODING 7771
SWIDTH 640 0
DWIDTH 6 0
BBX 5 7 0 -2
BITMAP
B0
C8
80
80
80
00
20
ENDCHAR
STARTCHAR LATIN
ENCODING 7772
SWIDTH 640 0
DWIDTH 6 0
BBX 5 11 0 -2
BITMAP
70
00
F0
88
88
F0
88
88
88
00
20
ENDCHAR
STARTCHAR LATIN
ENCODING 7773
SWIDTH 640 0
DWIDTH 6 0
BBX 5 9 0 -2
BITMAP
70
00
B0
C8
80
80
80
00
20
ENDCHAR
STARTCHAR LATIN
ENCODING 7774
SWIDTH 640 0
DWIDTH 6 0
BBX 5 9 0 -2
BITMAP
F0
88
88
F0
88
88
88
00
70
ENDCHAR
STARTCHAR LATIN
ENCODING 7775
SWIDTH 640 0
DWIDTH 6 0
BBX 5 7 0 -2
BITMAP
B0
C8
80
80
80
00
70
ENDCHAR
STARTCHAR LATIN
ENCODING 7776
SWIDTH 640 0
DWIDTH 6 0
BBX 5 9 0 0
BITMAP
20
00
70
88
80
70
08
88
70
ENDCHAR
STARTCHAR LATIN
ENCODING 7777
SWIDTH 640 0
DWIDTH 6 0
BBX 5 7 0 0
BITMAP
20
00
78
80
70
08
F0
ENDCHAR
STARTCHAR LATIN
ENCODING 7778
SWIDTH 640 0
DWIDTH 6 0
BBX 5 9 0 -2
BITMAP
70
88
80
70
08
88
70
00
20
ENDCHAR
STARTCHAR LATIN
ENCODING 7779
SWIDTH 640 0
DWIDTH 6 0
BBX 5 7 0 -2
BITMAP
78
80
70
08
F0
00
20
ENDCHAR
STARTCHAR LATIN
ENCODING 7780
SWIDTH 640 0
DWIDTH 6 0
BBX 5 9 0 0
BITMAP
30
20
70
88
80
70
08
88
70
ENDCHAR
STARTCHAR LATIN
ENCODING 7781
SWIDTH 640 0
DWIDTH 6 0
BBX 5 9 0 0
BITMAP
20
10
20
00
78
80
70
08
F0
ENDCHAR
STARTCHAR LATIN
ENCODING 7782
SWIDTH 640 0
DWIDTH 6 0
BBX 5 9 0 0
BITMAP
70
20
70
88
80
70
08
88
70
ENDCHAR
STARTCHAR LATIN
ENCODING 7783
SWIDTH 640 0
DWIDTH 6 0
BBX 5 9 0 0
BITMAP
20
00
50
20
78
80
70
08
F0
ENDCHAR
STARTCHAR LATIN
ENCODING 7784
SWIDTH 640 0
DWIDTH 6 0
BBX 5 11 0 -2
BITMAP
20
00
70
88
80
70
08
88
70
00
20
ENDCHAR
STARTCHAR LATIN
ENCODING 7785
SWIDTH 640 0
DWIDTH 6 0
BBX 5 9 0 -2
BITMAP
20
00
78
80
70
08
F0
00
20
ENDCHAR
STARTCHAR LATIN
ENCODING 7786
SWIDTH 640 0
DWIDTH 6 0
BBX 5 9 0 0
BITMAP
20
00
F8
20
20
20
20
20
20
ENDCHAR
STARTCHAR LATIN
ENCODING 7787
SWIDTH 640 0
DWIDTH 6 0
BBX 4 9 1 0
BITMAP
40
00
40
40
F0
40
40
40
30
ENDCHAR
STARTCHAR LATIN
ENCODING 7788
SWIDTH 640 0
DWIDTH 6 0
BBX 5 9 0 -2
BITMAP
F8
20
20
20
20
20
20
00
20
ENDCHAR
STARTCHAR LATIN
ENCODING 7789
SWIDTH 640 0
DWIDTH 6 0
BBX 4 9 1 -2
BITMAP
40
40
F0
40
40
40
30
00
40
ENDCHAR
STARTCHAR LATIN
ENCODING 7790
SWIDTH 640 0
DWIDTH 6 0
BBX 5 9 0 -2
BITMAP
F8
20
20
20
20
20
20
00
70
ENDCHAR
STARTCHAR LATIN
ENCODING 7791
SWIDTH 640 0
DWIDTH 6 0
BBX 4 9 1 -2
BITMAP
40
40
F0
40
40
40
30
00
E0
ENDCHAR
STARTCHAR LATIN
ENCODING 7792
SWIDTH 640 0
DWIDTH 6 0
BBX 5 10 0 -3
BITMAP
F8
20
20
20
20
20
20
00
20
50
ENDCHAR
STARTCHAR LATIN
ENCODING 7793
SWIDTH 640 0
DWIDTH 6 0
BBX 4 10 1 -3
BITMAP
40
40
F0
40
40
40
30
00
40
A0
ENDCHAR
STARTCHAR LATIN
ENCODING 7794
SWIDTH 640 0
DWIDTH 6 0
BBX 5 9 0 -2
BITMAP
88
88
88
88
88
88
70
00
50
ENDCHAR
STARTCHAR LATIN
ENCODING 7795
SWIDTH 640 0
DWIDTH 6 0
BBX 5 7 0 -2
BITMAP
88
88
88
98
68
00
50
ENDCHAR
STARTCHAR LATIN
ENCODING 7796
SWIDTH 640 0
DWIDTH 6 0
BBX 5 10 0 -3
BITMAP
88
88
88
88
88
88
70
00
68
90
ENDCHAR
STARTCHAR LATIN
ENCODING 7797
SWIDTH 533 0
DWIDTH 5 0
BBX 5 8 0 -3
BITMAP
88
88
88
98
68
00
68
90
ENDCHAR
STARTCHAR LATIN
ENCODING 7798
SWIDTH 640 0
DWIDTH 6 0
BBX 5 10 0 -3
BITMAP
88
88
88
88
88
88
70
00
20
50
ENDCHAR
STARTCHAR LATIN
ENCODING 7799
SWIDTH 640 0
DWIDTH 6 0
BBX 5 8 0 -3
BITMAP
88
88
88
98
68
00
20
50
ENDCHAR
STARTCHAR LATIN
ENCODING 7800
SWIDTH 640 0
DWIDTH 6 0
BBX 5 9 0 0
BITMAP
10
68
90
88
88
88
88
88
70
ENDCHAR
STARTCHAR LATIN
ENCODING 7801
SWIDTH 640 0
DWIDTH 6 0
BBX 5 9 0 0
BITMAP
10
68
90
00
88
88
88
98
68
ENDCHAR
STARTCHAR LATIN
ENCODING 7802
SWIDTH 640 0
DWIDTH 6 0
BBX 5 9 0 0
BITMAP
50
70
88
88
88
88
88
88
70
ENDCHAR
STARTCHAR LATIN
ENCODING 7803
SWIDTH 640 0
DWIDTH 6 0
BBX 5 9 0 0
BITMAP
50
00
70
00
88
88
88
98
68
ENDCHAR
STARTCHAR LATIN
ENCODING 7804
SWIDTH 640 0
DWIDTH 6 0
BBX 5 9 0 0
BITMAP
68
90
88
88
88
50
50
20
20
ENDCHAR
STARTCHAR LATIN
ENCODING 7805
SWIDTH 640 0
DWIDTH 6 0
BBX 5 8 0 0
BITMAP
68
90
00
88
88
50
50
20
ENDCHAR
STARTCHAR LATIN
ENCODING 7806
SWIDTH 640 0
DWIDTH 6 0
BBX 5 9 0 -2
BITMAP
88
88
88
50
50
20
20
00
20
ENDCHAR
STARTCHAR LATIN
ENCODING 7807
SWIDTH 640 0
DWIDTH 6 0
BBX 5 7 0 -2
BITMAP
88
88
50
50
20
00
20
ENDCHAR
STARTCHAR LATIN
ENCODING 7808
SWIDTH 640 0
DWIDTH 6 0
BBX 5 9 0 0
BITMAP
40
20
88
88
88
A8
A8
50
50
ENDCHAR
STARTCHAR LATIN
ENCODING 7809
SWIDTH 640 0
DWIDTH 6 0
BBX 5 8 0 0
BITMAP
40
20
00
88
A8
A8
A8
50
ENDCHAR
STARTCHAR LATIN
ENCODING 7810
SWIDTH 640 0
DWIDTH 6 0
BBX 5 9 0 0
BITMAP
10
20
88
88
88
A8
A8
50
50
ENDCHAR
STARTCHAR LATIN
ENCODING 7811
SWIDTH 640 0
DWIDTH 6 0
BBX 5 8 0 0
BITMAP
10
20
00
88
A8
A8
A8
50
ENDCHAR
STARTCHAR LATIN
ENCODING 7812
SWIDTH 640 0
DWIDTH 6 0
BBX 5 9 0 0
BITMAP
50
00
88
88
88
A8
A8
50
50
ENDCHAR
STARTCHAR LATIN
ENCODING 7813
SWIDTH 640 0
DWIDTH 6 0
BBX 5 7 0 0
BITMAP
50
00
88
A8
A8
A8
50
ENDCHAR
STARTCHAR LATIN
ENCODING 7814
SWIDTH 640 0
DWIDTH 6 0
BBX 5 9 0 0
BITMAP
20
00
88
88
88
A8
A8
50
50
ENDCHAR
STARTCHAR LATIN
ENCODING 7815
SWIDTH 640 0
DWIDTH 6 0
BBX 5 7 0 0
BITMAP
20
00
88
A8
A8
A8
50
ENDCHAR
STARTCHAR LATIN
ENCODING 7816
SWIDTH 640 0
DWIDTH 6 0
BBX 5 9 0 -2
BITMAP
88
88
88
A8
A8
50
50
00
20
ENDCHAR
STARTCHAR LATIN
ENCODING 7817
SWIDTH 640 0
DWIDTH 6 0
BBX 5 7 0 -2
BITMAP
88
A8
A8
A8
50
00
20
ENDCHAR
STARTCHAR LATIN
ENCODING 7818
SWIDTH 640 0
DWIDTH 6 0
BBX 5 9 0 0
BITMAP
20
00
88
88
50
20
50
88
88
ENDCHAR
STARTCHAR LATIN
ENCODING 7819
SWIDTH 640 0
DWIDTH 6 0
BBX 5 7 0 0
BITMAP
20
00
88
50
20
50
88
ENDCHAR
STARTCHAR LATIN
ENCODING 7820
SWIDTH 640 0
DWIDTH 6 0
BBX 5 9 0 0
BITMAP
50
00
88
88
50
20
50
88
88
ENDCHAR
STARTCHAR LATIN
ENCODING 7821
SWIDTH 640 0
DWIDTH 6 0
BBX 5 7 0 0
BITMAP
50
00
88
50
20
50
88
ENDCHAR
STARTCHAR LATIN
ENCODING 7822
SWIDTH 640 0
DWIDTH 6 0
BBX 5 9 0 0
BITMAP
20
00
88
88
88
50
20
20
20
ENDCHAR
STARTCHAR LATIN
ENCODING 7823
SWIDTH 640 0
DWIDTH 6 0
BBX 5 9 0 -2
BITMAP
20
00
88
88
88
88
78
08
70
ENDCHAR
STARTCHAR LATIN
ENCODING 7824
SWIDTH 640 0
DWIDTH 6 0
BBX 5 9 0 0
BITMAP
20
50
F8
08
10
20
40
80
F8
ENDCHAR
STARTCHAR LATIN
ENCODING 7825
SWIDTH 640 0
DWIDTH 6 0
BBX 5 8 0 0
BITMAP
20
50
00
F8
10
20
40
F8
ENDCHAR
STARTCHAR LATIN
ENCODING 7826
SWIDTH 640 0
DWIDTH 6 0
BBX 5 9 0 -2
BITMAP
F8
08
10
20
40
80
F8
00
20
ENDCHAR
STARTCHAR LATIN
ENCODING 7827
SWIDTH 640 0
DWIDTH 6 0
BBX 5 7 0 -2
BITMAP
F8
10
20
40
F8
00
20
ENDCHAR
STARTCHAR LATIN
ENCODING 7828
SWIDTH 640 0
DWIDTH 6 0
BBX 5 9 0 -2
BITMAP
F8
08
10
20
40
80
F8
00
70
ENDCHAR
STARTCHAR LATIN
ENCODING 7829
SWIDTH 640 0
DWIDTH 6 0
BBX 5 7 0 -2
BITMAP
F8
10
20
40
F8
00
70
ENDCHAR
STARTCHAR LATIN
ENCODING 7891
SWIDTH 640 0
DWIDTH 6 0
BBX 5 9 0 0
BITMAP
40
20
50
00
70
88
88
88
70
ENDCHAR
STARTCHAR HYPHEN
ENCODING 8208
SWIDTH 640 0
DWIDTH 6 0
BBX 3 1 1 3
BITMAP
E0
ENDCHAR
STARTCHAR NON-BREAKING
ENCODING 8209
SWIDTH 640 0
DWIDTH 6 0
BBX 3 1 1 3
BITMAP
E0
ENDCHAR
STARTCHAR FIGURE
ENCODING 8210
SWIDTH 640 0
DWIDTH 6 0
BBX 4 1 1 3
BITMAP
F0
ENDCHAR
STARTCHAR EN
ENCODING 8211
SWIDTH 640 0
DWIDTH 6 0
BBX 4 1 1 3
BITMAP
F0
ENDCHAR
STARTCHAR EM
ENCODING 8212
SWIDTH 640 0
DWIDTH 6 0
BBX 6 1 0 3
BITMAP
FC
ENDCHAR
STARTCHAR HORIZONTAL
ENCODING 8213
SWIDTH 640 0
DWIDTH 6 0
BBX 7 1 0 3
BITMAP
FE
ENDCHAR
STARTCHAR DOUBLE
ENCODING 8214
SWIDTH 640 0
DWIDTH 6 0
BBX 4 10 0 -2
BITMAP
50
50
50
50
50
50
50
50
50
50
ENDCHAR
STARTCHAR DOUBLE
ENCODING 8215
SWIDTH 640 0
DWIDTH 6 0
BBX 5 1 0 0
BITMAP
F8
ENDCHAR
STARTCHAR LEFT
ENCODING 8216
SWIDTH 640 0
DWIDTH 6 0
BBX 2 3 2 4
BITMAP
40
80
C0
ENDCHAR
STARTCHAR RIGHT
ENCODING 8217
SWIDTH 640 0
DWIDTH 6 0
BBX 2 3 2 4
BITMAP
C0
40
80
ENDCHAR
STARTCHAR SINGLE
ENCODING 8218
SWIDTH 640 0
DWIDTH 6 0
BBX 2 4 2 -2
BITMAP
C0
C0
40
80
ENDCHAR
STARTCHAR SINGLE
ENCODING 8219
SWIDTH 640 0
DWIDTH 6 0
BBX 2 3 2 4
BITMAP
C0
80
40
ENDCHAR
STARTCHAR LEFT
ENCODING 8220
SWIDTH 640 0
DWIDTH 6 0
BBX 4 3 1 4
BITMAP
50
A0
F0
ENDCHAR
STARTCHAR RIGHT
ENCODING 8221
SWIDTH 640 0
DWIDTH 6 0
BBX 4 3 1 4
BITMAP
F0
50
A0
ENDCHAR
STARTCHAR DOUBLE
ENCODING 8222
SWIDTH 640 0
DWIDTH 6 0
BBX 4 3 1 -1
BITMAP
F0
50
A0
ENDCHAR
STARTCHAR DOUBLE
ENCODING 8223
SWIDTH 640 0
DWIDTH 6 0
BBX 4 3 1 4
BITMAP
F0
A0
50
ENDCHAR
STARTCHAR DAGGER
ENCODING 8224
SWIDTH 640 0
DWIDTH 6 0
BBX 3 6 1 1
BITMAP
40
E0
40
40
40
40
ENDCHAR
STARTCHAR DOUBLE
ENCODING 8225
SWIDTH 640 0
DWIDTH 6 0
BBX 3 9 1 -2
BITMAP
40
40
E0
40
40
40
E0
40
40
ENDCHAR
STARTCHAR BULLET
ENCODING 8226
SWIDTH 640 0
DWIDTH 6 0
BBX 5 5 0 1
BITMAP
70
F8
F8
F8
70
ENDCHAR
STARTCHAR TRIANGULAR
ENCODING 8227
SWIDTH 640 0
DWIDTH 6 0
BBX 6 5 0 1
BITMAP
C0
F0
FC
F0
C0
ENDCHAR
STARTCHAR ONE
ENCODING 8228
SWIDTH 640 0
DWIDTH 6 0
BBX 1 1 2 0
BITMAP
80
ENDCHAR
STARTCHAR TWO
ENCODING 8229
SWIDTH 640 0
DWIDTH 6 0
BBX 3 1 1 0
BITMAP
A0
ENDCHAR
STARTCHAR HORIZONTAL
ENCODING 8230
SWIDTH 640 0
DWIDTH 6 0
BBX 5 1 0 0
BITMAP
A8
ENDCHAR
STARTCHAR HYPHENATION
ENCODING 8231
SWIDTH 640 0
DWIDTH 6 0
BBX 1 1 2 2
BITMAP
80
ENDCHAR
STARTCHAR PER
ENCODING 8240
SWIDTH 640 0
DWIDTH 6 0
BBX 7 7 -1 0
BITMAP
48
A8
50
20
54
AA
94
ENDCHAR
STARTCHAR PER
ENCODING 8241
SWIDTH 640 0
DWIDTH 6 0
BBX 9 7 -2 0
BITMAP
4800
A800
5000
2000
5500
AA80
9500
ENDCHAR
STARTCHAR PRIME
ENCODING 8242
SWIDTH 640 0
DWIDTH 6 0
BBX 2 3 1 4
BITMAP
40
40
80
ENDCHAR
STARTCHAR DOUBLE
ENCODING 8243
SWIDTH 640 0
DWIDTH 6 0
BBX 4 3 0 4
BITMAP
50
50
A0
ENDCHAR
STARTCHAR TRIPLE
ENCODING 8244
SWIDTH 640 0
DWIDTH 6 0
BBX 6 3 0 4
BITMAP
54
54
A8
ENDCHAR
STARTCHAR REVERSED
ENCODING 8245
SWIDTH 640 0
DWIDTH 6 0
BBX 2 3 1 4
BITMAP
80
80
40
ENDCHAR
STARTCHAR REVERSED
ENCODING 8246
SWIDTH 640 0
DWIDTH 6 0
BBX 4 3 0 4
BITMAP
A0
A0
50
ENDCHAR
STARTCHAR REVERSED
ENCODING 8247
SWIDTH 640 0
DWIDTH 6 0
BBX 6 3 0 4
BITMAP
A8
A8
54
ENDCHAR
STARTCHAR CARET
ENCODING 8248
SWIDTH 640 0
DWIDTH 6 0
BBX 5 3 0 0
BITMAP
20
50
88
ENDCHAR
STARTCHAR SINGLE
ENCODING 8249
SWIDTH 640 0
DWIDTH 6 0
BBX 2 4 1 1
BITMAP
40
80
80
40
ENDCHAR
STARTCHAR SINGLE
ENCODING 8250
SWIDTH 640 0
DWIDTH 6 0
BBX 2 4 2 1
BITMAP
80
40
40
80
ENDCHAR
STARTCHAR DOUBLE
ENCODING 8252
SWIDTH 640 0
DWIDTH 6 0
BBX 3 7 1 0
BITMAP
A0
A0
A0
A0
A0
00
A0
ENDCHAR
STARTCHAR INTERROBANG
ENCODING 8253
SWIDTH 640 0
DWIDTH 6 0
BBX 5 7 0 0
BITMAP
70
A8
28
30
20
00
20
ENDCHAR
STARTCHAR OVERLINE
ENCODING 8254
SWIDTH 640 0
DWIDTH 6 0
BBX 3 1 0 7
BITMAP
E0
ENDCHAR
STARTCHAR UNDERTIE
ENCODING 8255
SWIDTH 640 0
DWIDTH 6 0
BBX 5 2 0 0
BITMAP
88
70
ENDCHAR
STARTCHAR CHARACTER
ENCODING 8256
SWIDTH 640 0
DWIDTH 6 0
BBX 5 2 0 6
BITMAP
70
88
ENDCHAR
STARTCHAR CARET
ENCODING 8257
SWIDTH 640 0
DWIDTH 6 0
BBX 3 6 1 -2
BITMAP
20
20
40
40
A0
A0
ENDCHAR
STARTCHAR ASTERISM
ENCODING 8258
SWIDTH 640 0
DWIDTH 6 0
BBX 5 6 0 0
BITMAP
20
70
20
50
F8
50
ENDCHAR
STARTCHAR HYPHEN
ENCODING 8259
SWIDTH 640 0
DWIDTH 6 0
BBX 4 2 1 2
BITMAP
F0
F0
ENDCHAR
STARTCHAR FRACTION
ENCODING 8260
SWIDTH 640 0
DWIDTH 6 0
BBX 5 10 0 -2
BITMAP
08
08
10
10
20
20
40
40
80
80
ENDCHAR
STARTCHAR LEFT
ENCODING 8261
SWIDTH 640 0
DWIDTH 6 0
BBX 4 9 0 -1
BITMAP
70
40
40
40
70
40
40
40
70
ENDCHAR
STARTCHAR RIGHT
ENCODING 8262
SWIDTH 640 0
DWIDTH 6 0
BBX 4 9 0 -1
BITMAP
70
10
10
10
70
10
10
10
70
ENDCHAR
STARTCHAR DOUBLE
ENCODING 8263
SWIDTH 640 0
DWIDTH 6 0
BBX 5 7 0 0
BITMAP
50
A8
28
50
50
00
50
ENDCHAR
STARTCHAR QUESTION
ENCODING 8264
SWIDTH 640 0
DWIDTH 6 0
BBX 5 7 0 0
BITMAP
48
A8
28
48
48
00
48
ENDCHAR
STARTCHAR EXCLAMATION
ENCODING 8265
SWIDTH 640 0
DWIDTH 6 0
BBX 5 7 0 0
BITMAP
90
A8
88
90
90
00
90
ENDCHAR
STARTCHAR TIRONIAN
ENCODING 8266
SWIDTH 640 0
DWIDTH 6 0
BBX 4 5 0 -1
BITMAP
F0
10
10
10
10
ENDCHAR
STARTCHAR REVERSED
ENCODING 8267
SWIDTH 640 0
DWIDTH 6 0
BBX 6 8 0 0
BITMAP
F8
5C
5C
5C
78
50
50
D0
ENDCHAR
STARTCHAR BLACK
ENCODING 8268
SWIDTH 640 0
DWIDTH 6 0
BBX 5 4 0 1
BITMAP
58
D8
D8
58
ENDCHAR
STARTCHAR BLACK
ENCODING 8269
SWIDTH 640 0
DWIDTH 6 0
BBX 5 4 0 1
BITMAP
D0
D8
D8
D0
ENDCHAR
STARTCHAR LOW
ENCODING 8270
SWIDTH 640 0
DWIDTH 6 0
BBX 5 5 0 -1
BITMAP
20
A8
70
A8
20
ENDCHAR
STARTCHAR REVERSED
ENCODING 8271
SWIDTH 640 0
DWIDTH 6 0
BBX 2 8 2 -2
BITMAP
C0
C0
00
00
C0
C0
80
40
ENDCHAR
STARTCHAR CLOSE
ENCODING 8272
SWIDTH 640 0
DWIDTH 6 0
BBX 5 8 0 0
BITMAP
70
88
00
00
00
00
88
70
ENDCHAR
STARTCHAR TWO
ENCODING 8273
SWIDTH 640 0
DWIDTH 6 0
BBX 5 7 0 -1
BITMAP
20
A8
70
A8
70
A8
20
ENDCHAR
STARTCHAR COMMERCIAL
ENCODING 8274
SWIDTH 640 0
DWIDTH 6 0
BBX 4 8 0 -1
BITMAP
90
10
20
20
40
40
80
90
ENDCHAR
STARTCHAR SWUNG
ENCODING 8275
SWIDTH 640 0
DWIDTH 6 0
BBX 6 2 0 3
BITMAP
64
98
ENDCHAR
STARTCHAR INVERTED
ENCODING 8276
SWIDTH 640 0
DWIDTH 6 0
BBX 5 2 0 0
BITMAP
70
88
ENDCHAR
STARTCHAR FLOWER
ENCODING 8277
SWIDTH 640 0
DWIDTH 6 0
BBX 5 5 0 1
BITMAP
A8
70
F8
70
A8
ENDCHAR
STARTCHAR THREE
ENCODING 8278
SWIDTH 640 0
DWIDTH 6 0
BBX 3 5 0 0
BITMAP
20
00
80
00
20
ENDCHAR
STARTCHAR QUADRUPLE
ENCODING 8279
SWIDTH 640 0
DWIDTH 6 0
BBX 5 3 0 4
BITMAP
78
78
F0
ENDCHAR
STARTCHAR FOUR
ENCODING 8280
SWIDTH 640 0
DWIDTH 6 0
BBX 5 5 0 0
BITMAP
20
00
88
00
20
ENDCHAR
STARTCHAR FIVE
ENCODING 8281
SWIDTH 640 0
DWIDTH 6 0
BBX 5 5 0 0
BITMAP
88
00
20
00
88
ENDCHAR
STARTCHAR TWO
ENCODING 8282
SWIDTH 640 0
DWIDTH 6 0
BBX 1 5 0 0
BITMAP
80
00
00
00
80
ENDCHAR
STARTCHAR FOUR
ENCODING 8283
SWIDTH 640 0
DWIDTH 6 0
BBX 5 7 0 0
BITMAP
20
00
00
88
00
00
20
ENDCHAR
STARTCHAR DOTTED
ENCODING 8284
SWIDTH 640 0
DWIDTH 6 0
BBX 5 5 0 0
BITMAP
A8
20
F8
20
A8
ENDCHAR
STARTCHAR TRICOLON
ENCODING 8285
SWIDTH 640 0
DWIDTH 6 0
BBX 2 8 2 -1
BITMAP
C0
C0
00
C0
C0
00
C0
C0
ENDCHAR
STARTCHAR VERTICAL
ENCODING 8286
SWIDTH 640 0
DWIDTH 6 0
BBX 1 7 0 0
BITMAP
80
00
80
00
80
00
80
ENDCHAR
STARTCHAR SUPERSCRIPT
ENCODING 8304
SWIDTH 640 0
DWIDTH 6 0
BBX 3 5 1 3
BITMAP
40
A0
A0
A0
40
ENDCHAR
STARTCHAR SUPERSCRIPT
ENCODING 8305
SWIDTH 640 0
DWIDTH 6 0
BBX 3 6 1 3
BITMAP
40
00
C0
40
40
60
ENDCHAR
STARTCHAR SUPERSCRIPT
ENCODING 8308
SWIDTH 640 0
DWIDTH 6 0
BBX 3 5 1 3
BITMAP
80
A0
E0
20
20
ENDCHAR
STARTCHAR SUPERSCRIPT
ENCODING 8309
SWIDTH 640 0
DWIDTH 6 0
BBX 3 5 1 3
BITMAP
E0
80
C0
20
C0
ENDCHAR
STARTCHAR SUPERSCRIPT
ENCODING 8310
SWIDTH 640 0
DWIDTH 6 0
BBX 3 5 1 3
BITMAP
40
80
C0
A0
40
ENDCHAR
STARTCHAR SUPERSCRIPT
ENCODING 8311
SWIDTH 640 0
DWIDTH 6 0
BBX 3 5 1 3
BITMAP
E0
20
20
40
40
ENDCHAR
STARTCHAR SUPERSCRIPT
ENCODING 8312
SWIDTH 640 0
DWIDTH 6 0
BBX 3 5 1 3
BITMAP
40
A0
40
A0
40
ENDCHAR
STARTCHAR SUPERSCRIPT
ENCODING 8313
SWIDTH 640 0
DWIDTH 6 0
BBX 3 5 1 3
BITMAP
40
A0
60
20
40
ENDCHAR
STARTCHAR SUPERSCRIPT
ENCODING 8314
SWIDTH 640 0
DWIDTH 6 0
BBX 3 3 1 4
BITMAP
40
E0
40
ENDCHAR
STARTCHAR SUPERSCRIPT
ENCODING 8315
SWIDTH 640 0
DWIDTH 6 0
BBX 3 1 1 5
BITMAP
E0
ENDCHAR
STARTCHAR SUPERSCRIPT
ENCODING 8316
SWIDTH 640 0
DWIDTH 6 0
BBX 3 3 1 4
BITMAP
E0
00
E0
ENDCHAR
STARTCHAR SUPERSCRIPT
ENCODING 8317
SWIDTH 640 0
DWIDTH 6 0
BBX 2 5 1 3
BITMAP
40
80
80
80
40
ENDCHAR
STARTCHAR SUPERSCRIPT
ENCODING 8318
SWIDTH 640 0
DWIDTH 6 0
BBX 2 5 2 3
BITMAP
80
40
40
40
80
ENDCHAR
STARTCHAR SUPERSCRIPT
ENCODING 8319
SWIDTH 640 0
DWIDTH 6 0
BBX 3 3 1 3
BITMAP
C0
A0
A0
ENDCHAR
STARTCHAR SUBSCRIPT
ENCODING 8320
SWIDTH 640 0
DWIDTH 6 0
BBX 3 5 1 -2
BITMAP
40
A0
A0
A0
40
ENDCHAR
STARTCHAR SUBSCRIPT
ENCODING 8321
SWIDTH 640 0
DWIDTH 6 0
BBX 3 5 1 -2
BITMAP
C0
40
40
40
E0
ENDCHAR
STARTCHAR SUBSCRIPT
ENCODING 8322
SWIDTH 640 0
DWIDTH 6 0
BBX 4 5 0 -2
BITMAP
60
10
20
40
70
ENDCHAR
STARTCHAR SUBSCRIPT
ENCODING 8323
SWIDTH 640 0
DWIDTH 6 0
BBX 3 5 1 -2
BITMAP
C0
20
40
20
C0
ENDCHAR
STARTCHAR SUBSCRIPT
ENCODING 8324
SWIDTH 640 0
DWIDTH 6 0
BBX 3 5 1 -2
BITMAP
80
A0
E0
20
20
ENDCHAR
STARTCHAR SUBSCRIPT
ENCODING 8325
SWIDTH 640 0
DWIDTH 6 0
BBX 3 5 1 -2
BITMAP
E0
80
C0
20
C0
ENDCHAR
STARTCHAR SUBSCRIPT
ENCODING 8326
SWIDTH 640 0
DWIDTH 6 0
BBX 3 5 1 -2
BITMAP
40
80
C0
A0
40
ENDCHAR
STARTCHAR SUBSCRIPT
ENCODING 8327
SWIDTH 640 0
DWIDTH 6 0
BBX 3 5 1 -2
BITMAP
E0
20
20
40
40
ENDCHAR
STARTCHAR SUBSCRIPT
ENCODING 8328
SWIDTH 640 0
DWIDTH 6 0
BBX 3 5 1 -2
BITMAP
40
A0
40
A0
40
ENDCHAR
STARTCHAR SUBSCRIPT
ENCODING 8329
SWIDTH 640 0
DWIDTH 6 0
BBX 3 5 1 -2
BITMAP
40
A0
60
20
40
ENDCHAR
STARTCHAR SUBSCRIPT
ENCODING 8330
SWIDTH 640 0
DWIDTH 6 0
BBX 3 3 1 -1
BITMAP
40
E0
40
ENDCHAR
STARTCHAR SUBSCRIPT
ENCODING 8331
SWIDTH 640 0
DWIDTH 6 0
BBX 3 1 1 0
BITMAP
E0
ENDCHAR
STARTCHAR SUBSCRIPT
ENCODING 8332
SWIDTH 640 0
DWIDTH 6 0
BBX 3 3 1 -1
BITMAP
E0
00
E0
ENDCHAR
STARTCHAR SUBSCRIPT
ENCODING 8333
SWIDTH 640 0
DWIDTH 6 0
BBX 2 5 1 -2
BITMAP
40
80
80
80
40
ENDCHAR
STARTCHAR SUBSCRIPT
ENCODING 8334
SWIDTH 640 0
DWIDTH 6 0
BBX 2 5 2 -2
BITMAP
80
40
40
40
80
ENDCHAR
STARTCHAR LATIN
ENCODING 8336
SWIDTH 640 0
DWIDTH 6 0
BBX 3 5 1 -2
BITMAP
40
20
60
A0
60
ENDCHAR
STARTCHAR LATIN
ENCODING 8337
SWIDTH 640 0
DWIDTH 6 0
BBX 4 5 1 -2
BITMAP
40
A0
E0
80
60
ENDCHAR
STARTCHAR LATIN
ENCODING 8338
SWIDTH 640 0
DWIDTH 6 0
BBX 4 4 1 -2
BITMAP
60
90
90
60
ENDCHAR
STARTCHAR LATIN
ENCODING 8339
SWIDTH 640 0
DWIDTH 6 0
BBX 3 4 1 -2
BITMAP
A0
40
40
A0
ENDCHAR
STARTCHAR LATIN
ENCODING 8340
SWIDTH 640 0
DWIDTH 6 0
BBX 4 5 0 -2
BITMAP
60
10
70
50
20
ENDCHAR
STARTCHAR LATIN
ENCODING 8341
SWIDTH 640 0
DWIDTH 6 0
BBX 3 5 1 -2
BITMAP
80
80
C0
A0
A0
ENDCHAR
STARTCHAR LATIN
ENCODING 8342
SWIDTH 640 0
DWIDTH 6 0
BBX 4 5 0 -2
BITMAP
40
40
50
60
50
ENDCHAR
STARTCHAR LATIN
ENCODING 8343
SWIDTH 640 0
DWIDTH 6 0
BBX 3 5 1 -2
BITMAP
C0
40
40
40
60
ENDCHAR
STARTCHAR LATIN
ENCODING 8344
SWIDTH 640 0
DWIDTH 6 0
BBX 6 3 0 -2
BITMAP
68
54
54
ENDCHAR
STARTCHAR LATIN
ENCODING 8345
SWIDTH 640 0
DWIDTH 6 0
BBX 3 3 1 -2
BITMAP
C0
A0
A0
ENDCHAR
STARTCHAR LATIN
ENCODING 8346
SWIDTH 640 0
DWIDTH 6 0
BBX 3 4 1 -2
BITMAP
C0
A0
C0
80
ENDCHAR
STARTCHAR LATIN
ENCODING 8347
SWIDTH 640 0
DWIDTH 6 0
BBX 3 4 1 -2
BITMAP
60
C0
20
C0
ENDCHAR
STARTCHAR LATIN
ENCODING 8348
SWIDTH 640 0
DWIDTH 6 0
BBX 3 5 1 -2
BITMAP
40
E0
40
40
20
ENDCHAR
STARTCHAR EURO-CURRENCY
ENCODING 8352
SWIDTH 533 0
DWIDTH 5 0
BBX 5 7 0 0
BITMAP
70
80
B8
A0
78
20
38
ENDCHAR
STARTCHAR COLON
ENCODING 8353
SWIDTH 640 0
DWIDTH 6 0
BBX 6 10 0 -2
BITMAP
14
74
A8
A8
A8
D0
D8
70
A0
A0
ENDCHAR
STARTCHAR CRUZEIRO
ENCODING 8354
SWIDTH 533 0
DWIDTH 5 0
BBX 5 7 0 0
BITMAP
70
88
80
A8
B0
A8
70
ENDCHAR
STARTCHAR FRENCH
ENCODING 8355
SWIDTH 533 0
DWIDTH 5 0
BBX 5 7 0 0
BITMAP
78
40
40
70
40
E0
40
ENDCHAR
STARTCHAR LIRA
ENCODING 8356
SWIDTH 533 0
DWIDTH 5 0
BBX 5 7 0 0
BITMAP
30
48
E0
40
E0
48
B0
ENDCHAR
STARTCHAR MILL
ENCODING 8357
SWIDTH 533 0
DWIDTH 5 0
BBX 5 7 0 -1
BITMAP
10
D0
A8
A8
A8
E8
40
ENDCHAR
STARTCHAR NAIRA
ENCODING 8358
SWIDTH 533 0
DWIDTH 5 0
BBX 5 7 0 0
BITMAP
C8
C8
F8
A8
F8
98
98
ENDCHAR
STARTCHAR PESETA
ENCODING 8359
SWIDTH 533 0
DWIDTH 5 0
BBX 5 7 0 0
BITMAP
88
88
F8
A8
F8
50
50
ENDCHAR
STARTCHAR EURO
ENCODING 8364
SWIDTH 640 0
DWIDTH 6 0
BBX 5 7 0 0
BITMAP
30
48
E0
40
E0
48
30
ENDCHAR
STARTCHAR DEGREE
ENCODING 8451
SWIDTH 640 0
DWIDTH 6 0
BBX 6 9 0 0
BITMAP
40
A0
58
24
20
20
20
24
18
ENDCHAR
STARTCHAR DEGREE
ENCODING 8457
SWIDTH 640 0
DWIDTH 6 0
BBX 6 9 0 0
BITMAP
40
A0
7C
20
20
38
20
20
20
ENDCHAR
STARTCHAR NUMERO
ENCODING 8470
SWIDTH 640 0
DWIDTH 6 0
BBX 6 7 0 0
BITMAP
90
90
D8
F4
B8
90
9C
ENDCHAR
STARTCHAR SOUND
ENCODING 8471
SWIDTH 640 0
DWIDTH 6 0
BBX 5 8 0 -1
BITMAP
F0
08
C8
A8
C8
88
08
F0
ENDCHAR
STARTCHAR TRADE
ENCODING 8482
SWIDTH 640 0
DWIDTH 6 0
BBX 6 3 0 4
BITMAP
F4
5C
5C
ENDCHAR
STARTCHAR OUNCE
ENCODING 8485
SWIDTH 533 0
DWIDTH 5 0
BBX 5 11 0 -3
BITMAP
F8
10
20
F8
10
20
70
08
08
88
70
ENDCHAR
STARTCHAR OHM
ENCODING 8486
SWIDTH 640 0
DWIDTH 6 0
BBX 5 7 0 0
BITMAP
70
88
88
88
88
50
D8
ENDCHAR
STARTCHAR INVERTED
ENCODING 8487
SWIDTH 640 0
DWIDTH 6 0
BBX 5 7 0 0
BITMAP
D8
50
88
88
88
88
70
ENDCHAR
STARTCHAR KELVIN
ENCODING 8490
SWIDTH 640 0
DWIDTH 6 0
BBX 5 7 0 0
BITMAP
88
90
A0
C0
A0
90
88
ENDCHAR
STARTCHAR ANGSTROM
ENCODING 8491
SWIDTH 533 0
DWIDTH 5 0
BBX 5 9 0 0
BITMAP
20
50
70
88
88
F8
88
88
88
ENDCHAR
STARTCHAR SCRIPT
ENCODING 8495
SWIDTH 640 0
DWIDTH 6 0
BBX 5 5 0 0
BITMAP
60
90
E0
88
70
ENDCHAR
STARTCHAR SCRIPT
ENCODING 8499
SWIDTH 640 0
DWIDTH 6 0
BBX 6 7 0 0
BITMAP
28
28
78
78
68
A8
8C
ENDCHAR
STARTCHAR SCRIPT
ENCODING 8500
SWIDTH 640 0
DWIDTH 6 0
BBX 6 5 0 0
BITMAP
60
94
98
90
60
ENDCHAR
STARTCHAR ROMAN
ENCODING 8556
SWIDTH 640 0
DWIDTH 6 0
BBX 4 7 1 0
BITMAP
80
80
80
80
80
80
F0
ENDCHAR
STARTCHAR LEFTWARDS
ENCODING 8592
SWIDTH 640 0
DWIDTH 6 0
BBX 6 5 0 1
BITMAP
20
40
FC
40
20
ENDCHAR
STARTCHAR UPWARDS
ENCODING 8593
SWIDTH 640 0
DWIDTH 6 0
BBX 5 7 0 0
BITMAP
20
70
A8
20
20
20
20
ENDCHAR
STARTCHAR RIGHTWARDS
ENCODING 8594
SWIDTH 640 0
DWIDTH 6 0
BBX 6 5 0 1
BITMAP
10
08
FC
08
10
ENDCHAR
STARTCHAR DOWNWARDS
ENCODING 8595
SWIDTH 640 0
DWIDTH 6 0
BBX 5 7 0 0
BITMAP
20
20
20
20
A8
70
20
ENDCHAR
STARTCHAR LEFT
ENCODING 8596
SWIDTH 640 0
DWIDTH 6 0
BBX 6 3 0 2
BITMAP
48
FC
48
ENDCHAR
STARTCHAR UP
ENCODING 8597
SWIDTH 640 0
DWIDTH 6 0
BBX 5 9 0 -2
BITMAP
20
70
A8
20
20
20
A8
70
20
ENDCHAR
STARTCHAR NORTH
ENCODING 8598
SWIDTH 640 0
DWIDTH 6 0
BBX 5 5 0 0
BITMAP
E0
C0
A0
10
08
ENDCHAR
STARTCHAR NORTH
ENCODING 8599
SWIDTH 640 0
DWIDTH 6 0
BBX 5 5 0 0
BITMAP
38
18
28
40
80
ENDCHAR
STARTCHAR SOUTH
ENCODING 8600
SWIDTH 640 0
DWIDTH 6 0
BBX 5 5 0 0
BITMAP
80
40
28
18
38
ENDCHAR
STARTCHAR SOUTH
ENCODING 8601
SWIDTH 640 0
DWIDTH 6 0
BBX 5 5 0 0
BITMAP
08
10
A0
C0
E0
ENDCHAR
STARTCHAR LEFTWARDS
ENCODING 8602
SWIDTH 640 0
DWIDTH 6 0
BBX 6 3 0 2
BITMAP
50
FC
48
ENDCHAR
STARTCHAR RIGHTWARDS
ENCODING 8603
SWIDTH 640 0
DWIDTH 6 0
BBX 6 3 0 2
BITMAP
28
FC
48
ENDCHAR
STARTCHAR LEFTWARDS
ENCODING 8604
SWIDTH 640 0
DWIDTH 6 0
BBX 6 3 0 1
BITMAP
E0
C8
B4
ENDCHAR
STARTCHAR RIGHTWARDS
ENCODING 8605
SWIDTH 640 0
DWIDTH 6 0
BBX 6 3 0 1
BITMAP
1C
4C
B4
ENDCHAR
STARTCHAR LEFTWARDS
ENCODING 8606
SWIDTH 640 0
DWIDTH 6 0
BBX 6 5 0 1
BITMAP
28
50
FC
50
28
ENDCHAR
STARTCHAR UPWARDS
ENCODING 8607
SWIDTH 640 0
DWIDTH 6 0
BBX 5 7 0 0
BITMAP
20
70
A8
70
A8
20
20
ENDCHAR
STARTCHAR RIGHTWARDS
ENCODING 8608
SWIDTH 640 0
DWIDTH 6 0
BBX 6 5 0 1
BITMAP
50
28
FC
28
50
ENDCHAR
STARTCHAR DOWNWARDS
ENCODING 8609
SWIDTH 640 0
DWIDTH 6 0
BBX 5 7 0 0
BITMAP
20
20
A8
70
A8
70
20
ENDCHAR
STARTCHAR LEFTWARDS
ENCODING 8610
SWIDTH 640 0
DWIDTH 6 0
BBX 6 5 0 1
BITMAP
20
44
F8
44
20
ENDCHAR
STARTCHAR RIGHTWARDS
ENCODING 8611
SWIDTH 640 0
DWIDTH 6 0
BBX 6 5 0 1
BITMAP
10
88
7C
88
10
ENDCHAR
STARTCHAR LEFTWARDS
ENCODING 8612
SWIDTH 640 0
DWIDTH 6 0
BBX 6 5 0 1
BITMAP
24
44
FC
44
24
ENDCHAR
STARTCHAR UPWARDS
ENCODING 8613
SWIDTH 640 0
DWIDTH 6 0
BBX 5 7 0 0
BITMAP
20
70
A8
20
20
20
F8
ENDCHAR
STARTCHAR RIGHTWARDS
ENCODING 8614
SWIDTH 640 0
DWIDTH 6 0
BBX 6 5 0 1
BITMAP
90
88
FC
88
90
ENDCHAR
STARTCHAR DOWNWARDS
ENCODING 8615
SWIDTH 640 0
DWIDTH 6 0
BBX 5 7 0 0
BITMAP
F8
20
20
20
A8
70
20
ENDCHAR
STARTCHAR UP
ENCODING 8616
SWIDTH 640 0
DWIDTH 6 0
BBX 5 9 0 -2
BITMAP
20
70
A8
20
A8
70
20
00
F8
ENDCHAR
STARTCHAR LEFTWARDS
ENCODING 8617
SWIDTH 640 0
DWIDTH 6 0
BBX 6 5 0 1
BITMAP
28
44
F8
40
20
ENDCHAR
STARTCHAR RIGHTWARDS
ENCODING 8618
SWIDTH 640 0
DWIDTH 6 0
BBX 6 5 0 1
BITMAP
50
88
7C
08
10
ENDCHAR
STARTCHAR LEFTWARDS
ENCODING 8619
SWIDTH 640 0
DWIDTH 6 0
BBX 6 5 0 1
BITMAP
28
54
F8
50
20
ENDCHAR
STARTCHAR RIGHTWARDS
ENCODING 8620
SWIDTH 640 0
DWIDTH 6 0
BBX 6 5 0 1
BITMAP
50
A8
7C
28
10
ENDCHAR
STARTCHAR LEFT
ENCODING 8621
SWIDTH 640 0
DWIDTH 6 0
BBX 6 3 0 2
BITMAP
58
FC
68
ENDCHAR
STARTCHAR LEFT
ENCODING 8622
SWIDTH 640 0
DWIDTH 6 0
BBX 6 3 0 2
BITMAP
58
FC
68
ENDCHAR
STARTCHAR DOWNWARDS
ENCODING 8623
SWIDTH 640 0
DWIDTH 6 0
BBX 5 8 0 0
BITMAP
08
10
20
78
10
A0
C0
E0
ENDCHAR
STARTCHAR UPWARDS
ENCODING 8624
SWIDTH 640 0
DWIDTH 6 0
BBX 6 9 0 0
BITMAP
20
40
FC
44
24
04
04
04
04
ENDCHAR
STARTCHAR UPWARDS
ENCODING 8625
SWIDTH 640 0
DWIDTH 6 0
BBX 6 9 0 0
BITMAP
10
08
FC
88
90
80
80
80
80
ENDCHAR
STARTCHAR DOWNWARDS
ENCODING 8626
SWIDTH 640 0
DWIDTH 6 0
BBX 6 9 0 0
BITMAP
04
04
04
04
24
44
FC
40
20
ENDCHAR
STARTCHAR DOWNWARDS
ENCODING 8627
SWIDTH 640 0
DWIDTH 6 0
BBX 6 9 0 -1
BITMAP
80
80
80
80
90
88
FC
08
10
ENDCHAR
STARTCHAR RIGHTWARDS
ENCODING 8628
SWIDTH 640 0
DWIDTH 6 0
BBX 5 6 0 0
BITMAP
E0
20
20
A8
70
20
ENDCHAR
STARTCHAR DOWNWARDS
ENCODING 8629
SWIDTH 640 0
DWIDTH 6 0
BBX 6 7 0 0
BITMAP
04
04
24
44
FC
40
20
ENDCHAR
STARTCHAR ANTICLOCKWISE
ENCODING 8630
SWIDTH 640 0
DWIDTH 6 0
BBX 6 6 0 0
BITMAP
18
24
20
A8
70
20
ENDCHAR
STARTCHAR CLOCKWISE
ENCODING 8631
SWIDTH 640 0
DWIDTH 6 0
BBX 6 6 0 0
BITMAP
60
90
10
54
38
10
ENDCHAR
STARTCHAR NORTH
ENCODING 8632
SWIDTH 640 0
DWIDTH 6 0
BBX 5 7 0 0
BITMAP
F8
00
E0
C0
A0
10
08
ENDCHAR
STARTCHAR LEFTWARDS
ENCODING 8633
SWIDTH 640 0
DWIDTH 6 0
BBX 6 9 0 -1
BITMAP
24
14
FC
14
B4
A4
FC
A0
90
ENDCHAR
STARTCHAR ANTICLOCKWISE
ENCODING 8634
SWIDTH 640 0
DWIDTH 6 0
BBX 5 6 0 0
BITMAP
38
30
A8
88
88
70
ENDCHAR
STARTCHAR CLOCKWISE
ENCODING 8635
SWIDTH 640 0
DWIDTH 6 0
BBX 5 6 0 0
BITMAP
E0
60
A8
88
88
70
ENDCHAR
STARTCHAR LEFTWARDS
ENCODING 8636
SWIDTH 640 0
DWIDTH 6 0
BBX 6 3 0 3
BITMAP
20
40
FC
ENDCHAR
STARTCHAR LEFTWARDS
ENCODING 8637
SWIDTH 640 0
DWIDTH 6 0
BBX 6 3 0 1
BITMAP
FC
40
20
ENDCHAR
STARTCHAR UPWARDS
ENCODING 8638
SWIDTH 640 0
DWIDTH 6 0
BBX 3 7 2 0
BITMAP
80
C0
A0
80
80
80
80
ENDCHAR
STARTCHAR UPWARDS
ENCODING 8639
SWIDTH 640 0
DWIDTH 6 0
BBX 3 7 0 0
BITMAP
20
60
A0
20
20
20
20
ENDCHAR
STARTCHAR RIGHTWARDS
ENCODING 8640
SWIDTH 640 0
DWIDTH 6 0
BBX 6 3 0 3
BITMAP
10
08
FC
ENDCHAR
STARTCHAR RIGHTWARDS
ENCODING 8641
SWIDTH 640 0
DWIDTH 6 0
BBX 6 3 0 1
BITMAP
FC
08
10
ENDCHAR
STARTCHAR DOWNWARDS
ENCODING 8642
SWIDTH 640 0
DWIDTH 6 0
BBX 3 7 2 0
BITMAP
80
80
80
80
A0
C0
80
ENDCHAR
STARTCHAR DOWNWARDS
ENCODING 8643
SWIDTH 640 0
DWIDTH 6 0
BBX 3 7 0 0
BITMAP
20
20
20
20
A0
60
20
ENDCHAR
STARTCHAR RIGHTWARDS
ENCODING 8644
SWIDTH 640 0
DWIDTH 6 0
BBX 6 9 0 -1
BITMAP
10
08
FC
08
30
40
FC
40
20
ENDCHAR
STARTCHAR UPWARDS
ENCODING 8645
SWIDTH 640 0
DWIDTH 6 0
BBX 6 7 0 0
BITMAP
48
E8
48
48
48
5C
48
ENDCHAR
STARTCHAR LEFTWARDS
ENCODING 8646
SWIDTH 640 0
DWIDTH 6 0
BBX 6 9 0 -1
BITMAP
20
40
FC
40
30
08
FC
08
10
ENDCHAR
STARTCHAR LEFTWARDS
ENCODING 8647
SWIDTH 640 0
DWIDTH 6 0
BBX 6 9 0 -1
BITMAP
20
40
FC
40
20
40
FC
40
20
ENDCHAR
STARTCHAR UPWARDS
ENCODING 8648
SWIDTH 640 0
DWIDTH 6 0
BBX 6 7 0 0
BITMAP
48
FC
48
48
48
48
48
ENDCHAR
STARTCHAR RIGHTWARDS
ENCODING 8649
SWIDTH 640 0
DWIDTH 6 0
BBX 6 9 0 -1
BITMAP
10
08
FC
08
10
08
FC
08
10
ENDCHAR
STARTCHAR DOWNWARDS
ENCODING 8650
SWIDTH 640 0
DWIDTH 6 0
BBX 6 7 0 0
BITMAP
48
48
48
48
48
FC
48
ENDCHAR
STARTCHAR LEFTWARDS
ENCODING 8651
SWIDTH 640 0
DWIDTH 6 0
BBX 6 7 0 -1
BITMAP
20
40
FC
00
FC
08
10
ENDCHAR
STARTCHAR RIGHTWARDS
ENCODING 8652
SWIDTH 640 0
DWIDTH 6 0
BBX 6 7 0 -1
BITMAP
10
08
FC
00
FC
40
20
ENDCHAR
STARTCHAR LEFTWARDS
ENCODING 8656
SWIDTH 640 0
DWIDTH 6 0
BBX 6 5 0 -1
BITMAP
20
7C
80
7C
20
ENDCHAR
STARTCHAR UPWARDS
ENCODING 8670
SWIDTH 640 0
DWIDTH 6 0
BBX 5 9 0 0
BITMAP
20
70
A8
20
20
F8
20
F8
20
ENDCHAR
STARTCHAR DOWNWARDS
ENCODING 8671
SWIDTH 640 0
DWIDTH 6 0
BBX 5 9 0 0
BITMAP
20
F8
20
F8
20
20
A8
70
20
ENDCHAR
STARTCHAR RIGHTWARDS
ENCODING 8677
SWIDTH 640 0
DWIDTH 6 0
BBX 5 5 0 0
BITMAP
28
18
F8
18
28
ENDCHAR
STARTCHAR UPWARDS
ENCODING 8679
SWIDTH 640 0
DWIDTH 6 0
BBX 5 6 0 0
BITMAP
20
50
D8
50
50
70
ENDCHAR
STARTCHAR UPWARDS
ENCODING 8686
SWIDTH 640 0
DWIDTH 6 0
BBX 5 8 0 0
BITMAP
20
50
F8
50
D8
50
50
70
ENDCHAR
STARTCHAR NORTH
ENCODING 8689
SWIDTH 640 0
DWIDTH 6 0
BBX 6 6 0 0
BITMAP
FC
80
B8
B0
A8
84
ENDCHAR
STARTCHAR SOUTH
ENCODING 8690
SWIDTH 640 0
DWIDTH 6 0
BBX 6 6 0 0
BITMAP
84
54
34
74
04
FC
ENDCHAR
STARTCHAR DOWNWARDS
ENCODING 8693
SWIDTH 640 0
DWIDTH 6 0
BBX 6 7 0 0
BITMAP
48
E8
48
48
48
5C
48
ENDCHAR
STARTCHAR THREE
ENCODING 8694
SWIDTH 640 0
DWIDTH 6 0
BBX 5 11 0 -2
BITMAP
10
F8
10
00
10
F8
10
00
10
F8
10
ENDCHAR
STARTCHAR LEFTWARDS
ENCODING 8695
SWIDTH 640 0
DWIDTH 6 0
BBX 6 3 0 2
BITMAP
50
FC
50
ENDCHAR
STARTCHAR RIGHTWARDS
ENCODING 8696
SWIDTH 640 0
DWIDTH 6 0
BBX 6 3 0 2
BITMAP
28
FC
28
ENDCHAR
STARTCHAR LEFTWARDS
ENCODING 8701
SWIDTH 640 0
DWIDTH 6 0
BBX 6 3 0 2
BITMAP
40
BC
40
ENDCHAR
STARTCHAR RIGHTWARDS
ENCODING 8702
SWIDTH 640 0
DWIDTH 6 0
BBX 6 3 0 2
BITMAP
08
F4
08
ENDCHAR
STARTCHAR LEFT
ENCODING 8703
SWIDTH 640 0
DWIDTH 6 0
BBX 6 3 0 2
BITMAP
48
B4
48
ENDCHAR
STARTCHAR FOR
ENCODING 8704
SWIDTH 640 0
DWIDTH 6 0
BBX 5 7 0 0
BITMAP
88
88
F8
50
50
20
20
ENDCHAR
STARTCHAR COMPLEMENT
ENCODING 8705
SWIDTH 640 0
DWIDTH 6 0
BBX 5 7 0 0
BITMAP
70
88
88
80
88
88
70
ENDCHAR
STARTCHAR PARTIAL
ENCODING 8706
SWIDTH 640 0
DWIDTH 6 0
BBX 4 7 1 0
BITMAP
40
20
30
50
90
90
60
ENDCHAR
STARTCHAR THERE
ENCODING 8707
SWIDTH 640 0
DWIDTH 6 0
BBX 5 7 0 0
BITMAP
F8
08
08
78
08
08
F8
ENDCHAR
STARTCHAR THERE
ENCODING 8708
SWIDTH 640 0
DWIDTH 6 0
BBX 5 11 0 -2
BITMAP
08
08
F8
18
18
78
28
28
F8
40
40
ENDCHAR
STARTCHAR EMPTY
ENCODING 8709
SWIDTH 640 0
DWIDTH 6 0
BBX 7 7 -1 0
BITMAP
3A
44
4C
54
64
44
B8
ENDCHAR
STARTCHAR INCREMENT
ENCODING 8710
SWIDTH 640 0
DWIDTH 6 0
BBX 5 6 0 0
BITMAP
20
20
50
50
88
F8
ENDCHAR
STARTCHAR NABLA
ENCODING 8711
SWIDTH 640 0
DWIDTH 6 0
BBX 5 6 0 0
BITMAP
F8
88
50
50
20
20
ENDCHAR
STARTCHAR ELEMENT
ENCODING 8712
SWIDTH 640 0
DWIDTH 6 0
BBX 5 7 0 0
BITMAP
38
40
80
F0
80
40
38
ENDCHAR
STARTCHAR NOT
ENCODING 8713
SWIDTH 640 0
DWIDTH 6 0
BBX 5 11 0 -2
BITMAP
08
08
38
50
90
F0
A0
60
78
40
40
ENDCHAR
STARTCHAR SMALL
ENCODING 8714
SWIDTH 640 0
DWIDTH 6 0
BBX 5 5 0 0
BITMAP
78
80
F0
80
78
ENDCHAR
STARTCHAR CONTAINS
ENCODING 8715
SWIDTH 640 0
DWIDTH 6 0
BBX 5 7 0 0
BITMAP
E0
10
08
78
08
10
E0
ENDCHAR
STARTCHAR DOES
ENCODING 8716
SWIDTH 640 0
DWIDTH 6 0
BBX 5 11 0 -2
BITMAP
80
80
E0
50
48
78
28
30
F0
10
10
ENDCHAR
STARTCHAR SMALL
ENCODING 8717
SWIDTH 640 0
DWIDTH 6 0
BBX 5 5 0 0
BITMAP
F0
08
78
08
F0
ENDCHAR
STARTCHAR N-ARY
ENCODING 8719
SWIDTH 640 0
DWIDTH 6 0
BBX 6 7 0 0
BITMAP
FC
48
48
48
48
48
48
ENDCHAR
STARTCHAR N-ARY
ENCODING 8720
SWIDTH 640 0
DWIDTH 6 0
BBX 6 7 0 0
BITMAP
48
48
48
48
48
48
FC
ENDCHAR
STARTCHAR N-ARY
ENCODING 8721
SWIDTH 640 0
DWIDTH 6 0
BBX 5 7 0 0
BITMAP
F8
48
20
10
20
48
F8
ENDCHAR
STARTCHAR MINUS
ENCODING 8722
SWIDTH 640 0
DWIDTH 6 0
BBX 5 1 0 2
BITMAP
F8
ENDCHAR
STARTCHAR MINUS-OR-PLUS
ENCODING 8723
SWIDTH 640 0
DWIDTH 6 0
BBX 5 7 0 0
BITMAP
F8
00
20
20
F8
20
20
ENDCHAR
STARTCHAR DOT
ENCODING 8724
SWIDTH 640 0
DWIDTH 6 0
BBX 5 9 0 0
BITMAP
20
70
20
00
20
20
F8
20
20
ENDCHAR
STARTCHAR DIVISION
ENCODING 8725
SWIDTH 640 0
DWIDTH 6 0
BBX 5 10 0 -2
BITMAP
08
08
10
10
20
20
40
40
80
80
ENDCHAR
STARTCHAR SQUARE
ENCODING 8730
SWIDTH 640 0
DWIDTH 6 0
BBX 5 8 0 -1
BITMAP
08
08
08
10
D0
50
20
20
ENDCHAR
STARTCHAR CUBE
ENCODING 8731
SWIDTH 640 0
DWIDTH 6 0
BBX 6 10 0 -1
BITMAP
C0
20
C4
24
C8
08
D0
50
20
20
ENDCHAR
STARTCHAR FOURTH
ENCODING 8732
SWIDTH 640 0
DWIDTH 6 0
BBX 6 10 0 -1
BITMAP
80
A0
E4
24
28
08
D0
50
20
20
ENDCHAR
STARTCHAR PROPORTIONAL
ENCODING 8733
SWIDTH 640 0
DWIDTH 6 0
BBX 4 3 0 2
BITMAP
D0
A0
D0
ENDCHAR
STARTCHAR INFINITY
ENCODING 8734
SWIDTH 640 0
DWIDTH 6 0
BBX 5 3 0 2
BITMAP
D8
A8
D8
ENDCHAR
STARTCHAR DIVIDES
ENCODING 8739
SWIDTH 640 0
DWIDTH 6 0
BBX 1 7 2 0
BITMAP
80
80
80
80
80
80
80
ENDCHAR
STARTCHAR INTERSECTION
ENCODING 8745
SWIDTH 640 0
DWIDTH 6 0
BBX 5 5 0 0
BITMAP
70
88
88
88
88
ENDCHAR
STARTCHAR INTEGRAL
ENCODING 8747
SWIDTH 640 0
DWIDTH 6 0
BBX 5 11 0 -2
BITMAP
18
20
20
20
20
20
20
20
20
20
C0
ENDCHAR
STARTCHAR THEREFORE
ENCODING 8756
SWIDTH 640 0
DWIDTH 6 0
BBX 5 5 0 0
BITMAP
20
00
00
00
88
ENDCHAR
STARTCHAR ALMOST
ENCODING 8776
SWIDTH 640 0
DWIDTH 6 0
BBX 5 4 0 1
BITMAP
68
90
68
90
ENDCHAR
STARTCHAR RING
ENCODING 8790
SWIDTH 640 0
DWIDTH 6 0
BBX 5 3 0 2
BITMAP
F8
50
F8
ENDCHAR
STARTCHAR NOT
ENCODING 8800
SWIDTH 640 0
DWIDTH 6 0
BBX 5 5 0 1
BITMAP
10
F8
20
F8
40
ENDCHAR
STARTCHAR LESS-THAN
ENCODING 8804
SWIDTH 640 0
DWIDTH 6 0
BBX 4 9 1 0
BITMAP
10
20
40
80
40
20
10
00
F0
ENDCHAR
STARTCHAR GREATER-THAN
ENCODING 8805
SWIDTH 640 0
DWIDTH 6 0
BBX 4 9 1 0
BITMAP
80
40
20
10
20
40
80
00
F0
ENDCHAR
STARTCHAR LESS-THAN
ENCODING 8806
SWIDTH 640 0
DWIDTH 6 0
BBX 4 11 1 -2
BITMAP
10
20
40
80
40
20
10
00
F0
00
F0
ENDCHAR
STARTCHAR GREATER-THAN
ENCODING 8807
SWIDTH 640 0
DWIDTH 6 0
BBX 4 11 1 -2
BITMAP
80
40
20
10
20
40
80
00
F0
00
F0
ENDCHAR
STARTCHAR SUPERSET
ENCODING 8835
SWIDTH 640 0
DWIDTH 6 0
BBX 5 5 0 0
BITMAP
F0
08
08
08
F0
ENDCHAR
STARTCHAR SUBSET
ENCODING 8838
SWIDTH 640 0
DWIDTH 6 0
BBX 5 6 0 0
BITMAP
78
80
80
78
00
F8
ENDCHAR
STARTCHAR CIRCLED
ENCODING 8853
SWIDTH 640 0
DWIDTH 6 0
BBX 5 5 0 1
BITMAP
70
A8
F8
A8
70
ENDCHAR
STARTCHAR CIRCLED
ENCODING 8854
SWIDTH 640 0
DWIDTH 6 0
BBX 5 5 0 1
BITMAP
70
88
F8
88
70
ENDCHAR
STARTCHAR CIRCLED
ENCODING 8855
SWIDTH 640 0
DWIDTH 6 0
BBX 5 5 0 1
BITMAP
70
D8
A8
D8
70
ENDCHAR
STARTCHAR CIRCLED
ENCODING 8856
SWIDTH 640 0
DWIDTH 6 0
BBX 5 5 0 1
BITMAP
70
98
A8
C8
70
ENDCHAR
STARTCHAR CIRCLED
ENCODING 8857
SWIDTH 640 0
DWIDTH 6 0
BBX 5 5 0 1
BITMAP
70
88
A8
88
70
ENDCHAR
STARTCHAR HOUSE
ENCODING 8962
SWIDTH 640 0
DWIDTH 6 0
BBX 5 5 0 0
BITMAP
20
50
88
88
F8
ENDCHAR
STARTCHAR ARC
ENCODING 8978
SWIDTH 640 0
DWIDTH 6 0
BBX 5 2 0 3
BITMAP
70
88
ENDCHAR
STARTCHAR FROWN
ENCODING 8994
SWIDTH 640 0
DWIDTH 6 0
BBX 6 2 0 2
BITMAP
78
84
ENDCHAR
STARTCHAR SMILE
ENCODING 8995
SWIDTH 640 0
DWIDTH 6 0
BBX 6 2 0 2
BITMAP
84
78
ENDCHAR
STARTCHAR ERASE
ENCODING 8998
SWIDTH 640 0
DWIDTH 6 0
BBX 6 5 0 0
BITMAP
10
18
FC
18
10
ENDCHAR
STARTCHAR ERASE
ENCODING 9003
SWIDTH 640 0
DWIDTH 6 0
BBX 6 5 0 0
BITMAP
20
60
FC
60
20
ENDCHAR
STARTCHAR INSERTION
ENCODING 9088
SWIDTH 640 0
DWIDTH 6 0
BBX 5 11 0 -2
BITMAP
78
88
88
98
68
00
88
50
50
20
20
ENDCHAR
STARTCHAR HELM
ENCODING 9096
SWIDTH 640 0
DWIDTH 6 0
BBX 5 5 0 0
BITMAP
A8
70
F8
70
A8
ENDCHAR
STARTCHAR BROKEN
ENCODING 9099
SWIDTH 640 0
DWIDTH 6 0
BBX 5 5 0 0
BITMAP
D0
C8
28
88
70
ENDCHAR
STARTCHAR BLACK
ENCODING 9193
SWIDTH 640 0
DWIDTH 6 0
BBX 6 5 0 1
BITMAP
90
D8
FC
D8
90
ENDCHAR
STARTCHAR BLACK
ENCODING 9194
SWIDTH 640 0
DWIDTH 6 0
BBX 6 5 0 1
BITMAP
24
6C
FC
6C
24
ENDCHAR
STARTCHAR BLACK
ENCODING 9195
SWIDTH 640 0
DWIDTH 6 0
BBX 5 6 0 0
BITMAP
20
70
F8
20
70
F8
ENDCHAR
STARTCHAR BLACK
ENCODING 9196
SWIDTH 640 0
DWIDTH 6 0
BBX 5 6 0 0
BITMAP
F8
70
20
F8
70
20
ENDCHAR
STARTCHAR BLACK
ENCODING 9197
SWIDTH 640 0
DWIDTH 6 0
BBX 6 5 0 1
BITMAP
94
DC
FC
DC
94
ENDCHAR
STARTCHAR BLACK
ENCODING 9198
SWIDTH 640 0
DWIDTH 6 0
BBX 6 5 0 1
BITMAP
A4
EC
FC
EC
A4
ENDCHAR
STARTCHAR BLACK
ENCODING 9199
SWIDTH 640 0
DWIDTH 6 0
BBX 6 5 0 1
BITMAP
94
D4
F4
D4
94
ENDCHAR
STARTCHAR OPEN
ENCODING 9251
SWIDTH 640 0
DWIDTH 6 0
BBX 5 3 0 -1
BITMAP
88
88
F8
ENDCHAR
STARTCHAR CIRCLED
ENCODING 9312
SWIDTH 640 0
DWIDTH 6 0
BBX 5 9 0 -1
BITMAP
70
88
A8
E8
A8
A8
F8
88
70
ENDCHAR
STARTCHAR CIRCLED
ENCODING 9313
SWIDTH 640 0
DWIDTH 6 0
BBX 5 9 0 -1
BITMAP
70
88
A8
D8
98
A8
F8
88
70
ENDCHAR
STARTCHAR CIRCLED
ENCODING 9314
SWIDTH 640 0
DWIDTH 6 0
BBX 5 9 0 -1
BITMAP
70
88
E8
98
A8
98
E8
88
70
ENDCHAR
STARTCHAR CIRCLED
ENCODING 9315
SWIDTH 640 0
DWIDTH 6 0
BBX 5 9 0 -1
BITMAP
70
88
C8
C8
E8
F8
A8
88
70
ENDCHAR
STARTCHAR CIRCLED
ENCODING 9316
SWIDTH 640 0
DWIDTH 6 0
BBX 5 9 0 -1
BITMAP
70
88
F8
C8
E8
98
E8
88
70
ENDCHAR
STARTCHAR CIRCLED
ENCODING 9317
SWIDTH 640 0
DWIDTH 6 0
BBX 5 9 0 -1
BITMAP
70
88
B8
C8
E8
D8
A8
88
70
ENDCHAR
STARTCHAR CIRCLED
ENCODING 9318
SWIDTH 640 0
DWIDTH 6 0
BBX 5 9 0 -1
BITMAP
70
88
F8
98
98
A8
A8
88
70
ENDCHAR
STARTCHAR CIRCLED
ENCODING 9319
SWIDTH 640 0
DWIDTH 6 0
BBX 5 9 0 -1
BITMAP
70
88
A8
D8
A8
D8
A8
88
70
ENDCHAR
STARTCHAR CIRCLED
ENCODING 9320
SWIDTH 640 0
DWIDTH 6 0
BBX 5 9 0 -1
BITMAP
70
88
A8
D8
B8
98
E8
88
70
ENDCHAR
STARTCHAR CIRCLED
ENCODING 9321
SWIDTH 640 0
DWIDTH 6 0
BBX 6 9 0 -1
BITMAP
78
84
D4
EC
EC
EC
D4
84
78
ENDCHAR
STARTCHAR CIRCLED
ENCODING 9322
SWIDTH 640 0
DWIDTH 6 0
BBX 6 9 0 -1
BITMAP
78
84
D4
D4
D4
D4
D4
84
78
ENDCHAR
STARTCHAR CIRCLED
ENCODING 9323
SWIDTH 640 0
DWIDTH 6 0
BBX 6 9 0 -1
BITMAP
78
84
D4
CC
CC
D4
DC
84
78
ENDCHAR
STARTCHAR CIRCLED
ENCODING 9324
SWIDTH 640 0
DWIDTH 6 0
BBX 6 9 0 -1
BITMAP
78
84
D4
CC
D4
CC
D4
84
78
ENDCHAR
STARTCHAR CIRCLED
ENCODING 9325
SWIDTH 640 0
DWIDTH 6 0
BBX 6 9 0 -1
BITMAP
78
84
D4
D4
DC
DC
CC
84
78
ENDCHAR
STARTCHAR CIRCLED
ENCODING 9326
SWIDTH 640 0
DWIDTH 6 0
BBX 6 9 0 -1
BITMAP
78
84
DC
D4
DC
CC
D4
84
78
ENDCHAR
STARTCHAR CIRCLED
ENCODING 9327
SWIDTH 640 0
DWIDTH 6 0
BBX 6 9 0 -1
BITMAP
78
84
D4
D4
DC
D4
CC
84
78
ENDCHAR
STARTCHAR CIRCLED
ENCODING 9328
SWIDTH 640 0
DWIDTH 6 0
BBX 6 9 0 -1
BITMAP
78
84
DC
CC
CC
D4
D4
84
78
ENDCHAR
STARTCHAR CIRCLED
ENCODING 9329
SWIDTH 640 0
DWIDTH 6 0
BBX 6 9 0 -1
BITMAP
78
84
CC
D4
CC
D4
CC
84
78
ENDCHAR
STARTCHAR CIRCLED
ENCODING 9330
SWIDTH 640 0
DWIDTH 6 0
BBX 6 9 0 -1
BITMAP
78
84
CC
D4
CC
C4
DC
84
78
ENDCHAR
STARTCHAR CIRCLED
ENCODING 9331
SWIDTH 640 0
DWIDTH 6 0
BBX 6 9 0 -1
BITMAP
78
84
CC
B4
B4
D4
EC
84
78
ENDCHAR
STARTCHAR PARENTHESIZED
ENCODING 9332
SWIDTH 640 0
DWIDTH 6 0
BBX 5 9 0 -1
BITMAP
50
88
A8
E8
A8
A8
F8
88
50
ENDCHAR
STARTCHAR PARENTHESIZED
ENCODING 9333
SWIDTH 640 0
DWIDTH 6 0
BBX 5 9 0 -1
BITMAP
50
88
A8
D8
98
A8
F8
88
50
ENDCHAR
STARTCHAR PARENTHESIZED
ENCODING 9334
SWIDTH 640 0
DWIDTH 6 0
BBX 5 9 0 -1
BITMAP
50
88
E8
98
A8
98
E8
88
50
ENDCHAR
STARTCHAR PARENTHESIZED
ENCODING 9335
SWIDTH 640 0
DWIDTH 6 0
BBX 5 9 0 -1
BITMAP
50
88
C8
E8
E8
F8
A8
88
50
ENDCHAR
STARTCHAR PARENTHESIZED
ENCODING 9336
SWIDTH 640 0
DWIDTH 6 0
BBX 5 9 0 -1
BITMAP
50
88
F8
C8
E8
98
E8
88
50
ENDCHAR
STARTCHAR PARENTHESIZED
ENCODING 9337
SWIDTH 640 0
DWIDTH 6 0
BBX 5 9 0 -1
BITMAP
50
88
B8
C8
E8
D8
A8
88
50
ENDCHAR
STARTCHAR PARENTHESIZED
ENCODING 9338
SWIDTH 640 0
DWIDTH 6 0
BBX 5 9 0 -1
BITMAP
50
88
F8
98
98
A8
A8
88
50
ENDCHAR
STARTCHAR PARENTHESIZED
ENCODING 9339
SWIDTH 640 0
DWIDTH 6 0
BBX 5 9 0 -1
BITMAP
50
88
A8
D8
A8
D8
A8
88
50
ENDCHAR
STARTCHAR PARENTHESIZED
ENCODING 9340
SWIDTH 640 0
DWIDTH 6 0
BBX 5 9 0 -1
BITMAP
50
88
A8
D8
B8
98
E8
88
50
ENDCHAR
STARTCHAR PARENTHESIZED
ENCODING 9341
SWIDTH 640 0
DWIDTH 6 0
BBX 6 9 0 -1
BITMAP
48
84
D4
EC
EC
EC
D4
84
48
ENDCHAR
STARTCHAR PARENTHESIZED
ENCODING 9342
SWIDTH 640 0
DWIDTH 6 0
BBX 6 9 0 -1
BITMAP
48
84
D4
D4
D4
D4
D4
84
48
ENDCHAR
STARTCHAR PARENTHESIZED
ENCODING 9343
SWIDTH 640 0
DWIDTH 6 0
BBX 6 9 0 -1
BITMAP
48
84
D4
CC
CC
D4
DC
84
48
ENDCHAR
STARTCHAR PARENTHESIZED
ENCODING 9344
SWIDTH 640 0
DWIDTH 6 0
BBX 6 9 0 -1
BITMAP
48
84
D4
CC
D4
CC
D4
84
48
ENDCHAR
STARTCHAR PARENTHESIZED
ENCODING 9345
SWIDTH 640 0
DWIDTH 6 0
BBX 6 9 0 -1
BITMAP
48
84
D4
D4
DC
DC
CC
84
48
ENDCHAR
STARTCHAR PARENTHESIZED
ENCODING 9346
SWIDTH 640 0
DWIDTH 6 0
BBX 6 9 0 -1
BITMAP
48
84
DC
D4
DC
CC
D4
84
48
ENDCHAR
STARTCHAR PARENTHESIZED
ENCODING 9347
SWIDTH 640 0
DWIDTH 6 0
BBX 6 9 0 -1
BITMAP
48
84
D4
D4
DC
D4
CC
84
48
ENDCHAR
STARTCHAR PARENTHESIZED
ENCODING 9348
SWIDTH 640 0
DWIDTH 6 0
BBX 6 9 0 -1
BITMAP
48
84
DC
CC
CC
D4
D4
84
48
ENDCHAR
STARTCHAR PARENTHESIZED
ENCODING 9349
SWIDTH 640 0
DWIDTH 6 0
BBX 6 9 0 -1
BITMAP
48
84
CC
D4
CC
D4
CC
84
48
ENDCHAR
STARTCHAR PARENTHESIZED
ENCODING 9350
SWIDTH 640 0
DWIDTH 6 0
BBX 6 9 0 -1
BITMAP
48
84
CC
D4
CC
C4
DC
84
48
ENDCHAR
STARTCHAR PARENTHESIZED
ENCODING 9351
SWIDTH 640 0
DWIDTH 6 0
BBX 6 9 0 -1
BITMAP
48
84
CC
B4
B4
D4
EC
84
48
ENDCHAR
STARTCHAR DIGIT
ENCODING 9352
SWIDTH 640 0
DWIDTH 6 0
BBX 5 7 0 0
BITMAP
40
C0
40
40
40
40
E8
ENDCHAR
STARTCHAR DIGIT
ENCODING 9353
SWIDTH 640 0
DWIDTH 6 0
BBX 5 7 0 0
BITMAP
40
A0
20
40
40
80
E8
ENDCHAR
STARTCHAR DIGIT
ENCODING 9354
SWIDTH 640 0
DWIDTH 6 0
BBX 5 7 0 0
BITMAP
C0
20
20
C0
20
20
C8
ENDCHAR
STARTCHAR DIGIT
ENCODING 9355
SWIDTH 640 0
DWIDTH 6 0
BBX 6 7 0 0
BITMAP
10
30
50
90
F8
10
14
ENDCHAR
STARTCHAR DIGIT
ENCODING 9356
SWIDTH 640 0
DWIDTH 6 0
BBX 6 7 0 0
BITMAP
F0
80
E0
10
10
90
64
ENDCHAR
STARTCHAR DIGIT
ENCODING 9357
SWIDTH 640 0
DWIDTH 6 0
BBX 6 7 0 0
BITMAP
60
80
E0
90
90
90
64
ENDCHAR
STARTCHAR DIGIT
ENCODING 9358
SWIDTH 640 0
DWIDTH 6 0
BBX 6 7 0 0
BITMAP
F8
08
08
10
20
20
24
ENDCHAR
STARTCHAR DIGIT
ENCODING 9359
SWIDTH 640 0
DWIDTH 6 0
BBX 6 7 0 0
BITMAP
60
90
90
60
90
90
64
ENDCHAR
STARTCHAR DIGIT
ENCODING 9360
SWIDTH 640 0
DWIDTH 6 0
BBX 6 7 0 0
BITMAP
60
90
90
90
70
10
64
ENDCHAR
STARTCHAR NUMBER
ENCODING 9361
SWIDTH 640 0
DWIDTH 6 0
BBX 6 7 0 0
BITMAP
90
A8
A8
A8
A8
A8
94
ENDCHAR
STARTCHAR NUMBER
ENCODING 9362
SWIDTH 640 0
DWIDTH 6 0
BBX 6 7 0 0
BITMAP
90
90
90
90
90
90
94
ENDCHAR
STARTCHAR NUMBER
ENCODING 9363
SWIDTH 640 0
DWIDTH 6 0
BBX 6 7 0 0
BITMAP
A0
90
90
90
A0
A0
B4
ENDCHAR
STARTCHAR NUMBER
ENCODING 9364
SWIDTH 640 0
DWIDTH 6 0
BBX 6 7 0 0
BITMAP
B0
88
88
B0
88
88
B4
ENDCHAR
STARTCHAR NUMBER
ENCODING 9365
SWIDTH 640 0
DWIDTH 6 0
BBX 6 7 0 0
BITMAP
A0
A0
B0
B0
B8
90
94
ENDCHAR
STARTCHAR NUMBER
ENCODING 9366
SWIDTH 640 0
DWIDTH 6 0
BBX 6 7 0 0
BITMAP
B8
A0
B0
88
88
A8
94
ENDCHAR
STARTCHAR NUMBER
ENCODING 9367
SWIDTH 640 0
DWIDTH 6 0
BBX 6 7 0 0
BITMAP
90
A0
B0
A8
A8
A8
94
ENDCHAR
STARTCHAR NUMBER
ENCODING 9368
SWIDTH 640 0
DWIDTH 6 0
BBX 6 7 0 0
BITMAP
B8
88
88
90
90
90
94
ENDCHAR
STARTCHAR NUMBER
ENCODING 9369
SWIDTH 640 0
DWIDTH 6 0
BBX 6 7 0 0
BITMAP
90
A8
A8
90
A8
A8
94
ENDCHAR
STARTCHAR NUMBER
ENCODING 9370
SWIDTH 640 0
DWIDTH 6 0
BBX 6 7 0 0
BITMAP
90
A8
A8
A8
98
88
94
ENDCHAR
STARTCHAR NUMBER
ENCODING 9371
SWIDTH 640 0
DWIDTH 6 0
BBX 6 7 0 0
BITMAP
90
68
68
68
A8
A8
D4
ENDCHAR
STARTCHAR PARENTHESIZED
ENCODING 9372
SWIDTH 640 0
DWIDTH 6 0
BBX 5 9 0 -1
BITMAP
50
88
A8
98
B8
D8
B8
88
50
ENDCHAR
STARTCHAR PARENTHESIZED
ENCODING 9373
SWIDTH 640 0
DWIDTH 6 0
BBX 5 9 0 -1
BITMAP
50
88
C8
C8
E8
D8
E8
88
50
ENDCHAR
STARTCHAR PARENTHESIZED
ENCODING 9374
SWIDTH 640 0
DWIDTH 6 0
BBX 5 9 0 -1
BITMAP
50
88
88
B8
C8
C8
B8
88
50
ENDCHAR
STARTCHAR PARENTHESIZED
ENCODING 9375
SWIDTH 640 0
DWIDTH 6 0
BBX 5 9 0 -1
BITMAP
50
88
98
98
B8
D8
B8
88
50
ENDCHAR
STARTCHAR PARENTHESIZED
ENCODING 9376
SWIDTH 640 0
DWIDTH 6 0
BBX 5 9 0 -1
BITMAP
50
88
A8
D8
F8
C8
A8
88
50
ENDCHAR
STARTCHAR PARENTHESIZED
ENCODING 9377
SWIDTH 640 0
DWIDTH 6 0
BBX 5 9 0 -1
BITMAP
50
88
98
A8
F8
A8
A8
88
50
ENDCHAR
STARTCHAR PARENTHESIZED
ENCODING 9378
SWIDTH 640 0
DWIDTH 6 0
BBX 5 9 0 -1
BITMAP
50
88
B8
D8
B8
98
A8
88
50
ENDCHAR
STARTCHAR PARENTHESIZED
ENCODING 9379
SWIDTH 640 0
DWIDTH 6 0
BBX 5 9 0 -1
BITMAP
50
88
C8
C8
E8
D8
D8
88
50
ENDCHAR
STARTCHAR PARENTHESIZED
ENCODING 9380
SWIDTH 640 0
DWIDTH 6 0
BBX 5 9 0 -1
BITMAP
50
88
A8
88
B8
A8
E8
88
50
ENDCHAR
STARTCHAR PARENTHESIZED
ENCODING 9381
SWIDTH 640 0
DWIDTH 6 0
BBX 5 9 0 -1
BITMAP
50
88
A8
88
A8
A8
C8
88
50
ENDCHAR
STARTCHAR PARENTHESIZED
ENCODING 9382
SWIDTH 640 0
DWIDTH 6 0
BBX 5 9 0 -1
BITMAP
50
88
C8
C8
D8
E8
D8
88
50
ENDCHAR
STARTCHAR PARENTHESIZED
ENCODING 9383
SWIDTH 640 0
DWIDTH 6 0
BBX 5 9 0 -1
BITMAP
50
88
B8
A8
A8
A8
E8
88
50
ENDCHAR
STARTCHAR PARENTHESIZED
ENCODING 9384
SWIDTH 640 0
DWIDTH 6 0
BBX 5 9 0 -1
BITMAP
50
88
88
D8
F8
D8
D8
88
50
ENDCHAR
STARTCHAR PARENTHESIZED
ENCODING 9385
SWIDTH 640 0
DWIDTH 6 0
BBX 5 9 0 -1
BITMAP
50
88
88
E8
D8
D8
D8
88
50
ENDCHAR
STARTCHAR PARENTHESIZED
ENCODING 9386
SWIDTH 640 0
DWIDTH 6 0
BBX 5 9 0 -1
BITMAP
50
88
88
A8
D8
D8
A8
88
50
ENDCHAR
STARTCHAR PARENTHESIZED
ENCODING 9387
SWIDTH 640 0
DWIDTH 6 0
BBX 5 9 0 -1
BITMAP
50
88
88
E8
D8
E8
C8
88
50
ENDCHAR
STARTCHAR PARENTHESIZED
ENCODING 9388
SWIDTH 640 0
DWIDTH 6 0
BBX 5 9 0 -1
BITMAP
50
88
88
B8
D8
B8
98
88
50
ENDCHAR
STARTCHAR PARENTHESIZED
ENCODING 9389
SWIDTH 640 0
DWIDTH 6 0
BBX 5 9 0 -1
BITMAP
50
88
88
D8
E8
C8
C8
88
50
ENDCHAR
STARTCHAR PARENTHESIZED
ENCODING 9390
SWIDTH 640 0
DWIDTH 6 0
BBX 5 9 0 -1
BITMAP
50
88
88
B8
A8
98
B8
88
50
ENDCHAR
STARTCHAR PARENTHESIZED
ENCODING 9391
SWIDTH 640 0
DWIDTH 6 0
BBX 5 9 0 -1
BITMAP
50
88
A8
A8
F8
A8
98
88
50
ENDCHAR
STARTCHAR PARENTHESIZED
ENCODING 9392
SWIDTH 640 0
DWIDTH 6 0
BBX 5 9 0 -1
BITMAP
50
88
88
88
D8
D8
B8
88
50
ENDCHAR
STARTCHAR PARENTHESIZED
ENCODING 9393
SWIDTH 640 0
DWIDTH 6 0
BBX 5 9 0 -1
BITMAP
50
88
88
88
D8
D8
A8
88
50
ENDCHAR
STARTCHAR PARENTHESIZED
ENCODING 9394
SWIDTH 640 0
DWIDTH 6 0
BBX 5 9 0 -1
BITMAP
50
88
88
D8
D8
F8
D8
88
50
ENDCHAR
STARTCHAR PARENTHESIZED
ENCODING 9395
SWIDTH 640 0
DWIDTH 6 0
BBX 5 9 0 -1
BITMAP
50
88
88
88
D8
A8
D8
88
50
ENDCHAR
STARTCHAR PARENTHESIZED
ENCODING 9396
SWIDTH 640 0
DWIDTH 6 0
BBX 5 9 0 -1
BITMAP
50
88
88
88
D8
A8
A8
C8
50
ENDCHAR
STARTCHAR PARENTHESIZED
ENCODING 9397
SWIDTH 640 0
DWIDTH 6 0
BBX 5 9 0 -1
BITMAP
50
88
88
F8
98
C8
F8
88
50
ENDCHAR
STARTCHAR QUADRANT
ENCODING 9622
SWIDTH 640 0
DWIDTH 6 0
BBX 3 3 0 0
BITMAP
E0
E0
E0
ENDCHAR
STARTCHAR QUADRANT
ENCODING 9623
SWIDTH 640 0
DWIDTH 6 0
BBX 3 3 3 0
BITMAP
E0
E0
E0
ENDCHAR
STARTCHAR QUADRANT
ENCODING 9624
SWIDTH 640 0
DWIDTH 6 0
BBX 3 3 0 3
BITMAP
E0
E0
E0
ENDCHAR
STARTCHAR QUADRANT
ENCODING 9625
SWIDTH 640 0
DWIDTH 6 0
BBX 6 6 0 0
BITMAP
E0
E0
E0
FC
FC
FC
ENDCHAR
STARTCHAR QUADRANT
ENCODING 9626
SWIDTH 640 0
DWIDTH 6 0
BBX 6 6 0 0
BITMAP
E0
E0
E0
1C
1C
1C
ENDCHAR
STARTCHAR QUADRANT
ENCODING 9627
SWIDTH 640 0
DWIDTH 6 0
BBX 6 6 0 0
BITMAP
FC
FC
FC
E0
E0
E0
ENDCHAR
STARTCHAR QUADRANT
ENCODING 9628
SWIDTH 640 0
DWIDTH 6 0
BBX 6 6 0 0
BITMAP
FC
FC
FC
1C
1C
1C
ENDCHAR
STARTCHAR QUADRANT
ENCODING 9629
SWIDTH 640 0
DWIDTH 6 0
BBX 3 3 3 3
BITMAP
E0
E0
E0
ENDCHAR
STARTCHAR QUADRANT
ENCODING 9630
SWIDTH 640 0
DWIDTH 6 0
BBX 6 6 0 0
BITMAP
1C
1C
1C
E0
E0
E0
ENDCHAR
STARTCHAR QUADRANT
ENCODING 9631
SWIDTH 640 0
DWIDTH 6 0
BBX 6 6 0 0
BITMAP
1C
1C
1C
FC
FC
FC
ENDCHAR
STARTCHAR BLACK
ENCODING 9632
SWIDTH 640 0
DWIDTH 6 0
BBX 6 6 0 0
BITMAP
FC
FC
FC
FC
FC
FC
ENDCHAR
STARTCHAR WHITE
ENCODING 9633
SWIDTH 640 0
DWIDTH 6 0
BBX 6 6 0 0
BITMAP
FC
84
84
84
84
FC
ENDCHAR
STARTCHAR WHITE
ENCODING 9634
SWIDTH 640 0
DWIDTH 6 0
BBX 6 6 0 0
BITMAP
78
84
84
84
84
78
ENDCHAR
STARTCHAR WHITE
ENCODING 9635
SWIDTH 640 0
DWIDTH 6 0
BBX 5 5 0 0
BITMAP
F8
88
A8
88
F8
ENDCHAR
STARTCHAR SQUARE
ENCODING 9636
SWIDTH 640 0
DWIDTH 6 0
BBX 5 5 0 0
BITMAP
F8
88
F8
88
F8
ENDCHAR
STARTCHAR SQUARE
ENCODING 9637
SWIDTH 640 0
DWIDTH 6 0
BBX 5 5 0 0
BITMAP
F8
A8
A8
A8
F8
ENDCHAR
STARTCHAR SQUARE
ENCODING 9638
SWIDTH 640 0
DWIDTH 6 0
BBX 5 5 0 0
BITMAP
F8
A8
F8
A8
F8
ENDCHAR
STARTCHAR SQUARE
ENCODING 9639
SWIDTH 640 0
DWIDTH 6 0
BBX 5 5 0 0
BITMAP
F8
C8
A8
98
F8
ENDCHAR
STARTCHAR SQUARE
ENCODING 9640
SWIDTH 640 0
DWIDTH 6 0
BBX 5 5 0 0
BITMAP
F8
98
A8
C8
F8
ENDCHAR
STARTCHAR SQUARE
ENCODING 9641
SWIDTH 640 0
DWIDTH 6 0
BBX 5 5 0 0
BITMAP
F8
A8
D8
A8
F8
ENDCHAR
STARTCHAR BLACK
ENCODING 9642
SWIDTH 640 0
DWIDTH 6 0
BBX 5 5 0 0
BITMAP
F8
F8
F8
F8
F8
ENDCHAR
STARTCHAR WHITE
ENCODING 9643
SWIDTH 640 0
DWIDTH 6 0
BBX 5 5 0 0
BITMAP
F8
88
88
88
F8
ENDCHAR
STARTCHAR BLACK
ENCODING 9644
SWIDTH 640 0
DWIDTH 6 0
BBX 5 3 0 0
BITMAP
F8
F8
F8
ENDCHAR
STARTCHAR WHITE
ENCODING 9645
SWIDTH 640 0
DWIDTH 6 0
BBX 5 3 0 0
BITMAP
F8
88
F8
ENDCHAR
STARTCHAR BLACK
ENCODING 9646
SWIDTH 320 0
DWIDTH 3 0
BBX 3 7 1 0
BITMAP
E0
E0
E0
E0
E0
E0
E0
ENDCHAR
STARTCHAR WHITE
ENCODING 9647
SWIDTH 640 0
DWIDTH 6 0
BBX 4 7 0 0
BITMAP
F0
90
90
90
90
90
F0
ENDCHAR
STARTCHAR BLACK
ENCODING 9648
SWIDTH 640 0
DWIDTH 6 0
BBX 6 3 0 0
BITMAP
7C
FC
F8
ENDCHAR
STARTCHAR WHITE
ENCODING 9649
SWIDTH 640 0
DWIDTH 6 0
BBX 6 3 0 0
BITMAP
7C
84
F8
ENDCHAR
STARTCHAR BLACK
ENCODING 9650
SWIDTH 640 0
DWIDTH 6 0
BBX 5 6 0 0
BITMAP
20
20
70
70
F8
F8
ENDCHAR
STARTCHAR WHITE
ENCODING 9651
SWIDTH 640 0
DWIDTH 6 0
BBX 5 6 0 0
BITMAP
20
20
50
50
88
F8
ENDCHAR
STARTCHAR BLACK
ENCODING 9652
SWIDTH 640 0
DWIDTH 6 0
BBX 5 4 0 0
BITMAP
20
70
F8
F8
ENDCHAR
STARTCHAR WHITE
ENCODING 9653
SWIDTH 640 0
DWIDTH 6 0
BBX 5 4 0 0
BITMAP
20
50
88
F8
ENDCHAR
STARTCHAR BLACK
ENCODING 9654
SWIDTH 640 0
DWIDTH 6 0
BBX 6 5 0 1
BITMAP
C0
F0
FC
F0
C0
ENDCHAR
STARTCHAR WHITE
ENCODING 9655
SWIDTH 640 0
DWIDTH 6 0
BBX 6 5 0 1
BITMAP
C0
B0
8C
B0
C0
ENDCHAR
STARTCHAR BLACK
ENCODING 9656
SWIDTH 640 0
DWIDTH 6 0
BBX 4 5 0 1
BITMAP
C0
E0
F0
E0
C0
ENDCHAR
STARTCHAR WHITE
ENCODING 9657
SWIDTH 640 0
DWIDTH 6 0
BBX 4 5 0 1
BITMAP
C0
A0
90
A0
C0
ENDCHAR
STARTCHAR BLACK
ENCODING 9658
SWIDTH 640 0
DWIDTH 6 0
BBX 6 5 0 1
BITMAP
C0
F0
FC
F0
C0
ENDCHAR
STARTCHAR WHITE
ENCODING 9659
SWIDTH 640 0
DWIDTH 6 0
BBX 6 5 0 1
BITMAP
C0
B0
8C
B0
C0
ENDCHAR
STARTCHAR BLACK
ENCODING 9660
SWIDTH 640 0
DWIDTH 6 0
BBX 5 6 0 0
BITMAP
F8
F8
70
70
20
20
ENDCHAR
STARTCHAR WHITE
ENCODING 9661
SWIDTH 640 0
DWIDTH 6 0
BBX 5 6 0 0
BITMAP
F8
88
50
50
20
20
ENDCHAR
STARTCHAR BLACK
ENCODING 9662
SWIDTH 640 0
DWIDTH 6 0
BBX 5 4 0 0
BITMAP
F8
F8
70
20
ENDCHAR
STARTCHAR WHITE
ENCODING 9663
SWIDTH 640 0
DWIDTH 6 0
BBX 5 4 0 0
BITMAP
F8
88
50
20
ENDCHAR
STARTCHAR BLACK
ENCODING 9664
SWIDTH 640 0
DWIDTH 6 0
BBX 6 5 0 1
BITMAP
0C
3C
FC
3C
0C
ENDCHAR
STARTCHAR WHITE
ENCODING 9665
SWIDTH 640 0
DWIDTH 6 0
BBX 6 5 0 1
BITMAP
0C
34
C4
34
0C
ENDCHAR
STARTCHAR BLACK
ENCODING 9666
SWIDTH 640 0
DWIDTH 6 0
BBX 4 5 0 1
BITMAP
30
70
F0
70
30
ENDCHAR
STARTCHAR WHITE
ENCODING 9667
SWIDTH 640 0
DWIDTH 6 0
BBX 4 5 0 1
BITMAP
30
50
90
50
30
ENDCHAR
STARTCHAR BLACK
ENCODING 9668
SWIDTH 640 0
DWIDTH 6 0
BBX 6 5 0 1
BITMAP
0C
3C
FC
3C
0C
ENDCHAR
STARTCHAR WHITE
ENCODING 9669
SWIDTH 640 0
DWIDTH 6 0
BBX 6 5 0 1
BITMAP
0C
34
C4
34
0C
ENDCHAR
STARTCHAR BLACK
ENCODING 9670
SWIDTH 640 0
DWIDTH 6 0
BBX 5 5 0 1
BITMAP
20
70
F8
70
20
ENDCHAR
STARTCHAR WHITE
ENCODING 9671
SWIDTH 640 0
DWIDTH 6 0
BBX 5 5 0 1
BITMAP
20
50
88
50
20
ENDCHAR
STARTCHAR WHITE
ENCODING 9672
SWIDTH 640 0
DWIDTH 6 0
BBX 5 5 0 1
BITMAP
20
50
A8
50
20
ENDCHAR
STARTCHAR FISHEYE
ENCODING 9673
SWIDTH 640 0
DWIDTH 6 0
BBX 5 5 0 1
BITMAP
70
88
A8
88
70
ENDCHAR
STARTCHAR LOZENGE
ENCODING 9674
SWIDTH 640 0
DWIDTH 6 0
BBX 5 7 0 0
BITMAP
20
50
50
88
50
50
20
ENDCHAR
STARTCHAR WHITE
ENCODING 9675
SWIDTH 640 0
DWIDTH 6 0
BBX 5 5 0 1
BITMAP
70
88
88
88
70
ENDCHAR
STARTCHAR DOTTED
ENCODING 9676
SWIDTH 640 0
DWIDTH 6 0
BBX 5 5 0 1
BITMAP
50
88
00
88
50
ENDCHAR
STARTCHAR CIRCLE
ENCODING 9677
SWIDTH 640 0
DWIDTH 6 0
BBX 5 5 0 1
BITMAP
70
A8
A8
A8
70
ENDCHAR
STARTCHAR BULLSEYE
ENCODING 9678
SWIDTH 640 0
DWIDTH 6 0
BBX 5 5 0 1
BITMAP
70
88
A8
88
70
ENDCHAR
STARTCHAR BLACK
ENCODING 9679
SWIDTH 640 0
DWIDTH 6 0
BBX 4 4 1 2
BITMAP
60
F0
F0
60
ENDCHAR
STARTCHAR CIRCLE
ENCODING 9680
SWIDTH 640 0
DWIDTH 6 0
BBX 4 4 1 2
BITMAP
60
D0
D0
60
ENDCHAR
STARTCHAR CIRCLE
ENCODING 9681
SWIDTH 640 0
DWIDTH 6 0
BBX 4 4 1 2
BITMAP
60
B0
B0
60
ENDCHAR
STARTCHAR CIRCLE
ENCODING 9682
SWIDTH 640 0
DWIDTH 6 0
BBX 4 4 1 2
BITMAP
60
F0
90
60
ENDCHAR
STARTCHAR CIRCLE
ENCODING 9683
SWIDTH 640 0
DWIDTH 6 0
BBX 4 4 1 2
BITMAP
60
90
F0
60
ENDCHAR
STARTCHAR CIRCLE
ENCODING 9684
SWIDTH 640 0
DWIDTH 6 0
BBX 4 4 1 2
BITMAP
60
B0
90
60
ENDCHAR
STARTCHAR CIRCLE
ENCODING 9685
SWIDTH 640 0
DWIDTH 6 0
BBX 4 4 1 2
BITMAP
60
B0
F0
60
ENDCHAR
STARTCHAR LEFT
ENCODING 9686
SWIDTH 640 0
DWIDTH 6 0
BBX 2 4 1 2
BITMAP
40
C0
C0
40
ENDCHAR
STARTCHAR RIGHT
ENCODING 9687
SWIDTH 640 0
DWIDTH 6 0
BBX 2 4 3 2
BITMAP
80
C0
C0
80
ENDCHAR
STARTCHAR INVERSE
ENCODING 9688
SWIDTH 640 0
DWIDTH 6 0
BBX 6 11 0 -2
BITMAP
FC
FC
FC
FC
CC
84
84
CC
FC
FC
FC
ENDCHAR
STARTCHAR INVERSE
ENCODING 9689
SWIDTH 640 0
DWIDTH 6 0
BBX 6 11 0 -2
BITMAP
FC
FC
FC
FC
CC
B4
B4
CC
FC
FC
FC
ENDCHAR
STARTCHAR UPPER
ENCODING 9690
SWIDTH 640 0
DWIDTH 6 0
BBX 6 6 0 3
BITMAP
FC
FC
FC
FC
CC
B4
ENDCHAR
STARTCHAR LOWER
ENCODING 9691
SWIDTH 640 0
DWIDTH 6 0
BBX 6 5 0 -2
BITMAP
B4
CC
FC
FC
FC
ENDCHAR
STARTCHAR UPPER
ENCODING 9692
SWIDTH 640 0
DWIDTH 6 0
BBX 3 3 0 3
BITMAP
60
80
80
ENDCHAR
STARTCHAR UPPER
ENCODING 9693
SWIDTH 640 0
DWIDTH 6 0
BBX 3 3 2 3
BITMAP
C0
20
20
ENDCHAR
STARTCHAR LOWER
ENCODING 9694
SWIDTH 640 0
DWIDTH 6 0
BBX 3 3 2 1
BITMAP
20
20
C0
ENDCHAR
STARTCHAR LOWER
ENCODING 9695
SWIDTH 640 0
DWIDTH 6 0
BBX 3 3 0 1
BITMAP
80
80
60
ENDCHAR
STARTCHAR UPPER
ENCODING 9696
SWIDTH 640 0
DWIDTH 6 0
BBX 5 3 0 3
BITMAP
70
88
88
ENDCHAR
STARTCHAR LOWER
ENCODING 9697
SWIDTH 640 0
DWIDTH 6 0
BBX 6 3 0 1
BITMAP
84
44
38
ENDCHAR
STARTCHAR BLACK
ENCODING 9698
SWIDTH 640 0
DWIDTH 6 0
BBX 6 6 0 0
BITMAP
04
0C
1C
3C
7C
FC
ENDCHAR
STARTCHAR BLACK
ENCODING 9699
SWIDTH 640 0
DWIDTH 6 0
BBX 6 6 0 0
BITMAP
80
C0
E0
F0
F8
FC
ENDCHAR
STARTCHAR BLACK
ENCODING 9700
SWIDTH 640 0
DWIDTH 6 0
BBX 6 6 0 0
BITMAP
FC
F8
F0
E0
C0
80
ENDCHAR
STARTCHAR BLACK
ENCODING 9701
SWIDTH 640 0
DWIDTH 6 0
BBX 6 6 0 0
BITMAP
FC
7C
3C
1C
0C
04
ENDCHAR
STARTCHAR WHITE
ENCODING 9702
SWIDTH 640 0
DWIDTH 6 0
BBX 5 5 0 1
BITMAP
70
88
88
88
70
ENDCHAR
STARTCHAR SQUARE
ENCODING 9703
SWIDTH 640 0
DWIDTH 6 0
BBX 5 5 0 0
BITMAP
F8
C8
C8
C8
F8
ENDCHAR
STARTCHAR SQUARE
ENCODING 9704
SWIDTH 640 0
DWIDTH 6 0
BBX 5 5 0 0
BITMAP
F8
98
98
98
F8
ENDCHAR
STARTCHAR SQUARE
ENCODING 9705
SWIDTH 640 0
DWIDTH 6 0
BBX 5 5 0 0
BITMAP
F8
E8
C8
88
F8
ENDCHAR
STARTCHAR SQUARE
ENCODING 9706
SWIDTH 640 0
DWIDTH 6 0
BBX 5 5 0 0
BITMAP
F8
88
98
B8
F8
ENDCHAR
STARTCHAR WHITE
ENCODING 9707
SWIDTH 640 0
DWIDTH 6 0
BBX 5 5 0 0
BITMAP
F8
A8
A8
A8
F8
ENDCHAR
STARTCHAR WHITE
ENCODING 9708
SWIDTH 640 0
DWIDTH 6 0
BBX 5 7 0 0
BITMAP
20
20
50
50
A8
88
F8
ENDCHAR
STARTCHAR UP-POINTING
ENCODING 9709
SWIDTH 640 0
DWIDTH 6 0
BBX 5 7 0 0
BITMAP
20
20
70
70
E8
E8
F8
ENDCHAR
STARTCHAR UP-POINTING
ENCODING 9710
SWIDTH 640 0
DWIDTH 6 0
BBX 5 7 0 0
BITMAP
20
20
70
70
B8
B8
F8
ENDCHAR
STARTCHAR LARGE
ENCODING 9711
SWIDTH 640 0
DWIDTH 6 0
BBX 6 6 0 0
BITMAP
78
84
84
84
84
78
ENDCHAR
STARTCHAR WHITE
ENCODING 9712
SWIDTH 640 0
DWIDTH 6 0
BBX 5 5 0 0
BITMAP
F8
A8
E8
88
F8
ENDCHAR
STARTCHAR WHITE
ENCODING 9713
SWIDTH 640 0
DWIDTH 6 0
BBX 5 5 0 0
BITMAP
F8
88
E8
A8
F8
ENDCHAR
STARTCHAR WHITE
ENCODING 9714
SWIDTH 640 0
DWIDTH 6 0
BBX 5 5 0 0
BITMAP
F8
88
B8
A8
F8
ENDCHAR
STARTCHAR WHITE
ENCODING 9715
SWIDTH 640 0
DWIDTH 6 0
BBX 5 5 0 0
BITMAP
F8
A8
B8
88
F8
ENDCHAR
STARTCHAR WHITE
ENCODING 9716
SWIDTH 640 0
DWIDTH 6 0
BBX 5 5 0 0
BITMAP
70
A8
E8
88
70
ENDCHAR
STARTCHAR WHITE
ENCODING 9717
SWIDTH 640 0
DWIDTH 6 0
BBX 5 5 0 0
BITMAP
70
88
E8
A8
70
ENDCHAR
STARTCHAR WHITE
ENCODING 9718
SWIDTH 640 0
DWIDTH 6 0
BBX 5 5 0 0
BITMAP
70
88
B8
A8
70
ENDCHAR
STARTCHAR WHITE
ENCODING 9719
SWIDTH 640 0
DWIDTH 6 0
BBX 5 5 0 0
BITMAP
70
A8
B8
88
70
ENDCHAR
STARTCHAR UPPER
ENCODING 9720
SWIDTH 640 0
DWIDTH 6 0
BBX 4 4 0 3
BITMAP
F0
A0
C0
80
ENDCHAR
STARTCHAR UPPER
ENCODING 9721
SWIDTH 640 0
DWIDTH 6 0
BBX 4 4 2 3
BITMAP
F0
50
30
10
ENDCHAR
STARTCHAR LOWER
ENCODING 9722
SWIDTH 640 0
DWIDTH 6 0
BBX 4 4 0 0
BITMAP
80
C0
A0
F0
ENDCHAR
STARTCHAR WHITE
ENCODING 9723
SWIDTH 640 0
DWIDTH 6 0
BBX 6 6 0 0
BITMAP
FC
84
84
84
84
FC
ENDCHAR
STARTCHAR BLACK
ENCODING 9724
SWIDTH 640 0
DWIDTH 6 0
BBX 6 6 0 0
BITMAP
FC
FC
FC
FC
FC
FC
ENDCHAR
STARTCHAR WHITE
ENCODING 9725
SWIDTH 640 0
DWIDTH 6 0
BBX 5 5 0 1
BITMAP
F8
88
88
88
F8
ENDCHAR
STARTCHAR BLACK
ENCODING 9726
SWIDTH 640 0
DWIDTH 6 0
BBX 5 5 0 1
BITMAP
F8
F8
F8
F8
F8
ENDCHAR
STARTCHAR LOWER
ENCODING 9727
SWIDTH 640 0
DWIDTH 6 0
BBX 4 4 2 0
BITMAP
10
30
50
F0
ENDCHAR
STARTCHAR BLACK
ENCODING 9728
SWIDTH 640 0
DWIDTH 6 0
BBX 5 7 0 0
BITMAP
20
88
70
F8
70
88
20
ENDCHAR
STARTCHAR CLOUD
ENCODING 9729
SWIDTH 640 0
DWIDTH 6 0
BBX 6 3 0 1
BITMAP
28
7C
FC
ENDCHAR
STARTCHAR UMBRELLA
ENCODING 9730
SWIDTH 640 0
DWIDTH 6 0
BBX 5 6 0 0
BITMAP
70
F8
20
20
20
40
ENDCHAR
STARTCHAR SNOWMAN
ENCODING 9731
SWIDTH 640 0
DWIDTH 6 0
BBX 6 11 0 -2
BITMAP
40
00
A4
70
50
A8
50
70
88
88
70
ENDCHAR
STARTCHAR COMET
ENCODING 9732
SWIDTH 640 0
DWIDTH 6 0
BBX 6 8 0 0
BITMAP
24
48
48
50
10
44
A8
40
ENDCHAR
STARTCHAR BLACK
ENCODING 9733
SWIDTH 640 0
DWIDTH 6 0
BBX 5 5 0 1
BITMAP
20
20
F8
70
88
ENDCHAR
STARTCHAR WHITE
ENCODING 9734
SWIDTH 640 0
DWIDTH 6 0
BBX 5 5 0 1
BITMAP
20
20
D8
70
88
ENDCHAR
STARTCHAR LIGHTNING
ENCODING 9735
SWIDTH 640 0
DWIDTH 6 0
BBX 4 7 0 0
BITMAP
10
20
40
80
50
30
70
ENDCHAR
STARTCHAR THUNDERSTORM
ENCODING 9736
SWIDTH 640 0
DWIDTH 6 0
BBX 5 7 0 0
BITMAP
F8
88
90
A0
A8
98
B8
ENDCHAR
STARTCHAR SUN
ENCODING 9737
SWIDTH 640 0
DWIDTH 6 0
BBX 5 5 0 0
BITMAP
70
88
A8
88
70
ENDCHAR
STARTCHAR BALLOT
ENCODING 9744
SWIDTH 640 0
DWIDTH 6 0
BBX 6 6 0 0
BITMAP
FC
84
84
84
84
FC
ENDCHAR
STARTCHAR BALLOT
ENCODING 9745
SWIDTH 640 0
DWIDTH 6 0
BBX 6 6 0 0
BITMAP
FC
8C
94
D4
A4
FC
ENDCHAR
STARTCHAR WHITE
ENCODING 9750
SWIDTH 640 0
DWIDTH 6 0
BBX 5 7 0 0
BITMAP
20
50
88
88
88
88
F8
ENDCHAR
STARTCHAR BLACK
ENCODING 9751
SWIDTH 640 0
DWIDTH 6 0
BBX 5 7 0 0
BITMAP
20
70
F8
F8
F8
F8
F8
ENDCHAR
STARTCHAR WHITE
ENCODING 9758
SWIDTH 640 0
DWIDTH 6 0
BBX 5 4 0 0
BITMAP
F8
D0
D0
E0
ENDCHAR
STARTCHAR TRIGRAM
ENCODING 9776
SWIDTH 640 0
DWIDTH 6 0
BBX 5 8 0 0
BITMAP
F8
F8
00
F8
F8
00
F8
F8
ENDCHAR
STARTCHAR TRIGRAM
ENCODING 9777
SWIDTH 640 0
DWIDTH 6 0
BBX 5 8 0 0
BITMAP
D8
D8
00
F8
F8
00
F8
F8
ENDCHAR
STARTCHAR TRIGRAM
ENCODING 9778
SWIDTH 640 0
DWIDTH 6 0
BBX 5 8 0 0
BITMAP
F8
F8
00
D8
D8
00
F8
F8
ENDCHAR
STARTCHAR TRIGRAM
ENCODING 9779
SWIDTH 640 0
DWIDTH 6 0
BBX 5 8 0 0
BITMAP
D8
D8
00
D8
D8
00
F8
F8
ENDCHAR
STARTCHAR TRIGRAM
ENCODING 9780
SWIDTH 640 0
DWIDTH 6 0
BBX 5 8 0 0
BITMAP
F8
F8
00
F8
F8
00
D8
D8
ENDCHAR
STARTCHAR TRIGRAM
ENCODING 9781
SWIDTH 640 0
DWIDTH 6 0
BBX 5 8 0 0
BITMAP
D8
D8
00
F8
F8
00
D8
D8
ENDCHAR
STARTCHAR TRIGRAM
ENCODING 9782
SWIDTH 640 0
DWIDTH 6 0
BBX 5 8 0 0
BITMAP
F8
F8
00
D8
D8
00
D8
D8
ENDCHAR
STARTCHAR TRIGRAM
ENCODING 9783
SWIDTH 640 0
DWIDTH 6 0
BBX 5 8 0 0
BITMAP
D8
D8
00
D8
D8
00
D8
D8
ENDCHAR
STARTCHAR MERCURY
ENCODING 9791
SWIDTH 640 0
DWIDTH 6 0
BBX 5 9 0 -3
BITMAP
88
70
88
88
88
70
20
70
20
ENDCHAR
STARTCHAR FEMALE
ENCODING 9792
SWIDTH 640 0
DWIDTH 6 0
BBX 5 8 0 -3
BITMAP
70
88
88
88
70
20
70
20
ENDCHAR
STARTCHAR EARTH
ENCODING 9793
SWIDTH 640 0
DWIDTH 6 0
BBX 5 8 0 0
BITMAP
20
70
20
70
88
88
88
70
ENDCHAR
STARTCHAR MALE
ENCODING 9794
SWIDTH 640 0
DWIDTH 6 0
BBX 6 7 0 0
BITMAP
1C
0C
74
88
88
88
70
ENDCHAR
STARTCHAR BLACK
ENCODING 9824
SWIDTH 640 0
DWIDTH 6 0
BBX 5 8 0 -1
BITMAP
20
20
70
F8
F8
70
20
70
ENDCHAR
STARTCHAR WHITE
ENCODING 9825
SWIDTH 640 0
DWIDTH 6 0
BBX 5 5 0 0
BITMAP
50
A8
88
50
20
ENDCHAR
STARTCHAR WHITE
ENCODING 9826
SWIDTH 640 0
DWIDTH 6 0
BBX 5 6 0 0
BITMAP
20
50
88
88
50
20
ENDCHAR
STARTCHAR BLACK
ENCODING 9827
SWIDTH 640 0
DWIDTH 6 0
BBX 5 8 0 -1
BITMAP
70
70
20
F8
F8
F8
20
70
ENDCHAR
STARTCHAR WHITE
ENCODING 9828
SWIDTH 640 0
DWIDTH 6 0
BBX 5 8 0 -1
BITMAP
20
20
50
88
88
70
20
70
ENDCHAR
STARTCHAR BLACK
ENCODING 9829
SWIDTH 640 0
DWIDTH 6 0
BBX 5 5 0 1
BITMAP
50
F8
F8
70
20
ENDCHAR
STARTCHAR BLACK
ENCODING 9830
SWIDTH 640 0
DWIDTH 6 0
BBX 5 9 0 -2
BITMAP
20
20
70
70
F8
70
70
20
20
ENDCHAR
STARTCHAR WHITE
ENCODING 9831
SWIDTH 640 0
DWIDTH 6 0
BBX 5 8 0 -1
BITMAP
70
50
20
F8
A8
F8
20
70
ENDCHAR
STARTCHAR QUARTER
ENCODING 9833
SWIDTH 640 0
DWIDTH 6 0
BBX 3 7 0 0
BITMAP
20
20
20
20
20
E0
E0
ENDCHAR
STARTCHAR EIGHTH
ENCODING 9834
SWIDTH 640 0
DWIDTH 6 0
BBX 5 7 0 0
BITMAP
30
28
28
20
20
E0
E0
ENDCHAR
STARTCHAR BEAMED
ENCODING 9835
SWIDTH 640 0
DWIDTH 6 0
BBX 5 7 0 0
BITMAP
78
48
48
48
48
D8
D8
ENDCHAR
STARTCHAR BEAMED
ENCODING 9836
SWIDTH 640 0
DWIDTH 6 0
BBX 5 7 0 0
BITMAP
78
78
48
78
48
D8
D8
ENDCHAR
STARTCHAR MUSIC
ENCODING 9837
SWIDTH 640 0
DWIDTH 6 0
BBX 3 7 0 0
BITMAP
80
80
80
80
E0
A0
C0
ENDCHAR
STARTCHAR MUSIC
ENCODING 9838
SWIDTH 640 0
DWIDTH 6 0
BBX 4 8 0 -1
BITMAP
80
90
B0
D0
B0
D0
90
10
ENDCHAR
STARTCHAR MUSIC
ENCODING 9839
SWIDTH 640 0
DWIDTH 6 0
BBX 5 8 0 -1
BITMAP
10
58
70
D0
58
70
D0
40
ENDCHAR
STARTCHAR DOUBLED
ENCODING 9890
SWIDTH 640 0
DWIDTH 6 0
BBX 5 7 0 -2
BITMAP
70
A8
A8
70
50
F8
50
ENDCHAR
STARTCHAR DOUBLED
ENCODING 9891
SWIDTH 640 0
DWIDTH 6 0
BBX 6 7 0 0
BITMAP
30
10
6C
94
A8
48
30
ENDCHAR
STARTCHAR INTERLOCKED
ENCODING 9892
SWIDTH 640 0
DWIDTH 6 0
BBX 6 10 0 -2
BITMAP
1C
0C
34
48
A8
90
60
40
E0
40
ENDCHAR
STARTCHAR MALE
ENCODING 9893
SWIDTH 640 0
DWIDTH 6 0
BBX 6 10 0 -2
BITMAP
1C
0C
74
88
88
88
70
20
70
20
ENDCHAR
STARTCHAR MALE
ENCODING 9894
SWIDTH 640 0
DWIDTH 6 0
BBX 6 7 0 0
BITMAP
1C
2C
14
68
90
90
60
ENDCHAR
STARTCHAR MALE
ENCODING 9895
SWIDTH 640 0
DWIDTH 6 0
BBX 6 11 0 -2
BITMAP
C0
EC
4C
B8
44
44
44
38
10
38
10
ENDCHAR
STARTCHAR VERTICAL
ENCODING 9896
SWIDTH 640 0
DWIDTH 6 0
BBX 5 10 0 -1
BITMAP
20
70
20
70
20
70
88
88
88
70
ENDCHAR
STARTCHAR HORIZONTAL
ENCODING 9897
SWIDTH 640 0
DWIDTH 6 0
BBX 6 5 0 0
BITMAP
40
A8
BC
A8
40
ENDCHAR
STARTCHAR AIRPLANE
ENCODING 9992
SWIDTH 640 0
DWIDTH 6 0
BBX 6 5 0 1
BITMAP
20
B0
FC
B0
20
ENDCHAR
STARTCHAR CHECK
ENCODING 10003
SWIDTH 640 0
DWIDTH 6 0
BBX 5 7 0 0
BITMAP
08
10
10
A0
A0
40
40
ENDCHAR
STARTCHAR HEAVY
ENCODING 10004
SWIDTH 640 0
DWIDTH 6 0
BBX 6 7 0 0
BITMAP
04
0C
08
D8
50
70
20
ENDCHAR
STARTCHAR MULTIPLICATION
ENCODING 10005
SWIDTH 640 0
DWIDTH 6 0
BBX 5 5 0 0
BITMAP
88
50
20
50
88
ENDCHAR
STARTCHAR HEAVY
ENCODING 10006
SWIDTH 640 0
DWIDTH 6 0
BBX 5 5 0 0
BITMAP
D8
50
20
50
D8
ENDCHAR
STARTCHAR BALLOT
ENCODING 10007
SWIDTH 640 0
DWIDTH 6 0
BBX 5 7 0 0
BITMAP
08
48
50
20
50
90
80
ENDCHAR
STARTCHAR HEAVY
ENCODING 10008
SWIDTH 640 0
DWIDTH 6 0
BBX 5 7 0 0
BITMAP
08
58
70
20
70
D0
80
ENDCHAR
STARTCHAR HEAVY
ENCODING 10010
SWIDTH 640 0
DWIDTH 6 0
BBX 6 6 0 0
BITMAP
30
30
FC
FC
30
30
ENDCHAR
STARTCHAR OPEN
ENCODING 10011
SWIDTH 640 0
DWIDTH 6 0
BBX 5 5 0 1
BITMAP
20
20
D8
20
20
ENDCHAR
STARTCHAR HEAVY
ENCODING 10012
SWIDTH 640 0
DWIDTH 6 0
BBX 6 6 0 0
BITMAP
30
30
CC
CC
30
30
ENDCHAR
STARTCHAR LATIN
ENCODING 10013
SWIDTH 640 0
DWIDTH 6 0
BBX 5 7 0 0
BITMAP
20
20
F8
20
20
20
20
ENDCHAR
STARTCHAR SHADOWED
ENCODING 10014
SWIDTH 640 0
DWIDTH 6 0
BBX 6 8 0 0
BITMAP
30
30
FC
FC
30
30
30
30
ENDCHAR
STARTCHAR OUTLINED
ENCODING 10015
SWIDTH 640 0
DWIDTH 6 0
BBX 5 7 0 0
BITMAP
70
D8
88
D8
50
50
70
ENDCHAR
STARTCHAR MALTESE
ENCODING 10016
SWIDTH 640 0
DWIDTH 6 0
BBX 5 7 0 -1
BITMAP
70
20
A8
F8
A8
20
70
ENDCHAR
STARTCHAR STAR
ENCODING 10017
SWIDTH 640 0
DWIDTH 6 0
BBX 5 6 0 0
BITMAP
20
F8
50
50
F8
20
ENDCHAR
STARTCHAR HEAVY
ENCODING 10020
SWIDTH 640 0
DWIDTH 6 0
BBX 6 8 0 -1
BITMAP
30
78
30
FC
FC
30
78
30
ENDCHAR
STARTCHAR FOUR
ENCODING 10021
SWIDTH 640 0
DWIDTH 6 0
BBX 5 7 0 -1
BITMAP
20
70
A8
F8
A8
70
20
ENDCHAR
STARTCHAR BLACK
ENCODING 10022
SWIDTH 640 0
DWIDTH 6 0
BBX 5 5 0 1
BITMAP
20
70
F8
70
20
ENDCHAR
STARTCHAR WHITE
ENCODING 10023
SWIDTH 640 0
DWIDTH 6 0
BBX 5 5 0 1
BITMAP
20
50
88
50
20
ENDCHAR
STARTCHAR STRESS
ENCODING 10025
SWIDTH 533 0
DWIDTH 5 0
BBX 5 5 0 1
BITMAP
20
20
D8
70
88
ENDCHAR
STARTCHAR CIRCLED
ENCODING 10026
SWIDTH 640 0
DWIDTH 6 0
BBX 5 6 0 0
BITMAP
70
D8
88
D8
A8
70
ENDCHAR
STARTCHAR OPEN
ENCODING 10027
SWIDTH 640 0
DWIDTH 6 0
BBX 5 5 0 1
BITMAP
20
20
D8
70
88
ENDCHAR
STARTCHAR EIGHT
ENCODING 10035
SWIDTH 640 0
DWIDTH 6 0
BBX 5 7 0 0
BITMAP
20
A8
70
F8
70
A8
20
ENDCHAR
STARTCHAR SIX
ENCODING 10038
SWIDTH 640 0
DWIDTH 6 0
BBX 5 6 0 0
BITMAP
20
A8
70
70
A8
20
ENDCHAR
STARTCHAR BLACK
ENCODING 10047
SWIDTH 640 0
DWIDTH 6 0
BBX 5 5 0 0
BITMAP
D8
F8
50
F8
D8
ENDCHAR
STARTCHAR EIGHT
ENCODING 10049
SWIDTH 640 0
DWIDTH 6 0
BBX 5 5 0 1
BITMAP
A8
70
D8
70
A8
ENDCHAR
STARTCHAR LOWER
ENCODING 10063
SWIDTH 640 0
DWIDTH 6 0
BBX 6 6 0 1
BITMAP
F8
8C
8C
8C
FC
7C
ENDCHAR
STARTCHAR UPPER
ENCODING 10064
SWIDTH 640 0
DWIDTH 6 0
BBX 6 6 0 1
BITMAP
7C
FC
8C
8C
8C
F8
ENDCHAR
STARTCHAR LOWER
ENCODING 10065
SWIDTH 640 0
DWIDTH 6 0
BBX 6 6 0 1
BITMAP
F8
8C
8C
8C
FC
7C
ENDCHAR
STARTCHAR UPPER
ENCODING 10066
SWIDTH 640 0
DWIDTH 6 0
BBX 6 6 0 1
BITMAP
7C
FC
8C
8C
8C
F8
ENDCHAR
STARTCHAR HEAVY
ENCODING 10075
SWIDTH 640 0
DWIDTH 6 0
BBX 2 4 2 3
BITMAP
40
80
C0
C0
ENDCHAR
STARTCHAR HEAVY
ENCODING 10076
SWIDTH 640 0
DWIDTH 6 0
BBX 2 4 2 4
BITMAP
C0
C0
40
80
ENDCHAR
STARTCHAR HEAVY
ENCODING 10077
SWIDTH 640 0
DWIDTH 6 0
BBX 5 4 0 3
BITMAP
48
90
D8
D8
ENDCHAR
STARTCHAR HEAVY
ENCODING 10078
SWIDTH 640 0
DWIDTH 6 0
BBX 5 4 0 4
BITMAP
D8
D8
48
90
ENDCHAR
STARTCHAR HEAVY
ENCODING 10079
SWIDTH 640 0
DWIDTH 6 0
BBX 2 4 0 -2
BITMAP
C0
C0
40
80
ENDCHAR
STARTCHAR HEAVY
ENCODING 10080
SWIDTH 640 0
DWIDTH 6 0
BBX 5 4 0 -2
BITMAP
D8
D8
48
90
ENDCHAR
STARTCHAR HEAVY
ENCODING 10084
SWIDTH 640 0
DWIDTH 6 0
BBX 5 5 0 1
BITMAP
50
F8
F8
70
20
ENDCHAR
STARTCHAR ROTATED
ENCODING 10085
SWIDTH 640 0
DWIDTH 6 0
BBX 5 5 0 1
BITMAP
60
F0
78
F0
60
ENDCHAR
STARTCHAR FLORAL
ENCODING 10086
SWIDTH 640 0
DWIDTH 6 0
BBX 6 8 0 0
BITMAP
64
B8
20
D8
F8
F0
E4
78
ENDCHAR
STARTCHAR MEDIUM
ENCODING 10092
SWIDTH 640 0
DWIDTH 6 0
BBX 5 7 0 0
BITMAP
18
30
60
C0
60
30
18
ENDCHAR
STARTCHAR MEDIUM
ENCODING 10093
SWIDTH 640 0
DWIDTH 6 0
BBX 5 7 0 0
BITMAP
C0
60
30
18
30
60
C0
ENDCHAR
STARTCHAR HEAVY
ENCODING 10094
SWIDTH 640 0
DWIDTH 6 0
BBX 6 8 0 -1
BITMAP
1C
38
70
E0
E0
70
38
1C
ENDCHAR
STARTCHAR HEAVY
ENCODING 10095
SWIDTH 640 0
DWIDTH 6 0
BBX 6 8 0 -1
BITMAP
E0
70
38
1C
1C
38
70
E0
ENDCHAR
STARTCHAR HEAVY
ENCODING 10096
SWIDTH 640 0
DWIDTH 6 0
BBX 6 7 0 0
BITMAP
3C
78
F0
E0
F0
78
3C
ENDCHAR
STARTCHAR HEAVY
ENCODING 10097
SWIDTH 640 0
DWIDTH 6 0
BBX 6 7 0 0
BITMAP
F0
78
3C
1C
3C
78
F0
ENDCHAR
STARTCHAR DINGBAT
ENCODING 10122
SWIDTH 640 0
DWIDTH 6 0
BBX 6 8 0 -1
BITMAP
78
CC
EC
EC
EC
EC
C4
78
ENDCHAR
STARTCHAR DINGBAT
ENCODING 10123
SWIDTH 640 0
DWIDTH 6 0
BBX 6 8 0 -1
BITMAP
78
CC
B4
F4
EC
DC
84
78
ENDCHAR
STARTCHAR DINGBAT
ENCODING 10124
SWIDTH 640 0
DWIDTH 6 0
BBX 6 8 0 -1
BITMAP
78
8C
F4
CC
F4
F4
8C
78
ENDCHAR
STARTCHAR DINGBAT
ENCODING 10125
SWIDTH 640 0
DWIDTH 6 0
BBX 6 8 0 -1
BITMAP
78
E4
D4
B4
84
F4
F4
78
ENDCHAR
STARTCHAR DINGBAT
ENCODING 10126
SWIDTH 640 0
DWIDTH 6 0
BBX 6 8 0 -1
BITMAP
78
84
BC
8C
F4
F4
8C
78
ENDCHAR
STARTCHAR DINGBAT
ENCODING 10127
SWIDTH 640 0
DWIDTH 6 0
BBX 6 8 0 -1
BITMAP
78
CC
BC
8C
B4
B4
CC
78
ENDCHAR
STARTCHAR DINGBAT
ENCODING 10128
SWIDTH 640 0
DWIDTH 6 0
BBX 6 8 0 -1
BITMAP
78
84
F4
F4
EC
DC
DC
78
ENDCHAR
STARTCHAR DINGBAT
ENCODING 10129
SWIDTH 640 0
DWIDTH 6 0
BBX 6 8 0 -1
BITMAP
78
CC
B4
CC
B4
B4
CC
78
ENDCHAR
STARTCHAR DINGBAT
ENCODING 10130
SWIDTH 640 0
DWIDTH 6 0
BBX 6 8 0 -1
BITMAP
78
CC
B4
B4
C4
F4
CC
78
ENDCHAR
STARTCHAR DINGBAT
ENCODING 10131
SWIDTH 640 0
DWIDTH 6 0
BBX 6 8 1 -1
BITMAP
78
AC
94
94
94
94
AC
78
ENDCHAR
STARTCHAR HEAVY
ENCODING 10132
SWIDTH 640 0
DWIDTH 6 0
BBX 5 5 0 0
BITMAP
20
10
F8
10
20
ENDCHAR
STARTCHAR HEAVY
ENCODING 10133
SWIDTH 640 0
DWIDTH 6 0
BBX 6 6 0 0
BITMAP
30
30
FC
FC
30
30
ENDCHAR
STARTCHAR HEAVY
ENCODING 10134
SWIDTH 640 0
DWIDTH 6 0
BBX 6 2 0 2
BITMAP
FC
FC
ENDCHAR
STARTCHAR HEAVY
ENCODING 10135
SWIDTH 640 0
DWIDTH 6 0
BBX 6 6 0 0
BITMAP
30
00
FC
FC
00
30
ENDCHAR
STARTCHAR HEAVY
ENCODING 10136
SWIDTH 640 0
DWIDTH 6 0
BBX 5 5 0 0
BITMAP
80
40
28
18
38
ENDCHAR
STARTCHAR HEAVY
ENCODING 10137
SWIDTH 640 0
DWIDTH 6 0
BBX 5 3 0 1
BITMAP
10
F8
10
ENDCHAR
STARTCHAR HEAVY
ENCODING 10138
SWIDTH 640 0
DWIDTH 6 0
BBX 5 5 0 0
BITMAP
38
18
28
40
80
ENDCHAR
STARTCHAR DRAFTING
ENCODING 10139
SWIDTH 640 0
DWIDTH 6 0
BBX 6 5 0 0
BITMAP
40
30
FC
30
40
ENDCHAR
STARTCHAR MATHEMATICAL
ENCODING 10216
SWIDTH 640 0
DWIDTH 6 0
BBX 3 10 1 -2
BITMAP
20
20
40
40
80
80
40
40
20
20
ENDCHAR
STARTCHAR MATHEMATICAL
ENCODING 10217
SWIDTH 640 0
DWIDTH 6 0
BBX 3 10 2 -2
BITMAP
80
80
40
40
20
20
40
40
80
80
ENDCHAR
STARTCHAR BRAILLE
ENCODING 10240
SWIDTH 640 0
DWIDTH 6 0
BBX 4 10 0 -1
BITMAP
90
00
00
90
00
00
90
00
00
90
ENDCHAR
STARTCHAR BRAILLE
ENCODING 10241
SWIDTH 640 0
DWIDTH 6 0
BBX 2 2 0 7
BITMAP
C0
C0
ENDCHAR
STARTCHAR BRAILLE
ENCODING 10242
SWIDTH 640 0
DWIDTH 6 0
BBX 2 2 0 4
BITMAP
C0
C0
ENDCHAR
STARTCHAR BRAILLE
ENCODING 10243
SWIDTH 640 0
DWIDTH 6 0
BBX 2 5 0 4
BITMAP
C0
C0
00
C0
C0
ENDCHAR
STARTCHAR BRAILLE
ENCODING 10244
SWIDTH 640 0
DWIDTH 6 0
BBX 2 2 0 1
BITMAP
C0
C0
ENDCHAR
STARTCHAR BRAILLE
ENCODING 10245
SWIDTH 640 0
DWIDTH 6 0
BBX 2 8 0 1
BITMAP
C0
C0
00
00
00
00
C0
C0
ENDCHAR
STARTCHAR BRAILLE
ENCODING 10246
SWIDTH 640 0
DWIDTH 6 0
BBX 2 5 0 1
BITMAP
C0
C0
00
C0
C0
ENDCHAR
STARTCHAR BRAILLE
ENCODING 10247
SWIDTH 640 0
DWIDTH 6 0
BBX 2 8 0 1
BITMAP
C0
C0
00
C0
C0
00
C0
C0
ENDCHAR
STARTCHAR BRAILLE
ENCODING 10248
SWIDTH 640 0
DWIDTH 6 0
BBX 2 2 3 7
BITMAP
C0
C0
ENDCHAR
STARTCHAR BRAILLE
ENCODING 10249
SWIDTH 640 0
DWIDTH 6 0
BBX 5 2 0 7
BITMAP
D8
D8
ENDCHAR
STARTCHAR BRAILLE
ENCODING 10250
SWIDTH 640 0
DWIDTH 6 0
BBX 5 5 0 4
BITMAP
18
18
00
C0
C0
ENDCHAR
STARTCHAR BRAILLE
ENCODING 10251
SWIDTH 640 0
DWIDTH 6 0
BBX 5 5 0 4
BITMAP
D8
D8
00
C0
C0
ENDCHAR
STARTCHAR BRAILLE
ENCODING 10252
SWIDTH 640 0
DWIDTH 6 0
BBX 5 8 0 1
BITMAP
18
18
00
00
00
00
C0
C0
ENDCHAR
STARTCHAR BRAILLE
ENCODING 10253
SWIDTH 640 0
DWIDTH 6 0
BBX 5 8 0 1
BITMAP
D8
D8
00
00
00
00
C0
C0
ENDCHAR
STARTCHAR BRAILLE
ENCODING 10254
SWIDTH 640 0
DWIDTH 6 0
BBX 5 8 0 1
BITMAP
18
18
00
C0
C0
00
C0
C0
ENDCHAR
STARTCHAR BRAILLE
ENCODING 10255
SWIDTH 640 0
DWIDTH 6 0
BBX 5 8 0 1
BITMAP
D8
D8
00
C0
C0
00
C0
C0
ENDCHAR
STARTCHAR BRAILLE
ENCODING 10256
SWIDTH 640 0
DWIDTH 6 0
BBX 2 2 3 4
BITMAP
C0
C0
ENDCHAR
STARTCHAR BRAILLE
ENCODING 10257
SWIDTH 640 0
DWIDTH 6 0
BBX 5 5 0 4
BITMAP
C0
C0
00
18
18
ENDCHAR
STARTCHAR BRAILLE
ENCODING 10258
SWIDTH 640 0
DWIDTH 6 0
BBX 5 2 0 4
BITMAP
D8
D8
ENDCHAR
STARTCHAR BRAILLE
ENCODING 10259
SWIDTH 640 0
DWIDTH 6 0
BBX 5 5 0 4
BITMAP
C0
C0
00
D8
D8
ENDCHAR
STARTCHAR BRAILLE
ENCODING 10260
SWIDTH 640 0
DWIDTH 6 0
BBX 5 5 0 1
BITMAP
18
18
00
C0
C0
ENDCHAR
STARTCHAR BRAILLE
ENCODING 10261
SWIDTH 640 0
DWIDTH 6 0
BBX 5 8 0 1
BITMAP
C0
C0
00
18
18
00
C0
C0
ENDCHAR
STARTCHAR BRAILLE
ENCODING 10262
SWIDTH 640 0
DWIDTH 6 0
BBX 5 5 0 1
BITMAP
D8
D8
00
C0
C0
ENDCHAR
STARTCHAR BRAILLE
ENCODING 10263
SWIDTH 640 0
DWIDTH 6 0
BBX 5 8 0 1
BITMAP
C0
C0
00
D8
D8
00
C0
C0
ENDCHAR
STARTCHAR BRAILLE
ENCODING 10264
SWIDTH 640 0
DWIDTH 6 0
BBX 2 5 3 4
BITMAP
C0
C0
00
C0
C0
ENDCHAR
STARTCHAR BRAILLE
ENCODING 10265
SWIDTH 640 0
DWIDTH 6 0
BBX 5 5 0 4
BITMAP
D8
D8
00
18
18
ENDCHAR
STARTCHAR BRAILLE
ENCODING 10266
SWIDTH 640 0
DWIDTH 6 0
BBX 5 5 0 4
BITMAP
18
18
00
D8
D8
ENDCHAR
STARTCHAR BRAILLE
ENCODING 10267
SWIDTH 640 0
DWIDTH 6 0
BBX 5 5 0 4
BITMAP
D8
D8
00
D8
D8
ENDCHAR
STARTCHAR BRAILLE
ENCODING 10268
SWIDTH 640 0
DWIDTH 6 0
BBX 5 8 0 1
BITMAP
18
18
00
18
18
00
C0
C0
ENDCHAR
STARTCHAR BRAILLE
ENCODING 10269
SWIDTH 640 0
DWIDTH 6 0
BBX 5 8 0 1
BITMAP
D8
D8
00
18
18
00
C0
C0
ENDCHAR
STARTCHAR BRAILLE
ENCODING 10270
SWIDTH 640 0
DWIDTH 6 0
BBX 5 8 0 1
BITMAP
18
18
00
D8
D8
00
C0
C0
ENDCHAR
STARTCHAR BRAILLE
ENCODING 10271
SWIDTH 640 0
DWIDTH 6 0
BBX 5 8 0 1
BITMAP
D8
D8
00
D8
D8
00
C0
C0
ENDCHAR
STARTCHAR BRAILLE
ENCODING 10272
SWIDTH 640 0
DWIDTH 6 0
BBX 2 2 3 1
BITMAP
C0
C0
ENDCHAR
STARTCHAR BRAILLE
ENCODING 10273
SWIDTH 640 0
DWIDTH 6 0
BBX 5 8 0 1
BITMAP
C0
C0
00
00
00
00
18
18
ENDCHAR
STARTCHAR BRAILLE
ENCODING 10274
SWIDTH 640 0
DWIDTH 6 0
BBX 5 5 0 1
BITMAP
C0
C0
00
18
18
ENDCHAR
STARTCHAR BRAILLE
ENCODING 10275
SWIDTH 640 0
DWIDTH 6 0
BBX 5 8 0 1
BITMAP
C0
C0
00
C0
C0
00
18
18
ENDCHAR
STARTCHAR BRAILLE
ENCODING 10276
SWIDTH 640 0
DWIDTH 6 0
BBX 5 2 0 1
BITMAP
D8
D8
ENDCHAR
STARTCHAR BRAILLE
ENCODING 10277
SWIDTH 640 0
DWIDTH 6 0
BBX 5 8 0 1
BITMAP
C0
C0
00
00
00
00
D8
D8
ENDCHAR
STARTCHAR BRAILLE
ENCODING 10278
SWIDTH 640 0
DWIDTH 6 0
BBX 5 5 0 1
BITMAP
C0
C0
00
D8
D8
ENDCHAR
STARTCHAR BRAILLE
ENCODING 10279
SWIDTH 640 0
DWIDTH 6 0
BBX 5 8 0 1
BITMAP
C0
C0
00
C0
C0
00
D8
D8
ENDCHAR
STARTCHAR BRAILLE
ENCODING 10280
SWIDTH 640 0
DWIDTH 6 0
BBX 2 8 3 1
BITMAP
C0
C0
00
00
00
00
C0
C0
ENDCHAR
STARTCHAR BRAILLE
ENCODING 10281
SWIDTH 640 0
DWIDTH 6 0
BBX 5 8 0 1
BITMAP
D8
D8
00
00
00
00
18
18
ENDCHAR
STARTCHAR BRAILLE
ENCODING 10282
SWIDTH 640 0
DWIDTH 6 0
BBX 5 8 0 1
BITMAP
18
18
00
C0
C0
00
18
18
ENDCHAR
STARTCHAR BRAILLE
ENCODING 10283
SWIDTH 640 0
DWIDTH 6 0
BBX 5 8 0 1
BITMAP
D8
D8
00
C0
C0
00
18
18
ENDCHAR
STARTCHAR BRAILLE
ENCODING 10284
SWIDTH 640 0
DWIDTH 6 0
BBX 5 8 0 1
BITMAP
18
18
00
00
00
00
D8
D8
ENDCHAR
STARTCHAR BRAILLE
ENCODING 10285
SWIDTH 640 0
DWIDTH 6 0
BBX 5 8 0 1
BITMAP
D8
D8
00
00
00
00
D8
D8
ENDCHAR
STARTCHAR BRAILLE
ENCODING 10286
SWIDTH 640 0
DWIDTH 6 0
BBX 5 8 0 1
BITMAP
18
18
00
C0
C0
00
D8
D8
ENDCHAR
STARTCHAR BRAILLE
ENCODING 10287
SWIDTH 640 0
DWIDTH 6 0
BBX 5 8 0 1
BITMAP
D8
D8
00
C0
C0
00
D8
D8
ENDCHAR
STARTCHAR BRAILLE
ENCODING 10288
SWIDTH 640 0
DWIDTH 6 0
BBX 2 5 3 1
BITMAP
C0
C0
00
C0
C0
ENDCHAR
STARTCHAR BRAILLE
ENCODING 10289
SWIDTH 640 0
DWIDTH 6 0
BBX 5 8 0 1
BITMAP
C0
C0
00
18
18
00
18
18
ENDCHAR
STARTCHAR BRAILLE
ENCODING 10290
SWIDTH 640 0
DWIDTH 6 0
BBX 5 5 0 1
BITMAP
D8
D8
00
18
18
ENDCHAR
STARTCHAR BRAILLE
ENCODING 10291
SWIDTH 640 0
DWIDTH 6 0
BBX 5 8 0 1
BITMAP
C0
C0
00
D8
D8
00
18
18
ENDCHAR
STARTCHAR BRAILLE
ENCODING 10292
SWIDTH 640 0
DWIDTH 6 0
BBX 5 5 0 1
BITMAP
18
18
00
D8
D8
ENDCHAR
STARTCHAR BRAILLE
ENCODING 10293
SWIDTH 640 0
DWIDTH 6 0
BBX 5 8 0 1
BITMAP
C0
C0
00
18
18
00
D8
D8
ENDCHAR
STARTCHAR BRAILLE
ENCODING 10294
SWIDTH 640 0
DWIDTH 6 0
BBX 5 5 0 1
BITMAP
D8
D8
00
D8
D8
ENDCHAR
STARTCHAR BRAILLE
ENCODING 10295
SWIDTH 640 0
DWIDTH 6 0
BBX 5 8 0 1
BITMAP
C0
C0
00
D8
D8
00
D8
D8
ENDCHAR
STARTCHAR BRAILLE
ENCODING 10296
SWIDTH 640 0
DWIDTH 6 0
BBX 2 8 3 1
BITMAP
C0
C0
00
C0
C0
00
C0
C0
ENDCHAR
STARTCHAR BRAILLE
ENCODING 10297
SWIDTH 640 0
DWIDTH 6 0
BBX 5 8 0 1
BITMAP
D8
D8
00
18
18
00
18
18
ENDCHAR
STARTCHAR BRAILLE
ENCODING 10298
SWIDTH 640 0
DWIDTH 6 0
BBX 5 8 0 1
BITMAP
18
18
00
D8
D8
00
18
18
ENDCHAR
STARTCHAR BRAILLE
ENCODING 10299
SWIDTH 640 0
DWIDTH 6 0
BBX 5 8 0 1
BITMAP
D8
D8
00
D8
D8
00
18
18
ENDCHAR
STARTCHAR BRAILLE
ENCODING 10300
SWIDTH 640 0
DWIDTH 6 0
BBX 5 8 0 1
BITMAP
18
18
00
18
18
00
D8
D8
ENDCHAR
STARTCHAR BRAILLE
ENCODING 10301
SWIDTH 640 0
DWIDTH 6 0
BBX 5 8 0 1
BITMAP
D8
D8
00
18
18
00
D8
D8
ENDCHAR
STARTCHAR BRAILLE
ENCODING 10302
SWIDTH 640 0
DWIDTH 6 0
BBX 5 8 0 1
BITMAP
18
18
00
D8
D8
00
D8
D8
ENDCHAR
STARTCHAR BRAILLE
ENCODING 10303
SWIDTH 640 0
DWIDTH 6 0
BBX 5 8 0 1
BITMAP
D8
D8
00
D8
D8
00
D8
D8
ENDCHAR
STARTCHAR BRAILLE
ENCODING 10304
SWIDTH 640 0
DWIDTH 6 0
BBX 2 2 0 -2
BITMAP
C0
C0
ENDCHAR
STARTCHAR BRAILLE
ENCODING 10305
SWIDTH 640 0
DWIDTH 6 0
BBX 2 11 0 -2
BITMAP
C0
C0
00
00
00
00
00
00
00
C0
C0
ENDCHAR
STARTCHAR BRAILLE
ENCODING 10306
SWIDTH 640 0
DWIDTH 6 0
BBX 2 8 0 -2
BITMAP
C0
C0
00
00
00
00
C0
C0
ENDCHAR
STARTCHAR BRAILLE
ENCODING 10307
SWIDTH 640 0
DWIDTH 6 0
BBX 2 11 0 -2
BITMAP
C0
C0
00
C0
C0
00
00
00
00
C0
C0
ENDCHAR
STARTCHAR BRAILLE
ENCODING 10308
SWIDTH 640 0
DWIDTH 6 0
BBX 2 5 0 -2
BITMAP
C0
C0
00
C0
C0
ENDCHAR
STARTCHAR BRAILLE
ENCODING 10309
SWIDTH 640 0
DWIDTH 6 0
BBX 2 11 0 -2
BITMAP
C0
C0
00
00
00
00
C0
C0
00
C0
C0
ENDCHAR
STARTCHAR BRAILLE
ENCODING 10310
SWIDTH 640 0
DWIDTH 6 0
BBX 2 8 0 -2
BITMAP
C0
C0
00
C0
C0
00
C0
C0
ENDCHAR
STARTCHAR BRAILLE
ENCODING 10311
SWIDTH 640 0
DWIDTH 6 0
BBX 2 11 0 -2
BITMAP
C0
C0
00
C0
C0
00
C0
C0
00
C0
C0
ENDCHAR
STARTCHAR BRAILLE
ENCODING 10312
SWIDTH 640 0
DWIDTH 6 0
BBX 5 11 0 -2
BITMAP
18
18
00
00
00
00
00
00
00
C0
C0
ENDCHAR
STARTCHAR BRAILLE
ENCODING 10313
SWIDTH 640 0
DWIDTH 6 0
BBX 5 11 0 -2
BITMAP
D8
D8
00
00
00
00
00
00
00
C0
C0
ENDCHAR
STARTCHAR BRAILLE
ENCODING 10314
SWIDTH 640 0
DWIDTH 6 0
BBX 5 11 0 -2
BITMAP
18
18
00
C0
C0
00
00
00
00
C0
C0
ENDCHAR
STARTCHAR BRAILLE
ENCODING 10315
SWIDTH 640 0
DWIDTH 6 0
BBX 5 11 0 -2
BITMAP
D8
D8
00
C0
C0
00
00
00
00
C0
C0
ENDCHAR
STARTCHAR BRAILLE
ENCODING 10316
SWIDTH 640 0
DWIDTH 6 0
BBX 5 11 0 -2
BITMAP
18
18
00
00
00
00
C0
C0
00
C0
C0
ENDCHAR
STARTCHAR BRAILLE
ENCODING 10317
SWIDTH 640 0
DWIDTH 6 0
BBX 5 11 0 -2
BITMAP
D8
D8
00
00
00
00
C0
C0
00
C0
C0
ENDCHAR
STARTCHAR BRAILLE
ENCODING 10318
SWIDTH 640 0
DWIDTH 6 0
BBX 5 11 0 -2
BITMAP
18
18
00
C0
C0
00
C0
C0
00
C0
C0
ENDCHAR
STARTCHAR BRAILLE
ENCODING 10319
SWIDTH 640 0
DWIDTH 6 0
BBX 5 11 0 -2
BITMAP
D8
D8
00
C0
C0
00
C0
C0
00
C0
C0
ENDCHAR
STARTCHAR BRAILLE
ENCODING 10320
SWIDTH 640 0
DWIDTH 6 0
BBX 5 8 0 -2
BITMAP
18
18
00
00
00
00
C0
C0
ENDCHAR
STARTCHAR BRAILLE
ENCODING 10321
SWIDTH 640 0
DWIDTH 6 0
BBX 5 11 0 -2
BITMAP
C0
C0
00
18
18
00
00
00
00
C0
C0
ENDCHAR
STARTCHAR BRAILLE
ENCODING 10322
SWIDTH 640 0
DWIDTH 6 0
BBX 5 8 0 -2
BITMAP
D8
D8
00
00
00
00
C0
C0
ENDCHAR
STARTCHAR BRAILLE
ENCODING 10323
SWIDTH 640 0
DWIDTH 6 0
BBX 5 11 0 -2
BITMAP
C0
C0
00
D8
D8
00
00
00
00
C0
C0
ENDCHAR
STARTCHAR BRAILLE
ENCODING 10324
SWIDTH 640 0
DWIDTH 6 0
BBX 5 8 0 -2
BITMAP
18
18
00
C0
C0
00
C0
C0
ENDCHAR
STARTCHAR BRAILLE
ENCODING 10325
SWIDTH 640 0
DWIDTH 6 0
BBX 5 11 0 -2
BITMAP
C0
C0
00
18
18
00
C0
C0
00
C0
C0
ENDCHAR
STARTCHAR BRAILLE
ENCODING 10326
SWIDTH 640 0
DWIDTH 6 0
BBX 5 8 0 -2
BITMAP
D8
D8
00
C0
C0
00
C0
C0
ENDCHAR
STARTCHAR BRAILLE
ENCODING 10327
SWIDTH 640 0
DWIDTH 6 0
BBX 5 11 0 -2
BITMAP
C0
C0
00
D8
D8
00
C0
C0
00
C0
C0
ENDCHAR
STARTCHAR BRAILLE
ENCODING 10328
SWIDTH 640 0
DWIDTH 6 0
BBX 5 11 0 -2
BITMAP
18
18
00
18
18
00
00
00
00
C0
C0
ENDCHAR
STARTCHAR BRAILLE
ENCODING 10329
SWIDTH 640 0
DWIDTH 6 0
BBX 5 11 0 -2
BITMAP
D8
D8
00
18
18
00
00
00
00
C0
C0
ENDCHAR
STARTCHAR BRAILLE
ENCODING 10330
SWIDTH 640 0
DWIDTH 6 0
BBX 5 11 0 -2
BITMAP
18
18
00
D8
D8
00
00
00
00
C0
C0
ENDCHAR
STARTCHAR BRAILLE
ENCODING 10331
SWIDTH 640 0
DWIDTH 6 0
BBX 5 11 0 -2
BITMAP
D8
D8
00
D8
D8
00
00
00
00
C0
C0
ENDCHAR
STARTCHAR BRAILLE
ENCODING 10332
SWIDTH 640 0
DWIDTH 6 0
BBX 5 11 0 -2
BITMAP
18
18
00
18
18
00
C0
C0
00
C0
C0
ENDCHAR
STARTCHAR BRAILLE
ENCODING 10333
SWIDTH 640 0
DWIDTH 6 0
BBX 5 11 0 -2
BITMAP
D8
D8
00
18
18
00
C0
C0
00
C0
C0
ENDCHAR
STARTCHAR BRAILLE
ENCODING 10334
SWIDTH 640 0
DWIDTH 6 0
BBX 5 11 0 -2
BITMAP
18
18
00
D8
D8
00
C0
C0
00
C0
C0
ENDCHAR
STARTCHAR BRAILLE
ENCODING 10335
SWIDTH 640 0
DWIDTH 6 0
BBX 5 11 0 -2
BITMAP
D8
D8
00
D8
D8
00
C0
C0
00
C0
C0
ENDCHAR
STARTCHAR BRAILLE
ENCODING 10336
SWIDTH 640 0
DWIDTH 6 0
BBX 5 5 0 -2
BITMAP
18
18
00
C0
C0
ENDCHAR
STARTCHAR BRAILLE
ENCODING 10337
SWIDTH 640 0
DWIDTH 6 0
BBX 5 11 0 -2
BITMAP
C0
C0
00
00
00
00
18
18
00
C0
C0
ENDCHAR
STARTCHAR BRAILLE
ENCODING 10338
SWIDTH 640 0
DWIDTH 6 0
BBX 5 8 0 -2
BITMAP
C0
C0
00
18
18
00
C0
C0
ENDCHAR
STARTCHAR BRAILLE
ENCODING 10339
SWIDTH 640 0
DWIDTH 6 0
BBX 5 11 0 -2
BITMAP
C0
C0
00
C0
C0
00
18
18
00
C0
C0
ENDCHAR
STARTCHAR BRAILLE
ENCODING 10340
SWIDTH 640 0
DWIDTH 6 0
BBX 5 5 0 -2
BITMAP
D8
D8
00
C0
C0
ENDCHAR
STARTCHAR BRAILLE
ENCODING 10341
SWIDTH 640 0
DWIDTH 6 0
BBX 5 11 0 -2
BITMAP
C0
C0
00
00
00
00
D8
D8
00
C0
C0
ENDCHAR
STARTCHAR BRAILLE
ENCODING 10342
SWIDTH 640 0
DWIDTH 6 0
BBX 5 8 0 -2
BITMAP
C0
C0
00
D8
D8
00
C0
C0
ENDCHAR
STARTCHAR BRAILLE
ENCODING 10343
SWIDTH 640 0
DWIDTH 6 0
BBX 5 11 0 -2
BITMAP
C0
C0
00
C0
C0
00
D8
D8
00
C0
C0
ENDCHAR
STARTCHAR BRAILLE
ENCODING 10344
SWIDTH 640 0
DWIDTH 6 0
BBX 5 11 0 -2
BITMAP
18
18
00
00
00
00
18
18
00
C0
C0
ENDCHAR
STARTCHAR BRAILLE
ENCODING 10345
SWIDTH 640 0
DWIDTH 6 0
BBX 5 11 0 -2
BITMAP
D8
D8
00
00
00
00
18
18
00
C0
C0
ENDCHAR
STARTCHAR BRAILLE
ENCODING 10346
SWIDTH 640 0
DWIDTH 6 0
BBX 5 11 0 -2
BITMAP
18
18
00
C0
C0
00
18
18
00
C0
C0
ENDCHAR
STARTCHAR BRAILLE
ENCODING 10347
SWIDTH 640 0
DWIDTH 6 0
BBX 5 11 0 -2
BITMAP
D8
D8
00
C0
C0
00
18
18
00
C0
C0
ENDCHAR
STARTCHAR BRAILLE
ENCODING 10348
SWIDTH 640 0
DWIDTH 6 0
BBX 5 11 0 -2
BITMAP
18
18
00
00
00
00
D8
D8
00
C0
C0
ENDCHAR
STARTCHAR BRAILLE
ENCODING 10349
SWIDTH 640 0
DWIDTH 6 0
BBX 5 11 0 -2
BITMAP
D8
D8
00
00
00
00
D8
D8
00
C0
C0
ENDCHAR
STARTCHAR BRAILLE
ENCODING 10350
SWIDTH 640 0
DWIDTH 6 0
BBX 5 11 0 -2
BITMAP
18
18
00
C0
C0
00
D8
D8
00
C0
C0
ENDCHAR
STARTCHAR BRAILLE
ENCODING 10351
SWIDTH 640 0
DWIDTH 6 0
BBX 5 11 0 -2
BITMAP
D8
D8
00
C0
C0
00
D8
D8
00
C0
C0
ENDCHAR
STARTCHAR BRAILLE
ENCODING 10352
SWIDTH 640 0
DWIDTH 6 0
BBX 5 8 0 -2
BITMAP
18
18
00
18
18
00
C0
C0
ENDCHAR
STARTCHAR BRAILLE
ENCODING 10353
SWIDTH 640 0
DWIDTH 6 0
BBX 5 11 0 -2
BITMAP
C0
C0
00
18
18
00
18
18
00
C0
C0
ENDCHAR
STARTCHAR BRAILLE
ENCODING 10354
SWIDTH 640 0
DWIDTH 6 0
BBX 5 8 0 -2
BITMAP
D8
D8
00
18
18
00
C0
C0
ENDCHAR
STARTCHAR BRAILLE
ENCODING 10355
SWIDTH 640 0
DWIDTH 6 0
BBX 5 11 0 -2
BITMAP
C0
C0
00
D8
D8
00
18
18
00
C0
C0
ENDCHAR
STARTCHAR BRAILLE
ENCODING 10356
SWIDTH 640 0
DWIDTH 6 0
BBX 5 8 0 -2
BITMAP
18
18
00
D8
D8
00
C0
C0
ENDCHAR
STARTCHAR BRAILLE
ENCODING 10357
SWIDTH 640 0
DWIDTH 6 0
BBX 5 11 0 -2
BITMAP
C0
C0
00
18
18
00
D8
D8
00
C0
C0
ENDCHAR
STARTCHAR BRAILLE
ENCODING 10358
SWIDTH 640 0
DWIDTH 6 0
BBX 5 8 0 -2
BITMAP
D8
D8
00
D8
D8
00
C0
C0
ENDCHAR
STARTCHAR BRAILLE
ENCODING 10359
SWIDTH 640 0
DWIDTH 6 0
BBX 5 11 0 -2
BITMAP
C0
C0
00
D8
D8
00
D8
D8
00
C0
C0
ENDCHAR
STARTCHAR BRAILLE
ENCODING 10360
SWIDTH 640 0
DWIDTH 6 0
BBX 5 11 0 -2
BITMAP
18
18
00
18
18
00
18
18
00
C0
C0
ENDCHAR
STARTCHAR BRAILLE
ENCODING 10361
SWIDTH 640 0
DWIDTH 6 0
BBX 5 11 0 -2
BITMAP
D8
D8
00
18
18
00
18
18
00
C0
C0
ENDCHAR
STARTCHAR BRAILLE
ENCODING 10362
SWIDTH 640 0
DWIDTH 6 0
BBX 5 11 0 -2
BITMAP
18
18
00
D8
D8
00
18
18
00
C0
C0
ENDCHAR
STARTCHAR BRAILLE
ENCODING 10363
SWIDTH 640 0
DWIDTH 6 0
BBX 5 11 0 -2
BITMAP
D8
D8
00
D8
D8
00
18
18
00
C0
C0
ENDCHAR
STARTCHAR BRAILLE
ENCODING 10364
SWIDTH 640 0
DWIDTH 6 0
BBX 5 11 0 -2
BITMAP
18
18
00
18
18
00
D8
D8
00
C0
C0
ENDCHAR
STARTCHAR BRAILLE
ENCODING 10365
SWIDTH 640 0
DWIDTH 6 0
BBX 5 11 0 -2
BITMAP
D8
D8
00
18
18
00
D8
D8
00
C0
C0
ENDCHAR
STARTCHAR BRAILLE
ENCODING 10366
SWIDTH 640 0
DWIDTH 6 0
BBX 5 11 0 -2
BITMAP
18
18
00
D8
D8
00
D8
D8
00
C0
C0
ENDCHAR
STARTCHAR BRAILLE
ENCODING 10367
SWIDTH 640 0
DWIDTH 6 0
BBX 5 11 0 -2
BITMAP
D8
D8
00
D8
D8
00
D8
D8
00
C0
C0
ENDCHAR
STARTCHAR BRAILLE
ENCODING 10368
SWIDTH 640 0
DWIDTH 6 0
BBX 2 2 3 -2
BITMAP
C0
C0
ENDCHAR
STARTCHAR BRAILLE
ENCODING 10369
SWIDTH 640 0
DWIDTH 6 0
BBX 5 11 0 -2
BITMAP
C0
C0
00
00
00
00
00
00
00
18
18
ENDCHAR
STARTCHAR BRAILLE
ENCODING 10370
SWIDTH 640 0
DWIDTH 6 0
BBX 5 8 0 -2
BITMAP
C0
C0
00
00
00
00
18
18
ENDCHAR
STARTCHAR BRAILLE
ENCODING 10371
SWIDTH 640 0
DWIDTH 6 0
BBX 5 11 0 -2
BITMAP
C0
C0
00
C0
C0
00
00
00
00
18
18
ENDCHAR
STARTCHAR BRAILLE
ENCODING 10372
SWIDTH 640 0
DWIDTH 6 0
BBX 5 5 0 -2
BITMAP
C0
C0
00
18
18
ENDCHAR
STARTCHAR BRAILLE
ENCODING 10373
SWIDTH 640 0
DWIDTH 6 0
BBX 5 11 0 -2
BITMAP
C0
C0
00
00
00
00
C0
C0
00
18
18
ENDCHAR
STARTCHAR BRAILLE
ENCODING 10374
SWIDTH 640 0
DWIDTH 6 0
BBX 5 8 0 -2
BITMAP
C0
C0
00
C0
C0
00
18
18
ENDCHAR
STARTCHAR BRAILLE
ENCODING 10375
SWIDTH 640 0
DWIDTH 6 0
BBX 5 11 0 -2
BITMAP
C0
C0
00
C0
C0
00
C0
C0
00
18
18
ENDCHAR
STARTCHAR BRAILLE
ENCODING 10376
SWIDTH 640 0
DWIDTH 6 0
BBX 2 11 3 -2
BITMAP
C0
C0
00
00
00
00
00
00
00
C0
C0
ENDCHAR
STARTCHAR BRAILLE
ENCODING 10377
SWIDTH 640 0
DWIDTH 6 0
BBX 5 11 0 -2
BITMAP
D8
D8
00
00
00
00
00
00
00
18
18
ENDCHAR
STARTCHAR BRAILLE
ENCODING 10378
SWIDTH 640 0
DWIDTH 6 0
BBX 5 11 0 -2
BITMAP
18
18
00
C0
C0
00
00
00
00
18
18
ENDCHAR
STARTCHAR BRAILLE
ENCODING 10379
SWIDTH 640 0
DWIDTH 6 0
BBX 5 11 0 -2
BITMAP
D8
D8
00
C0
C0
00
00
00
00
18
18
ENDCHAR
STARTCHAR BRAILLE
ENCODING 10380
SWIDTH 640 0
DWIDTH 6 0
BBX 5 11 0 -2
BITMAP
18
18
00
00
00
00
C0
C0
00
18
18
ENDCHAR
STARTCHAR BRAILLE
ENCODING 10381
SWIDTH 640 0
DWIDTH 6 0
BBX 5 11 0 -2
BITMAP
D8
D8
00
00
00
00
C0
C0
00
18
18
ENDCHAR
STARTCHAR BRAILLE
ENCODING 10382
SWIDTH 640 0
DWIDTH 6 0
BBX 5 11 0 -2
BITMAP
18
18
00
C0
C0
00
C0
C0
00
18
18
ENDCHAR
STARTCHAR BRAILLE
ENCODING 10383
SWIDTH 640 0
DWIDTH 6 0
BBX 5 11 0 -2
BITMAP
D8
D8
00
C0
C0
00
C0
C0
00
18
98
ENDCHAR
STARTCHAR BRAILLE
ENCODING 10384
SWIDTH 640 0
DWIDTH 6 0
BBX 2 8 3 -2
BITMAP
C0
C0
00
00
00
00
C0
C0
ENDCHAR
STARTCHAR BRAILLE
ENCODING 10385
SWIDTH 640 0
DWIDTH 6 0
BBX 5 11 0 -2
BITMAP
C0
C0
00
18
18
00
00
00
00
18
18
ENDCHAR
STARTCHAR BRAILLE
ENCODING 10386
SWIDTH 640 0
DWIDTH 6 0
BBX 5 8 0 -2
BITMAP
D8
D8
00
00
00
00
18
18
ENDCHAR
STARTCHAR BRAILLE
ENCODING 10387
SWIDTH 640 0
DWIDTH 6 0
BBX 5 11 0 -2
BITMAP
C0
C0
00
D8
D8
00
00
00
00
18
18
ENDCHAR
STARTCHAR BRAILLE
ENCODING 10388
SWIDTH 640 0
DWIDTH 6 0
BBX 5 8 0 -2
BITMAP
18
18
00
C0
C0
00
18
18
ENDCHAR
STARTCHAR BRAILLE
ENCODING 10389
SWIDTH 640 0
DWIDTH 6 0
BBX 5 11 0 -2
BITMAP
C0
C0
00
18
18
00
C0
C0
00
18
18
ENDCHAR
STARTCHAR BRAILLE
ENCODING 10390
SWIDTH 640 0
DWIDTH 6 0
BBX 5 8 0 -2
BITMAP
D8
D8
00
C0
C0
00
18
18
ENDCHAR
STARTCHAR BRAILLE
ENCODING 10391
SWIDTH 640 0
DWIDTH 6 0
BBX 5 11 0 -2
BITMAP
C0
C0
00
D8
D8
00
C0
C0
00
18
18
ENDCHAR
STARTCHAR BRAILLE
ENCODING 10392
SWIDTH 640 0
DWIDTH 6 0
BBX 2 11 3 -2
BITMAP
C0
C0
00
C0
C0
00
00
00
00
C0
C0
ENDCHAR
STARTCHAR BRAILLE
ENCODING 10393
SWIDTH 640 0
DWIDTH 6 0
BBX 5 11 0 -2
BITMAP
D8
D8
00
18
18
00
00
00
00
18
18
ENDCHAR
STARTCHAR BRAILLE
ENCODING 10394
SWIDTH 640 0
DWIDTH 6 0
BBX 5 11 0 -2
BITMAP
18
18
00
D8
D8
00
00
00
00
18
18
ENDCHAR
STARTCHAR BRAILLE
ENCODING 10395
SWIDTH 640 0
DWIDTH 6 0
BBX 5 11 0 -2
BITMAP
D8
D8
00
D8
D8
00
00
00
00
18
18
ENDCHAR
STARTCHAR BRAILLE
ENCODING 10396
SWIDTH 640 0
DWIDTH 6 0
BBX 5 11 0 -2
BITMAP
18
18
00
18
18
00
C0
C0
00
18
18
ENDCHAR
STARTCHAR BRAILLE
ENCODING 10397
SWIDTH 640 0
DWIDTH 6 0
BBX 5 11 0 -2
BITMAP
D8
D8
00
18
18
00
C0
C0
00
18
18
ENDCHAR
STARTCHAR BRAILLE
ENCODING 10398
SWIDTH 640 0
DWIDTH 6 0
BBX 5 11 0 -2
BITMAP
18
18
00
D8
D8
00
C0
C0
00
18
18
ENDCHAR
STARTCHAR BRAILLE
ENCODING 10399
SWIDTH 640 0
DWIDTH 6 0
BBX 5 11 0 -2
BITMAP
D8
D8
00
D8
D8
00
C0
C0
00
18
18
ENDCHAR
STARTCHAR BRAILLE
ENCODING 10400
SWIDTH 640 0
DWIDTH 6 0
BBX 2 5 3 -2
BITMAP
C0
C0
00
C0
C0
ENDCHAR
STARTCHAR BRAILLE
ENCODING 10401
SWIDTH 640 0
DWIDTH 6 0
BBX 5 11 0 -2
BITMAP
C0
C0
00
00
00
00
18
18
00
18
18
ENDCHAR
STARTCHAR BRAILLE
ENCODING 10402
SWIDTH 640 0
DWIDTH 6 0
BBX 5 8 0 -2
BITMAP
C0
C0
00
18
18
00
18
18
ENDCHAR
STARTCHAR BRAILLE
ENCODING 10403
SWIDTH 640 0
DWIDTH 6 0
BBX 5 11 0 -2
BITMAP
C0
C0
00
C0
C0
00
18
18
00
18
18
ENDCHAR
STARTCHAR BRAILLE
ENCODING 10404
SWIDTH 640 0
DWIDTH 6 0
BBX 5 5 0 -2
BITMAP
D8
D8
00
18
18
ENDCHAR
STARTCHAR BRAILLE
ENCODING 10405
SWIDTH 640 0
DWIDTH 6 0
BBX 5 11 0 -2
BITMAP
C0
C0
00
00
00
00
D8
D8
00
18
18
ENDCHAR
STARTCHAR BRAILLE
ENCODING 10406
SWIDTH 640 0
DWIDTH 6 0
BBX 5 8 0 -2
BITMAP
C0
C0
00
D8
D8
00
18
18
ENDCHAR
STARTCHAR BRAILLE
ENCODING 10407
SWIDTH 640 0
DWIDTH 6 0
BBX 5 11 0 -2
BITMAP
C0
C0
00
C0
C0
00
D8
D8
00
18
18
ENDCHAR
STARTCHAR BRAILLE
ENCODING 10408
SWIDTH 640 0
DWIDTH 6 0
BBX 2 11 3 -2
BITMAP
C0
C0
00
00
00
00
C0
C0
00
C0
C0
ENDCHAR
STARTCHAR BRAILLE
ENCODING 10409
SWIDTH 640 0
DWIDTH 6 0
BBX 5 11 0 -2
BITMAP
D8
D8
00
00
00
00
18
18
00
18
18
ENDCHAR
STARTCHAR BRAILLE
ENCODING 10410
SWIDTH 640 0
DWIDTH 6 0
BBX 5 11 0 -2
BITMAP
18
18
00
C0
C0
00
18
18
00
18
18
ENDCHAR
STARTCHAR BRAILLE
ENCODING 10411
SWIDTH 640 0
DWIDTH 6 0
BBX 5 11 0 -2
BITMAP
D8
D8
00
C0
C0
00
18
18
00
18
18
ENDCHAR
STARTCHAR BRAILLE
ENCODING 10412
SWIDTH 640 0
DWIDTH 6 0
BBX 5 11 0 -2
BITMAP
18
18
00
00
00
00
D8
D8
00
18
18
ENDCHAR
STARTCHAR BRAILLE
ENCODING 10413
SWIDTH 640 0
DWIDTH 6 0
BBX 5 11 0 -2
BITMAP
D8
D8
00
00
00
00
D8
D8
00
18
18
ENDCHAR
STARTCHAR BRAILLE
ENCODING 10414
SWIDTH 640 0
DWIDTH 6 0
BBX 5 11 0 -2
BITMAP
18
18
00
C0
C0
00
D8
D8
00
18
18
ENDCHAR
STARTCHAR BRAILLE
ENCODING 10415
SWIDTH 640 0
DWIDTH 6 0
BBX 5 11 0 -2
BITMAP
D8
D8
00
C0
C0
00
D8
D8
00
18
18
ENDCHAR
STARTCHAR BRAILLE
ENCODING 10416
SWIDTH 640 0
DWIDTH 6 0
BBX 2 8 3 -2
BITMAP
C0
C0
00
C0
C0
00
C0
C0
ENDCHAR
STARTCHAR BRAILLE
ENCODING 10417
SWIDTH 640 0
DWIDTH 6 0
BBX 5 11 0 -2
BITMAP
C0
C0
00
18
18
00
18
18
00
18
18
ENDCHAR
STARTCHAR BRAILLE
ENCODING 10418
SWIDTH 640 0
DWIDTH 6 0
BBX 5 8 0 -2
BITMAP
D8
D8
00
18
18
00
18
18
ENDCHAR
STARTCHAR BRAILLE
ENCODING 10419
SWIDTH 640 0
DWIDTH 6 0
BBX 5 11 0 -2
BITMAP
C0
C0
00
D8
D8
00
18
18
00
18
18
ENDCHAR
STARTCHAR BRAILLE
ENCODING 10420
SWIDTH 640 0
DWIDTH 6 0
BBX 5 8 0 -2
BITMAP
18
18
00
D8
D8
00
18
18
ENDCHAR
STARTCHAR BRAILLE
ENCODING 10421
SWIDTH 640 0
DWIDTH 6 0
BBX 5 11 0 -2
BITMAP
C0
C0
00
18
18
00
D8
D8
00
18
18
ENDCHAR
STARTCHAR BRAILLE
ENCODING 10422
SWIDTH 640 0
DWIDTH 6 0
BBX 5 8 0 -2
BITMAP
D8
D8
00
D8
D8
00
18
18
ENDCHAR
STARTCHAR BRAILLE
ENCODING 10423
SWIDTH 640 0
DWIDTH 6 0
BBX 5 11 0 -2
BITMAP
C0
C0
00
D8
D8
00
D8
D8
00
18
18
ENDCHAR
STARTCHAR BRAILLE
ENCODING 10424
SWIDTH 640 0
DWIDTH 6 0
BBX 2 11 3 -2
BITMAP
C0
C0
00
C0
C0
00
C0
C0
00
C0
C0
ENDCHAR
STARTCHAR BRAILLE
ENCODING 10425
SWIDTH 640 0
DWIDTH 6 0
BBX 5 11 0 -2
BITMAP
D8
D8
00
18
18
00
18
18
00
18
18
ENDCHAR
STARTCHAR BRAILLE
ENCODING 10426
SWIDTH 640 0
DWIDTH 6 0
BBX 5 11 0 -2
BITMAP
18
18
00
D8
D8
00
18
18
00
18
18
ENDCHAR
STARTCHAR BRAILLE
ENCODING 10427
SWIDTH 640 0
DWIDTH 6 0
BBX 5 11 0 -2
BITMAP
D8
D8
00
D8
D8
00
18
18
00
18
18
ENDCHAR
STARTCHAR BRAILLE
ENCODING 10428
SWIDTH 640 0
DWIDTH 6 0
BBX 5 11 0 -2
BITMAP
18
18
00
D8
D8
00
D8
D8
00
18
18
ENDCHAR
STARTCHAR BRAILLE
ENCODING 10429
SWIDTH 640 0
DWIDTH 6 0
BBX 5 11 0 -2
BITMAP
D8
D8
00
18
18
00
D8
D8
00
18
18
ENDCHAR
STARTCHAR BRAILLE
ENCODING 10430
SWIDTH 640 0
DWIDTH 6 0
BBX 5 11 0 -2
BITMAP
18
18
00
D8
D8
00
D8
D8
00
18
18
ENDCHAR
STARTCHAR BRAILLE
ENCODING 10431
SWIDTH 640 0
DWIDTH 6 0
BBX 5 11 0 -2
BITMAP
D8
D8
00
D8
D8
00
D8
D8
00
18
18
ENDCHAR
STARTCHAR BRAILLE
ENCODING 10432
SWIDTH 640 0
DWIDTH 6 0
BBX 5 2 0 -2
BITMAP
D8
D8
ENDCHAR
STARTCHAR BRAILLE
ENCODING 10433
SWIDTH 640 0
DWIDTH 6 0
BBX 5 11 0 -2
BITMAP
C0
C0
00
00
00
00
00
00
00
D8
D8
ENDCHAR
STARTCHAR BRAILLE
ENCODING 10434
SWIDTH 640 0
DWIDTH 6 0
BBX 5 8 0 -2
BITMAP
C0
C0
00
00
00
00
D8
D8
ENDCHAR
STARTCHAR BRAILLE
ENCODING 10435
SWIDTH 640 0
DWIDTH 6 0
BBX 5 11 0 -2
BITMAP
C0
C0
00
C0
C0
00
00
00
00
D8
D8
ENDCHAR
STARTCHAR BRAILLE
ENCODING 10436
SWIDTH 640 0
DWIDTH 6 0
BBX 5 5 0 -2
BITMAP
C0
C0
00
D8
D8
ENDCHAR
STARTCHAR BRAILLE
ENCODING 10437
SWIDTH 640 0
DWIDTH 6 0
BBX 5 11 0 -2
BITMAP
C0
C0
00
00
00
00
C0
C0
00
D8
D8
ENDCHAR
STARTCHAR BRAILLE
ENCODING 10438
SWIDTH 640 0
DWIDTH 6 0
BBX 5 8 0 -2
BITMAP
C0
C0
00
C0
C0
00
D8
D8
ENDCHAR
STARTCHAR BRAILLE
ENCODING 10439
SWIDTH 640 0
DWIDTH 6 0
BBX 5 11 0 -2
BITMAP
C0
C0
00
C0
C0
00
C0
C0
00
D8
D8
ENDCHAR
STARTCHAR BRAILLE
ENCODING 10440
SWIDTH 640 0
DWIDTH 6 0
BBX 5 11 0 -2
BITMAP
18
18
00
00
00
00
00
00
00
D8
D8
ENDCHAR
STARTCHAR BRAILLE
ENCODING 10441
SWIDTH 640 0
DWIDTH 6 0
BBX 5 11 0 -2
BITMAP
D8
D8
00
00
00
00
00
00
00
D8
D8
ENDCHAR
STARTCHAR BRAILLE
ENCODING 10442
SWIDTH 640 0
DWIDTH 6 0
BBX 5 11 0 -2
BITMAP
18
18
00
C0
C0
00
00
00
00
D8
D8
ENDCHAR
STARTCHAR BRAILLE
ENCODING 10443
SWIDTH 640 0
DWIDTH 6 0
BBX 5 11 0 -2
BITMAP
D8
D8
00
C0
C0
00
00
00
00
D8
D8
ENDCHAR
STARTCHAR BRAILLE
ENCODING 10444
SWIDTH 640 0
DWIDTH 6 0
BBX 5 11 0 -2
BITMAP
18
18
00
00
00
00
C0
C0
00
D8
D8
ENDCHAR
STARTCHAR BRAILLE
ENCODING 10445
SWIDTH 640 0
DWIDTH 6 0
BBX 5 11 0 -2
BITMAP
D8
D8
00
00
00
00
C0
C0
00
D8
D8
ENDCHAR
ENDFONT
